<?xml version="1.0" encoding="UTF-8" standalone="no"?>
<!-- Created with Inkscape (http://www.inkscape.org/) -->

<svg
   width="1440"
   height="1134"
   viewBox="0 7.234 148.81651 117.193"
   version="1.1"
   id="svg1"
   xml:space="preserve"
   xmlns="http://www.w3.org/2000/svg"
   xmlns:svg="http://www.w3.org/2000/svg"><defs
     id="defs1"><filter
       id="filter0_d_403_347"
       x="230.97501"
       y="659.06"
       width="814.36401"
       height="159.138"
       filterUnits="userSpaceOnUse"
       color-interpolation-filters="sRGB"><feFlood
         flood-opacity="0"
         result="BackgroundImageFix"
         id="feFlood6" /><feColorMatrix
         in="SourceAlpha"
         type="matrix"
         values="0 0 0 0 0 0 0 0 0 0 0 0 0 0 0 0 0 0 127 0"
         result="hardAlpha"
         id="feColorMatrix6" /><feOffset
         dy="0.85"
         id="feOffset6" /><feGaussianBlur
         stdDeviation="2.04"
         id="feGaussianBlur6" /><feComposite
         in2="hardAlpha"
         operator="out"
         id="feComposite6" /><feColorMatrix
         type="matrix"
         values="0 0 0 0 0.325 0 0 0 0 0 0 0 0 0 0.062234 0 0 0 1 0"
         id="feColorMatrix7" /><feBlend
         mode="multiply"
         in2="BackgroundImageFix"
         result="effect1_dropShadow_403_347"
         id="feBlend7" /><feBlend
         mode="normal"
         in="SourceGraphic"
         in2="effect1_dropShadow_403_347"
         result="shape"
         id="feBlend8" /></filter><filter
       id="filter1_d_403_347"
       x="36.9827"
       y="217.401"
       width="1158.9301"
       height="319.62"
       filterUnits="userSpaceOnUse"
       color-interpolation-filters="sRGB"><feFlood
         flood-opacity="0"
         result="BackgroundImageFix"
         id="feFlood8" /><feColorMatrix
         in="SourceAlpha"
         type="matrix"
         values="0 0 0 0 0 0 0 0 0 0 0 0 0 0 0 0 0 0 127 0"
         result="hardAlpha"
         id="feColorMatrix8" /><feOffset
         dy="3.4"
         id="feOffset8" /><feGaussianBlur
         stdDeviation="25.415"
         id="feGaussianBlur8" /><feComposite
         in2="hardAlpha"
         operator="out"
         id="feComposite8" /><feColorMatrix
         type="matrix"
         values="0 0 0 0 0.956863 0 0 0 0 0.25098 0 0 0 0 0.403922 0 0 0 1 0"
         id="feColorMatrix9" /><feBlend
         mode="normal"
         in2="BackgroundImageFix"
         result="effect1_dropShadow_403_347"
         id="feBlend9" /><feBlend
         mode="normal"
         in="SourceGraphic"
         in2="effect1_dropShadow_403_347"
         result="shape"
         id="feBlend10" /></filter><filter
       id="filter2_d_403_347"
       x="269.09"
       y="324.23599"
       width="691.185"
       height="252.89101"
       filterUnits="userSpaceOnUse"
       color-interpolation-filters="sRGB"><feFlood
         flood-opacity="0"
         result="BackgroundImageFix"
         id="feFlood10" /><feColorMatrix
         in="SourceAlpha"
         type="matrix"
         values="0 0 0 0 0 0 0 0 0 0 0 0 0 0 0 0 0 0 127 0"
         result="hardAlpha"
         id="feColorMatrix10" /><feOffset
         dy="3.4"
         id="feOffset10" /><feGaussianBlur
         stdDeviation="25.415"
         id="feGaussianBlur10" /><feComposite
         in2="hardAlpha"
         operator="out"
         id="feComposite10" /><feColorMatrix
         type="matrix"
         values="0 0 0 0 1 0 0 0 0 1 0 0 0 0 1 0 0 0 0.75 0"
         id="feColorMatrix11" /><feBlend
         mode="normal"
         in2="BackgroundImageFix"
         result="effect1_dropShadow_403_347"
         id="feBlend11" /><feBlend
         mode="normal"
         in="SourceGraphic"
         in2="effect1_dropShadow_403_347"
         result="shape"
         id="feBlend12" /></filter><filter
       id="filter3_d_403_347"
       x="305.55499"
       y="360.70099"
       width="618.255"
       height="179.961"
       filterUnits="userSpaceOnUse"
       color-interpolation-filters="sRGB"><feFlood
         flood-opacity="0"
         result="BackgroundImageFix"
         id="feFlood12" /><feColorMatrix
         in="SourceAlpha"
         type="matrix"
         values="0 0 0 0 0 0 0 0 0 0 0 0 0 0 0 0 0 0 127 0"
         result="hardAlpha"
         id="feColorMatrix12" /><feOffset
         dy="3.4"
         id="feOffset12" /><feGaussianBlur
         stdDeviation="7.1825"
         id="feGaussianBlur12" /><feComposite
         in2="hardAlpha"
         operator="out"
         id="feComposite12" /><feColorMatrix
         type="matrix"
         values="0 0 0 0 0.913725 0 0 0 0 0.192157 0 0 0 0 0.321569 0 0 0 1 0"
         id="feColorMatrix13" /><feBlend
         mode="normal"
         in2="BackgroundImageFix"
         result="effect1_dropShadow_403_347"
         id="feBlend13" /><feBlend
         mode="normal"
         in="SourceGraphic"
         in2="effect1_dropShadow_403_347"
         result="shape"
         id="feBlend14" /></filter></defs><g
     id="layer1"
     transform="translate(-55.469753,-59.114933)"><g
       id="g1"
       transform="matrix(0.45994682,0,0,0.45994682,-46.039792,47.04197)"><rect
         width="204.03926"
         height="18.441458"
         transform="rotate(-4)"
         fill="#ffffff"
         id="rect2"
         x="268.53595"
         y="193.55569"
         style="stroke-width:0.264583" /><path
         d="m 307.62759,176.32561 1.29646,0.27728 c -0.50879,1.23693 -1.38588,2.46698 -2.24075,3.24089 -0.25347,-0.2204 -0.79904,-0.59347 -1.11416,-0.76624 0.86254,-0.66622 1.6547,-1.71714 2.05845,-2.75193 z m -0.007,1.13692 7.41944,-0.51885 0.0799,1.14141 -7.73192,0.54081 z m -1.75234,2.64371 9.73508,-0.68051 0.0804,1.15226 -9.73481,0.68051 z m 0.3601,2.51804 9.40117,-0.65749 0.0804,1.15226 -9.40091,0.65749 z m 2.86385,-4.85352 1.08744,-0.0759 0.36618,5.23346 -1.0877,0.0762 z m -1.90606,0.13335 1.14141,-0.0799 0.36671,5.24431 -1.14141,0.0799 z m 3.77957,-0.26431 1.07712,-0.0754 0.36671,5.24431 -1.07711,0.0754 z m 1.89548,-0.13256 1.18454,-0.0828 0.36671,5.2443 -1.18454,0.0828 z m -3.6457,6.672 1.1856,-0.22358 c 0.186,0.64718 0.37465,1.48882 0.42228,2.0156 l -1.25783,0.27199 c -0.037,-0.52758 -0.1741,-1.40546 -0.35005,-2.06401 z m 2.14445,-0.12833 1.20253,-0.28971 c 0.3138,0.61648 0.64241,1.44833 0.77629,1.96929 l -1.27423,0.34872 c -0.11219,-0.52229 -0.41011,-1.37795 -0.70459,-2.0283 z m 2.13942,-0.20372 1.21127,-0.47414 c 0.53048,0.62283 1.20835,1.49543 1.51976,2.07963 l -1.28296,0.5334 c -0.27834,-0.57574 -0.91546,-1.48352 -1.44807,-2.13889 z m -6.2484,0.0907 1.28085,0.21325 c -0.18971,0.84667 -0.59108,1.76213 -1.06865,2.35823 l -1.28376,-0.40825 c 0.46355,-0.48683 0.87868,-1.35996 1.07156,-2.16323 z m 10.5881,-7.0493 8.76564,-0.61304 0.0775,1.10914 -8.76565,0.61304 z m 0.67733,1.64069 7.64593,-0.53473 0.0744,1.06627 -7.64567,0.53446 z m 1.54808,5.73537 7.30118,-0.51065 0.0783,1.11998 -7.30117,0.51065 z m -2.45666,-4.02696 9.61655,-0.67257 0.0791,1.13083 -9.61655,0.67257 z m 3.31814,1.48855 5.52424,-0.3863 0.0775,1.10914 -5.52424,0.38629 z m 0.62654,-4.50215 1.33535,-0.0934 0.25082,3.5859 -1.33535,0.0934 z m 1.30333,4.86489 1.32451,-0.0926 0.1733,2.47676 -1.32451,0.0929 z m -3.68485,-6.11611 1.07897,-0.50826 c 0.33787,0.34448 0.67416,0.81862 0.82815,1.16496 l -1.12845,0.57679 c -0.13256,-0.34793 -0.4609,-0.86598 -0.77867,-1.23349 z m 4.65111,-0.80116 1.43484,0.2458 c -0.29845,0.52943 -0.59902,1.02658 -0.84561,1.36869 l -1.12184,-0.25717 c 0.19977,-0.39265 0.43128,-0.94986 0.53261,-1.35732 z m -4.08808,5.44751 1.38245,0.11986 c -0.31697,2.12142 -1.11548,3.85471 -2.34685,4.96861 -0.25427,-0.23099 -0.83503,-0.64479 -1.16179,-0.82762 1.21206,-0.92895 1.9058,-2.45983 2.12619,-4.26085 z m 14.87488,-4.86013 1.25994,-0.0881 0.42625,6.09521 -1.25995,0.0881 z m 2.46459,-1.27609 1.28138,-0.0897 0.58288,8.33517 c 0.0526,0.7538 -0.073,1.11971 -0.49954,1.36578 -0.43815,0.23627 -1.14564,0.32914 -2.13651,0.39846 -0.0902,-0.36169 -0.33708,-0.95038 -0.54557,-1.30387 0.71305,-0.0172 1.40203,-0.0653 1.62745,-0.0921 0.20479,-0.0143 0.28628,-0.0849 0.272,-0.28946 z m -6.00868,5.37634 2.47676,-0.17304 0.0791,1.13056 -2.47676,0.1733 z m 1.90605,-0.13335 1.19539,-0.0834 c 0,0 0.0119,0.32359 0.0116,0.47519 0.0743,2.61356 0.0392,3.65496 -0.2368,4.04204 -0.19579,0.29501 -0.43762,0.39873 -0.7784,0.47652 -0.28761,0.0635 -0.78291,0.0982 -1.3007,0.12356 -0.0455,-0.34317 -0.20796,-0.80804 -0.4228,-1.09591 0.45508,0.0114 0.87524,-0.018 1.06892,-0.0315 0.16166,-0.0114 0.26776,-0.0405 0.35718,-0.15478 0.16802,-0.22834 0.20082,-1.15041 0.11907,-3.55785 z m -2.43152,-3.35757 0.10319,1.47532 2.03518,-0.14235 -0.10293,-1.47531 z m -1.24195,-1.04933 4.43653,-0.31036 0.263,3.75841 -4.4368,0.31009 z m 1.32556,3.32687 1.27053,-0.0889 c 0.0413,2.29129 -0.0677,4.75535 -1.70841,6.36323 -0.21643,-0.3093 -0.61119,-0.69295 -0.93769,-0.87578 1.43087,-1.35546 1.43272,-3.49805 1.37557,-5.39855 z m 13.69431,-4.25821 3.97351,-0.27781 0.0828,1.18454 -3.97351,0.27781 z m 3.44593,-0.24103 0.13996,-0.01 0.17939,-0.0667 0.88053,0.0574 c -0.0942,1.28376 -0.2921,2.94243 -0.47095,4.25344 l -1.17211,-0.0479 c 0.19897,-1.33429 0.38762,-3.12208 0.45217,-4.05712 z m 0.37121,2.67943 1.64756,-0.11536 0.0807,1.15226 -1.99232,0.13944 z m 1.21682,-0.0852 0.23706,-0.0164 0.2122,-0.0582 0.78502,0.23734 c -0.36195,3.33666 -1.74043,5.59726 -3.64649,6.81275 -0.20267,-0.26723 -0.65669,-0.72258 -0.93848,-0.88662 1.85129,-1.07103 3.08849,-3.02974 3.36815,-5.8412 z m -2.91809,-0.87789 c 0.71411,3.25041 1.99337,5.75813 4.76409,6.53838 -0.25268,0.25559 -0.57415,0.76518 -0.72311,1.11099 -2.9173,-1.01891 -4.15687,-3.73486 -4.97893,-7.44326 z m -4.50639,-1.92511 1.14909,0.34184 c -0.38417,0.84931 -0.81254,1.8423 -1.19036,2.47465 l -0.88768,-0.31671 c 0.34317,-0.66225 0.73396,-1.72852 0.92895,-2.49978 z m 1.32715,1.18428 1.07765,0.40084 c -0.68871,1.29249 -1.63936,2.86306 -2.39236,3.85736 l -0.77232,-0.36804 c 0.7284,-1.03584 1.6084,-2.68816 2.08703,-3.89016 z m -2.80722,1.48404 0.55218,-0.92604 c 0.60537,0.45535 1.32054,1.08717 1.63513,1.5629 l -0.5977,1.04827 c -0.29448,-0.49873 -1.00409,-1.20676 -1.58961,-1.68513 z m 2.80405,1.10252 0.82603,-0.41486 c 0.48101,0.69135 0.95673,1.61025 1.11866,2.22673 l -0.88662,0.47307 c -0.16219,-0.61621 -0.60748,-1.56977 -1.05807,-2.28494 z m -2.66197,1.08426 c 0.98848,-0.1016 2.44924,-0.25796 3.87641,-0.43338 l 0.0606,1.02367 c -1.32768,0.20108 -2.70008,0.38365 -3.75021,0.53287 z m 2.98794,1.56581 0.88423,-0.35401 c 0.29845,0.55271 0.6104,1.2991 0.75274,1.78699 l -0.92445,0.40005 c -0.13229,-0.49927 -0.44477,-1.25677 -0.71252,-1.83303 z m -2.41406,-0.0154 1.07897,0.10875 c -0.0355,1.04113 -0.19712,2.13466 -0.46117,2.84559 -0.23601,-0.12409 -0.73634,-0.31644 -1.01309,-0.40508 0.26776,-0.65722 0.37306,-1.62771 0.39529,-2.54926 z m 1.13533,-1.09643 1.13056,-0.0791 0.33602,4.80272 -1.13083,0.0791 z m 2.95724,-4.13491 1.11998,-0.0783 0.14156,2.02433 c 0.13388,1.91691 0.12753,4.7633 -1.4523,6.77836 -0.21881,-0.19023 -0.69533,-0.50324 -0.99589,-0.62283 1.47346,-1.83435 1.44489,-4.40796 1.32741,-6.08779 z m 9.7999,7.83114 c -0.71278,-0.75115 -1.6928,-1.61317 -2.49184,-2.20663 l 1.06309,-1.04828 c 0.80804,0.57124 1.91585,1.55417 2.51169,2.18361 z m 9.15723,-8.32353 8.24865,-0.57679 0.0926,1.3245 -8.24865,0.5768 z m 7.72107,-0.54001 1.34594,-0.0942 c 0,0 0.0201,0.44238 0.0114,0.62706 0.086,4.3225 -0.0151,5.97429 -0.45958,6.57886 -0.28364,0.43127 -0.58764,0.5715 -1.05701,0.66913 -0.40482,0.0934 -1.07315,0.12912 -1.73223,0.14288 -0.0479,-0.37544 -0.27173,-0.94403 -0.54584,-1.30387 0.69295,0.006 1.32927,-0.0278 1.62005,-0.0482 0.21537,-0.0151 0.34157,-0.0672 0.48233,-0.21775 0.35137,-0.39238 0.44768,-2.109 0.35296,-6.09547 z m -4.57041,-1.9095 1.36763,-0.0958 0.15531,2.21853 c 0.17092,2.44449 0.0648,5.88222 -3.45175,8.20579 -0.22648,-0.29792 -0.74639,-0.7702 -1.08532,-0.97367 3.22183,-2.05422 3.3147,-5.0583 3.16944,-7.1366 z m 12.2854,7.47342 c 0.86334,-0.19024 2.11905,-0.49451 3.35227,-0.80804 l 0.16087,1.05992 c -1.09194,0.32544 -2.24843,0.65511 -3.17183,0.9144 z m -0.0693,-3.93435 2.93978,-0.20559 0.0767,1.09855 -2.93978,0.20559 z m -0.15425,-2.35903 5.91211,-0.41328 0.082,1.17369 -5.91211,0.41355 z m 4.1828,-1.77509 0.86227,-0.51461 c 0.37227,0.37438 0.81995,0.89482 1.01865,1.25968 l -0.89006,0.58182 c -0.18865,-0.37651 -0.61621,-0.92022 -0.99086,-1.32689 z m -3.09457,4.49104 1.19512,-0.0836 0.25374,3.62903 -1.18004,0.29897 z m 1.84944,-4.96649 1.2274,-0.086 c 0.27464,4.699 0.79666,8.44999 1.34884,8.45476 0.13997,-0.01 0.18151,-0.4998 0.16722,-1.32133 0.21352,0.26643 0.75592,0.59663 0.95885,0.71226 -0.14499,1.79572 -0.6686,2.20027 -1.06786,2.2172 -1.66132,0.073 -2.15556,-3.74491 -2.63445,-9.9769 z m -6.44552,3.77269 3.18744,-0.22278 0.0677,0.96917 -3.18744,0.22278 z m -0.17542,-2.97445 3.0906,-0.2159 0.0685,0.97976 -3.0906,0.21616 z m 0.27782,4.43918 3.18743,-0.22304 0.0685,0.98002 -3.18744,0.22277 z m -0.70406,-2.94825 3.93065,-0.2749 0.0717,1.02288 -3.93065,0.2749 z m 1.36869,4.40584 2.60614,-0.1823 0.22887,3.27369 -2.60615,0.1823 -0.0714,-1.02314 1.52902,-0.10689 -0.0857,-1.22767 -1.52929,0.10716 z m -0.58156,0.0408 1.05543,-0.0738 0.25902,3.70443 -1.05542,0.0738 z m 14.44334,-6.70216 c -0.0331,0.45693 -0.0479,1.02076 -0.0392,1.45282 0.0275,1.16682 0.12012,3.57347 0.21325,4.90882 0.0762,1.0877 0.74718,1.39779 1.58723,1.33906 1.77668,-0.12409 2.82523,-1.22555 3.52928,-2.45428 l 1.06336,1.12686 c -0.62759,1.08268 -2.0566,2.62176 -4.51194,2.79347 -1.76609,0.12356 -2.9509,-0.57282 -3.07975,-2.41406 -0.1008,-1.44303 -0.20135,-4.27117 -0.2659,-5.19747 -0.0362,-0.51673 -0.11536,-1.03082 -0.23098,-1.44463 z m 10.19202,4.30847 c 0.38946,-1.23931 0.69241,-2.78606 0.73686,-4.16348 l 1.58406,0.21378 c -0.0651,0.30745 -0.14684,0.84349 -0.18335,1.09485 -0.0873,0.76359 -0.38259,2.26695 -0.68871,3.30544 -0.30375,1.07103 -0.86466,2.33309 -1.36816,3.17976 l -1.55205,-0.52996 c 0.60669,-0.9189 1.16046,-2.12646 1.47135,-3.10039 z m 5.29299,-0.59743 c -0.48816,-1.10199 -1.28879,-2.64768 -1.80922,-3.43376 l 1.39991,-0.56303 c 0.51038,0.79745 1.35863,2.4048 1.8407,3.42053 0.45562,0.94218 1.14671,2.6252 1.5121,3.67109 l -1.54702,0.6276 c -0.39106,-1.26048 -0.88424,-2.58948 -1.39647,-3.72243 z m 9.35805,-3.28401 c 0.23627,0.43815 0.86254,1.81187 1.04801,2.29685 l -1.25069,0.53102 c -0.17594,-0.5072 -0.74109,-1.77694 -1.03848,-2.31881 z m 4.02801,0.49769 c -0.0937,0.36353 -0.14234,0.59425 -0.19209,0.81412 -0.20372,1.10728 -0.58869,2.25954 -1.25544,3.24749 -0.91017,1.37319 -2.18308,2.36035 -3.40916,2.93318 l -1.21126,-1.07342 c 1.1512,-0.40508 2.60165,-1.329 3.40624,-2.51063 0.66914,-0.95568 1.0967,-2.42491 1.12025,-3.78989 z m -6.48705,0.23706 c 0.30744,0.53049 0.9271,1.80737 1.17395,2.39607 l -1.28005,0.57653 c -0.2122,-0.5588 -0.86228,-1.96348 -1.15305,-2.40824 z m 14.23352,-3.81952 c -0.0143,0.26061 -0.0151,0.71517 -0.008,0.97446 0.18045,4.28334 -0.67892,6.54023 -2.94058,8.39734 l -1.33059,-0.92419 c 0.43498,-0.2794 0.94853,-0.6723 1.34832,-1.14405 1.31286,-1.4986 1.6801,-3.36392 1.49225,-6.20766 -0.0167,-0.2368 -0.0945,-0.72919 -0.15558,-0.98451 z m 3.81238,2.05978 c -0.0201,0.17462 -0.0336,0.44609 -0.0254,0.56462 0.0389,1.17687 0.10901,4.191 -0.27701,5.32183 -0.18865,0.5543 -0.58817,0.87445 -1.32054,0.92551 -0.62468,0.0437 -1.26365,0.0344 -1.7944,0.0281 l -0.27253,-1.42002 c 0.54452,0.0484 1.09829,0.0746 1.52903,0.0445 0.34449,-0.0241 0.4871,-0.15293 0.576,-0.42968 0.26485,-0.70036 0.26485,-2.86465 0.18362,-4.02776 l -5.25515,0.36751 c -0.36619,0.0257 -0.96838,0.0786 -1.41764,0.15319 l -0.0995,-1.42134 c 0.45614,0.0222 1.00674,0.005 1.41605,-0.0233 l 4.9858,-0.34872 c 0.27993,-0.0196 0.55854,-0.0606 0.81333,-0.13256 z m 5.26574,5.35649 c 1.69413,-0.84349 2.78183,-2.00184 3.47821,-3.18664 0.72708,-1.20888 0.9443,-2.43602 1.0541,-3.34196 0.063,-0.49133 0.0677,-1.04351 0.0389,-1.30122 l 1.76106,0.1151 c -0.0899,0.41725 -0.1815,0.96493 -0.22436,1.28164 -0.19183,1.27952 -0.53076,2.62334 -1.23243,3.88461 -0.74957,1.35096 -1.86214,2.61911 -3.50547,3.56711 z m -0.73475,-7.41548 c 0.58103,0.72761 1.62243,2.31061 2.07354,3.03662 l -1.35493,0.89535 c -0.61912,-1.11442 -1.51394,-2.45877 -2.05819,-3.1242 z m 11.81497,-0.95594 c 0.77841,0.45403 2.25663,1.47611 2.93794,2.08862 l -1.02024,1.19671 c -0.60192,-0.56382 -2.04099,-1.64279 -2.86464,-2.12619 z m -0.8554,7.26678 c 1.67402,-0.35507 3.02499,-1.00144 4.02643,-1.6883 1.76477,-1.22714 3.05012,-2.96201 3.63776,-4.46405 l 0.93451,1.44965 c -0.70512,1.52109 -2.03359,3.10727 -3.69411,4.27328 -1.05252,0.73369 -2.4003,1.42293 -3.88991,1.78674 z m 11.71337,-2.47464 c 0.96917,-0.068 1.7989,0.65325 1.86584,1.61157 0.0677,0.96917 -0.65325,1.7989 -1.62242,1.86664 -0.95859,0.0669 -1.7989,-0.65352 -1.86664,-1.62269 -0.0669,-0.95832 0.6649,-1.78859 1.62322,-1.85552 z m 0.18918,2.70271 c 0.53843,-0.0376 0.93901,-0.49847 0.90144,-1.0369 -0.037,-0.52758 -0.49795,-0.92816 -1.03638,-0.89059 -0.52758,0.0368 -0.939,0.49848 -0.90223,1.02606 0.0378,0.53869 0.50933,0.93848 1.03717,0.90143 z"
         fill="#e93152"
         id="path2"
         style="stroke-width:0.264583" /><g
         filter="url(#filter0_d_403_347)"
         id="g3"
         transform="matrix(0.26458333,0,0,0.26458333,220.56645,26.076675)"
         style="fill:none"><path
           d="m 449.199,662.321 4.07,1.009 c -1.469,2.142 -3.182,4.376 -4.498,5.814 l -2.999,-1.009 c 1.224,-1.622 2.662,-4.009 3.427,-5.814 z m 7.65,2.723 2.907,-1.652 c 2.54,1.805 5.814,4.559 7.405,6.517 l -3.151,1.867 c -1.439,-1.897 -4.59,-4.774 -7.161,-6.732 z m -15.636,2.203 c 5.599,-0.122 14.32,-0.336 22.276,-0.612 l -0.122,3.03 c -7.772,0.367 -16.126,0.673 -21.757,0.826 z m -1.041,4.957 h 27.877 v 3.091 h -27.877 z m 14.382,4.04 2.815,1.377 c -2.386,1.652 -5.997,2.876 -9.027,3.58 -0.459,-0.643 -1.285,-1.561 -2.019,-2.142 2.784,-0.551 6.395,-1.653 8.231,-2.815 z m 2.815,3.366 2.877,1.377 c -2.999,2.417 -7.773,4.039 -12.24,4.987 -0.429,-0.795 -1.224,-1.897 -1.959,-2.601 4.07,-0.642 8.874,-1.989 11.322,-3.763 z m 3.672,3.243 3.213,1.438 c -4.008,4.07 -10.771,5.906 -18.574,6.855 -0.336,-0.949 -1.04,-2.203 -1.683,-3.03 7.099,-0.612 13.77,-2.111 17.044,-5.263 z m -10.893,-13.831 3.611,0.857 c -2.295,6.242 -6.61,10.771 -11.996,13.464 -0.52,-0.735 -1.866,-2.173 -2.662,-2.815 5.263,-2.204 9.18,-6.151 11.047,-11.506 z m 9.425,3.917 c 1.805,2.999 5.446,5.844 9.149,7.283 -0.796,0.673 -1.867,2.019 -2.387,2.876 -3.917,-1.836 -7.589,-5.233 -9.822,-9.027 z m 31.579,11.811 h 7.864 v 3.55 h -7.864 z m -17.228,-16.952 h 11.23 v 3.611 h -11.23 z m 15.606,-1.989 h 11.138 v 24.388 h -3.702 v -20.838 h -3.917 v 21.083 h -3.519 z m -5.294,1.989 h 3.55 c 0,0 0,1.224 0,1.683 -0.276,13.097 -0.49,17.809 -1.469,19.247 -0.704,1.01 -1.346,1.377 -2.356,1.561 -0.918,0.214 -2.295,0.214 -3.703,0.153 -0.061,-1.071 -0.459,-2.662 -1.071,-3.703 1.224,0.123 2.326,0.123 2.907,0.123 0.459,0.03 0.735,-0.123 1.041,-0.551 0.642,-0.918 0.887,-5.324 1.101,-17.687 z m -6.671,-5.049 h 3.611 c -0.03,12.056 -0.153,22.216 -5.447,28.305 -0.581,-0.887 -1.805,-2.111 -2.723,-2.693 4.774,-5.385 4.529,-14.412 4.559,-25.612 z m 30.019,8.843 h 27.54 v 3.244 h -27.54 z m 2.662,-5.967 h 17.503 v 3.183 h -17.503 z m 5.386,16.647 h 13.678 v 2.754 h -13.678 z m 0,4.804 h 13.678 v 3.091 h -13.678 z m 1.836,-24.755 h 3.611 v 11.077 h -3.611 z m 13.464,0.887 3.152,1.622 c -5.998,8.354 -15.331,14.504 -25.245,18.146 -0.429,-0.796 -1.53,-2.326 -2.204,-3.06 9.945,-3.183 18.942,-9.027 24.297,-16.708 z m -17.35,14.076 h 18.054 v 13.678 h -3.825 v -10.679 h -10.557 v 10.802 h -3.672 z m 38.097,-7.772 c 1.774,0.183 3.519,0.275 5.385,0.275 3.733,0 7.558,-0.306 10.741,-0.979 v 3.794 c -3.213,0.49 -7.069,0.735 -10.741,0.765 -1.805,0 -3.549,-0.061 -5.355,-0.183 z m 11.658,-5.141 c -0.092,0.581 -0.153,1.316 -0.183,1.958 -0.062,1.01 -0.123,3.121 -0.123,5.325 0,5.63 0.49,9.608 0.49,12.515 0,3.213 -1.591,5.539 -5.998,5.539 -4.253,0 -6.885,-1.745 -6.885,-4.958 0,-3.121 2.632,-5.263 6.824,-5.263 5.753,0 9.455,2.877 11.842,5.08 l -2.081,3.213 c -3.519,-3.274 -6.609,-5.325 -10.067,-5.325 -1.744,0 -2.938,0.704 -2.938,1.867 0,1.255 1.224,1.805 2.877,1.805 1.866,0 2.509,-0.979 2.509,-2.784 0,-2.112 -0.398,-7.252 -0.398,-11.659 0,-2.325 -0.03,-4.376 -0.061,-5.294 0,-0.489 -0.092,-1.438 -0.184,-2.019 z m -14.933,0.306 c -0.244,0.612 -0.612,2.203 -0.734,2.754 -0.459,2.05 -1.469,8.782 -1.469,11.842 0,0.581 0.031,1.377 0.123,1.989 0.428,-1.071 0.948,-2.111 1.377,-3.152 l 1.897,1.5 c -0.857,2.539 -1.867,5.63 -2.203,7.313 -0.092,0.428 -0.184,1.102 -0.153,1.408 0,0.336 0,0.856 0.03,1.285 l -3.458,0.245 c -0.612,-2.112 -1.224,-5.631 -1.224,-9.762 0,-4.62 0.918,-10.404 1.286,-12.76 0.122,-0.857 0.244,-2.05 0.275,-2.999 z m 26.653,9.792 h 27.418 v 3.641 h -27.418 z m 2.295,-7.558 h 22.889 v 3.641 h -22.889 z m 9.364,-4.59 h 3.886 v 28.733 h -3.886 z m -0.643,14.259 3.182,1.316 c -2.937,4.865 -7.711,9.302 -12.546,11.812 -0.612,-0.918 -1.836,-2.387 -2.692,-3.152 4.712,-2.05 9.547,-6.028 12.056,-9.976 z m 5.202,0.031 c 2.479,3.947 7.313,7.925 11.995,9.945 -0.857,0.734 -2.081,2.234 -2.693,3.213 -4.743,-2.509 -9.424,-7.038 -12.362,-11.873 z m 17.35,-0.918 h 27.51 v 3.519 h -27.51 z m 1.438,-10.037 h 24.848 v 3.488 h -24.848 z m 10.343,-3.366 h 3.917 v 28.733 h -3.917 z m 9.119,6.763 3.856,1.132 c -1.133,2.111 -2.357,4.284 -3.336,5.661 l -3.182,-1.041 c 0.948,-1.56 2.081,-3.947 2.662,-5.752 z m -17.411,1.315 3.274,-1.224 c 1.132,1.653 2.234,3.887 2.631,5.386 l -3.519,1.377 c -0.306,-1.469 -1.346,-3.794 -2.386,-5.539 z m 7.68,6.732 2.968,1.194 c -2.876,4.835 -7.619,9.241 -12.393,11.658 -0.581,-0.887 -1.774,-2.325 -2.601,-3.06 4.713,-1.989 9.548,-5.875 12.026,-9.792 z m 5.233,0.062 c 2.448,3.886 7.221,7.803 11.903,9.792 -0.857,0.734 -2.019,2.142 -2.601,3.09 -4.773,-2.417 -9.394,-6.885 -12.27,-11.689 z m 17.411,-6.61 h 27.234 v 3.794 h -27.234 z m 15.698,1.53 c 1.836,7.007 5.722,12.821 12.209,15.392 -0.918,0.826 -2.142,2.417 -2.754,3.488 -7.007,-3.274 -10.832,-9.608 -13.158,-18.023 z m -4.223,-9.761 h 4.039 c -0.153,9.333 -0.214,22.307 -13.341,28.641 -0.582,-1.01 -1.714,-2.325 -2.785,-3.121 12.546,-5.6 11.995,-17.228 12.087,-25.52 z m 26.806,5.538 h 21.297 v 3.58 h -21.297 z m -1.255,9.027 h 21.39 v 3.519 h -21.39 z m -3.549,9.7 h 27.662 v 3.581 h -27.662 z m 11.903,-24.265 h 3.825 v 26.04 h -3.825 z m -7.069,0.367 3.795,0.857 c -1.347,4.743 -3.58,9.455 -5.967,12.393 -0.735,-0.643 -2.356,-1.714 -3.305,-2.234 2.417,-2.571 4.376,-6.793 5.477,-11.016 z m 29.805,5.569 c 1.316,0.153 2.968,0.214 4.07,0.214 3.794,0 7.925,-0.642 10.893,-1.591 l 0.092,3.55 c -2.632,0.734 -7.038,1.53 -10.955,1.499 -1.224,0 -2.509,-0.031 -3.825,-0.092 z m 11.903,-4.59 c -0.398,1.622 -1.132,4.621 -1.958,7.222 -1.408,4.406 -4.162,10.098 -6.763,13.708 l -3.702,-1.897 c 2.754,-3.366 5.508,-8.721 6.701,-12.026 0.734,-2.203 1.408,-5.049 1.499,-7.405 z m 7.191,9.547 c -0.092,1.285 -0.061,2.571 -0.03,3.917 0.061,1.805 0.336,6.365 0.336,8.078 0,2.846 -1.53,5.08 -5.906,5.08 -3.794,0 -6.793,-1.714 -6.793,-5.08 0,-2.968 2.509,-5.293 6.763,-5.293 5.355,0 9.578,2.692 12.117,4.987 l -2.019,3.305 c -2.203,-2.05 -5.692,-5.202 -10.312,-5.202 -1.775,0 -2.938,0.765 -2.938,1.836 0,1.132 0.979,1.928 2.662,1.928 2.081,0 2.754,-1.163 2.754,-2.876 0,-1.836 -0.336,-7.467 -0.489,-10.68 z m 5.263,1.622 c -1.774,-1.438 -5.263,-3.427 -7.374,-4.376 l 1.989,-2.999 c 2.203,0.949 5.967,2.999 7.558,4.131 z m 16.983,-11.169 c 2.907,0.918 9.578,2.111 12.271,2.387 l -0.918,3.764 c -3.121,-0.429 -9.914,-1.836 -12.301,-2.448 z m 0.215,6.151 c -0.429,1.713 -0.949,5.416 -1.163,7.191 2.754,-2.02 5.814,-2.938 9.027,-2.938 5.355,0 8.476,3.305 8.476,7.007 0,5.6 -4.437,9.884 -17.136,8.783 l -1.193,-4.009 c 9.21,1.285 14.045,-0.949 14.045,-4.865 0,-1.989 -1.867,-3.428 -4.559,-3.428 -3.458,0 -6.549,1.286 -8.477,3.611 -0.55,0.643 -0.887,1.132 -1.132,1.744 l -3.549,-0.856 c 0.612,-2.999 1.346,-8.997 1.53,-12.791 z m 35.037,18.91 c -6.029,0 -10.129,-4.467 -10.129,-11.842 0,-7.374 4.1,-11.628 10.129,-11.628 5.997,0 10.098,4.284 10.098,11.628 0,7.375 -4.101,11.842 -10.098,11.842 z m 0,-3.916 c 3.366,0 5.508,-3.091 5.508,-7.926 0,-4.835 -2.142,-7.742 -5.508,-7.742 -3.397,0 -5.508,2.907 -5.508,7.742 0,4.835 2.111,7.926 5.508,7.926 z m 17.611,3.488 v -22.644 h 4.529 v 9.823 h 0.061 l 7.527,-9.823 h 4.988 l -6.946,8.905 8.14,13.739 h -4.927 l -5.875,-10.159 -2.968,3.794 v 6.365 z m 25.445,-7.711 -0.673,-11.292 -0.122,-4.253 h 4.498 l -0.123,4.253 -0.642,11.292 z m 1.438,8.139 c -1.591,0 -2.784,-1.254 -2.784,-2.937 0,-1.683 1.193,-2.907 2.784,-2.907 1.622,0 2.816,1.224 2.816,2.907 0,1.683 -1.194,2.937 -2.816,2.937 z m -574.767,37.867 c 0,0.887 0.734,1.622 1.622,1.622 0.887,0 1.622,-0.735 1.622,-1.622 0,-0.888 -0.735,-1.622 -1.622,-1.622 -0.888,0 -1.622,0.734 -1.622,1.622 z m -2.173,0 c 0,-2.081 1.714,-3.795 3.795,-3.795 2.081,0 3.794,1.714 3.794,3.795 0,2.081 -1.713,3.794 -3.794,3.794 -2.081,0 -3.795,-1.713 -3.795,-3.794 z m 4.315,2.631 c -0.337,0.674 -0.612,1.775 -0.796,2.448 -0.734,2.877 -1.989,7.528 -4.62,11.078 -2.754,3.702 -7.069,6.854 -12.454,8.598 l -4.04,-4.437 c 6.151,-1.377 9.609,-4.07 12.026,-7.068 1.959,-2.418 2.968,-5.447 3.366,-7.895 -1.897,0 -10.863,0 -13.464,0 -1.499,0 -3.182,0.092 -3.978,0.153 v -5.233 c 0.949,0.123 2.968,0.276 3.978,0.276 2.601,0 11.598,0 13.495,0 0.673,0 1.866,-0.031 2.815,-0.276 z m 10.465,-2.05 c 1.255,0.031 2.632,0.061 3.519,0.061 2.54,0 14.474,0 17.075,0 0.826,0 1.989,0 3.213,-0.03 -0.061,1.01 -0.061,2.264 -0.061,3.305 0,2.111 0,12.699 0,14.932 0,1.316 0.061,4.56 0.061,4.56 h -5.141 c 0,0 0.092,-2.724 0.092,-4.621 0,-2.142 0,-13.403 0,-13.403 h -13.709 c 0,0 0,11.261 0,13.403 0,1.714 0.031,4.621 0.031,4.621 h -5.11 c 0,0 0.091,-2.938 0.091,-4.621 0,-2.172 0,-12.76 0,-14.871 0,-0.98 0,-2.387 -0.061,-3.336 z m 20.563,16.463 v 4.743 h -18.084 v -4.743 z m 32.13,-18.207 c 0.918,1.377 2.081,3.335 2.754,4.712 l -3.151,1.347 c -0.98,-2.112 -1.469,-3.121 -2.663,-4.804 z m 4.346,-1.499 c 1.009,1.315 2.111,3.213 2.845,4.528 l -3.121,1.377 c -1.071,-2.111 -1.652,-2.998 -2.846,-4.62 z m -17.748,0.826 c 2.142,1.163 5.416,3.213 7.16,4.406 l -2.754,4.101 c -1.836,-1.224 -4.957,-3.213 -7.099,-4.407 z m -6.273,21.634 c 3.457,-0.581 7.038,-1.499 10.495,-3.366 5.264,-2.907 9.67,-7.222 12.087,-11.628 l 2.846,5.08 c -2.937,4.314 -7.313,8.139 -12.393,11.046 -3.121,1.744 -7.619,3.336 -10.251,3.764 z m 1.499,-14.596 c 2.203,1.163 5.447,3.213 7.16,4.406 l -2.723,4.162 c -1.867,-1.285 -4.957,-3.305 -7.13,-4.468 z m 35.19,0.489 c 0.673,0.123 1.836,0.184 2.601,0.184 h 13.954 c 0.734,0 1.713,-0.061 2.509,-0.184 v 4.621 c -0.826,-0.061 -1.806,-0.122 -2.509,-0.122 h -13.954 c -0.765,0 -1.928,0.061 -2.601,0.122 z m 6.854,16.096 v -13.586 h 4.896 v 13.586 z m -8.445,-2.754 c 0.826,0.122 1.866,0.214 2.693,0.214 h 16.891 c 0.918,0 1.836,-0.122 2.478,-0.214 v 4.835 c -0.673,-0.123 -1.897,-0.153 -2.478,-0.153 h -16.891 c -0.796,0 -1.836,0.03 -2.693,0.153 z m 57.344,-15.3 c -0.398,0.673 -0.887,1.591 -1.193,2.509 -0.826,2.54 -2.479,6.579 -5.294,10.037 -2.968,3.641 -6.671,6.457 -12.424,8.813 l -4.406,-3.917 c 6.61,-2.02 9.792,-4.621 12.393,-7.528 1.928,-2.142 3.641,-5.661 4.039,-7.65 h -9.731 l 1.653,-4.192 c 1.438,0 7.191,0 8.17,0 1.01,0 2.234,-0.153 3.029,-0.398 z m -9.822,-4.957 c -0.857,1.224 -1.775,2.815 -2.173,3.519 -2.203,3.886 -6.12,8.17 -10.22,11.016 l -4.162,-3.091 c 5.416,-3.335 7.895,-7.007 9.517,-9.578 0.55,-0.856 1.285,-2.448 1.621,-3.641 z m 24.694,20.869 c 0,-2.693 0,-14.872 0,-17.473 0,-1.224 -0.123,-2.815 -0.367,-3.978 h 5.783 c -0.122,1.163 -0.306,2.51 -0.306,3.978 0,2.601 0,14.75 0,17.473 0,0.826 0.184,3.244 0.337,4.621 h -5.814 c 0.214,-1.316 0.367,-3.366 0.367,-4.621 z m 4.008,-13.586 c 4.101,1.101 10.925,3.549 13.74,4.926 l -2.112,5.172 c -3.457,-1.775 -8.292,-3.611 -11.628,-4.743 z m 27.663,1.009 h 13.525 v 3.825 h -13.525 z m -5.661,6.824 h 27.57 v 4.07 h -27.57 z m 11.475,-1.836 h 4.559 v 8.966 c 0,2.173 -0.489,3.305 -2.142,3.947 -1.622,0.612 -3.672,0.674 -6.181,0.674 -0.275,-1.255 -1.102,-3.152 -1.775,-4.315 1.714,0.092 4.131,0.092 4.743,0.092 0.612,0 0.796,-0.123 0.796,-0.551 z m 6.242,-4.988 h 1.102 l 0.948,-0.214 2.785,2.142 c -2.111,2.356 -5.049,4.896 -8.109,6.457 -0.52,-0.765 -1.683,-1.959 -2.326,-2.571 2.234,-1.254 4.621,-3.519 5.6,-4.987 z m -17.472,-5.783 h 27.081 v 7.864 h -4.376 v -3.978 h -18.544 v 3.978 h -4.161 z m 20.808,-4.529 4.865,1.377 c -1.469,2.112 -3.029,4.192 -4.253,5.539 l -3.672,-1.285 c 1.132,-1.561 2.386,-3.856 3.06,-5.631 z m -18.789,1.744 3.795,-1.683 c 1.04,1.163 2.233,2.754 2.723,3.917 l -4.039,1.867 c -0.398,-1.132 -1.5,-2.846 -2.479,-4.101 z m 7.62,-0.673 3.947,-1.469 c 0.949,1.286 1.958,3.06 2.356,4.284 l -4.223,1.622 c -0.306,-1.193 -1.224,-3.06 -2.08,-4.437 z m 27.172,14.78 h 21.176 v 13.066 h -4.652 v -9.761 h -12.117 v 9.761 h -4.407 z m 2.204,4.376 h 15.453 v 3.274 h -15.453 z m 0.244,4.345 h 15.453 v 3.305 h -15.453 z m 5.539,-11.475 4.804,0.612 c -0.857,1.683 -1.805,3.274 -2.509,4.315 l -3.641,-0.735 c 0.52,-1.254 1.101,-2.937 1.346,-4.192 z m -11.23,-12.056 h 9.669 v 3.396 h -9.669 z m 8.721,0 h 4.008 v 10.159 c 0,1.652 -0.336,2.448 -1.407,2.968 -1.071,0.49 -2.509,0.49 -4.315,0.49 -0.153,-0.949 -0.642,-2.234 -1.071,-3.091 0.857,0.031 1.989,0.031 2.326,0.031 0.336,0 0.459,-0.123 0.459,-0.429 z m 5.447,0 h 10.495 v 3.396 h -10.495 z m 8.415,0 h 4.131 v 10.006 c 0,1.744 -0.368,2.601 -1.53,3.152 -1.163,0.52 -2.724,0.55 -4.713,0.52 -0.183,-1.01 -0.673,-2.387 -1.132,-3.305 0.979,0.061 2.356,0.061 2.723,0.061 0.368,-0.03 0.521,-0.122 0.521,-0.459 z m -9.395,8.996 c 2.142,-0.612 5.264,-1.622 8.293,-2.662 l 0.673,3.152 c -2.54,0.979 -5.294,1.989 -7.527,2.784 z m 1.347,-3.733 2.081,-2.601 c 1.315,0.612 3.151,1.652 4.069,2.417 l -2.172,2.877 c -0.826,-0.796 -2.632,-1.959 -3.978,-2.693 z m -15.423,4.223 c 1.989,-0.551 4.958,-1.53 7.865,-2.51 l 0.642,3.152 c -2.356,1.041 -4.865,2.112 -6.977,2.968 z m 1.408,-4.162 2.05,-2.54 c 1.316,0.612 3.06,1.622 3.917,2.387 l -2.173,2.815 c -0.765,-0.795 -2.478,-1.928 -3.794,-2.662 z m 44.462,-5.263 h 12.821 v 3.794 h -12.821 z m 1.101,16.401 h 14.352 v 3.887 h -14.352 z m -1.774,6.671 h 17.38 v 3.886 h -17.38 z m 12.209,-23.072 h 0.826 l 0.796,-0.153 2.968,1.285 c -2.387,7.375 -7.772,11.475 -14.872,13.678 -0.52,-1.101 -1.591,-2.815 -2.417,-3.702 6.151,-1.5 11.047,-5.202 12.699,-10.435 z m -6.365,3.305 c 2.081,3.733 6.396,6.517 11.995,7.711 -0.918,0.857 -2.111,2.509 -2.692,3.58 -6.059,-1.652 -10.374,-5.049 -13.158,-10.037 z m 0.765,9.883 h 4.376 v 12.393 h -4.376 z m -13.709,-14.473 3.825,1.407 c -1.285,2.418 -2.692,5.141 -3.855,6.855 l -2.938,-1.255 c 1.071,-1.867 2.326,-4.804 2.968,-7.007 z m 3.55,3.702 3.58,1.622 c -2.295,3.519 -5.294,7.681 -7.65,10.282 l -2.54,-1.408 c 2.295,-2.785 5.049,-7.191 6.61,-10.496 z m -8.201,4.009 2.081,-3.06 c 1.561,1.377 3.458,3.305 4.223,4.712 l -2.265,3.458 c -0.703,-1.469 -2.509,-3.611 -4.039,-5.11 z m 7.405,3.396 2.877,-1.193 c 1.163,2.111 2.295,4.835 2.601,6.64 l -3.091,1.377 c -0.275,-1.805 -1.285,-4.651 -2.387,-6.824 z m -7.405,2.234 c 2.907,-0.092 7.222,-0.245 11.353,-0.428 l -0.031,3.488 c -3.825,0.306 -7.864,0.551 -10.955,0.765 z m 7.987,5.631 3.09,-1.01 c 0.704,1.775 1.5,4.039 1.867,5.569 l -3.244,1.163 c -0.306,-1.53 -1.071,-3.917 -1.713,-5.722 z m -6.885,-0.735 3.641,0.643 c -0.245,2.937 -0.887,6.059 -1.713,8.017 -0.765,-0.49 -2.418,-1.255 -3.336,-1.591 0.796,-1.775 1.224,-4.529 1.408,-7.069 z m 3.519,-2.846 h 3.855 v 13.648 h -3.855 z m 46.848,-0.244 v 2.142 h 6.824 v -2.142 z m -3.58,-3.152 h 14.168 v 8.445 h -14.168 z m 6.702,-8.17 c -1.347,2.356 -3.948,5.355 -6.763,7.068 -0.428,-1.071 -1.285,-2.662 -1.989,-3.58 2.785,-1.561 5.477,-4.835 6.701,-7.344 h 3.825 c 1.775,2.723 4.315,5.477 6.977,6.671 -0.765,1.04 -1.652,2.631 -2.203,3.855 -2.509,-1.499 -5.141,-4.345 -6.548,-6.67 z m -1.714,5.11 h 3.917 v 5.814 c 0,4.957 -0.949,10.802 -8.262,14.382 -0.551,-0.918 -1.836,-2.387 -2.693,-3.091 6.273,-2.907 7.038,-7.497 7.038,-11.352 z m 4.162,9.639 c 1.071,2.968 3.243,5.63 6.211,6.946 -0.918,0.796 -2.203,2.417 -2.815,3.488 -3.335,-1.866 -5.447,-5.446 -6.732,-9.608 z m -6.977,-11.108 h 9.394 V 734 h -9.394 z m -12.73,-1.775 h 8.844 v 3.305 h -8.844 z m 0,4.651 h 8.844 v 3.305 h -8.844 z m -2.081,4.652 h 10.619 v 3.396 h -10.619 z m 5.172,-11.873 h 3.488 v 13.77 h -3.488 z m 0.948,16.524 1.622,-0.52 c 0.582,1.193 1.102,2.815 1.285,3.855 l -1.713,0.612 c -0.153,-1.071 -0.673,-2.723 -1.194,-3.947 z m -1.958,0.367 1.775,-0.306 c 0.428,1.591 0.795,3.641 0.857,4.957 l -1.867,0.367 c -0.031,-1.346 -0.367,-3.427 -0.765,-5.018 z m -2.081,0.122 1.806,-0.183 c 0.275,1.805 0.336,4.161 0.244,5.661 l -1.897,0.245 c 0.123,-1.561 0.061,-3.887 -0.153,-5.723 z m -2.325,-0.734 2.356,0.459 c -0.153,2.876 -0.459,5.692 -1.744,7.436 l -2.173,-1.163 c 1.071,-1.561 1.438,-4.1 1.561,-6.732 z m 0.244,-18.36 h 11.506 v 3.55 h -7.895 v 12.79 h -3.611 z m 8.691,13.954 h 3.611 c 0,0 0,0.948 -0.031,1.407 -0.275,7.314 -0.581,10.282 -1.316,11.261 -0.551,0.765 -1.132,1.071 -1.897,1.193 -0.673,0.153 -1.622,0.184 -2.693,0.153 -0.061,-1.04 -0.398,-2.478 -0.918,-3.396 0.704,0.092 1.224,0.092 1.591,0.092 0.337,0 0.551,-0.092 0.796,-0.398 0.398,-0.582 0.643,-2.938 0.857,-9.7 z m 24.204,-6.059 h 27.693 v 3.886 h -27.693 z m 2.632,-5.967 h 17.381 v 3.825 h -17.381 z m 5.63,16.86 h 13.25 v 3.305 h -13.25 z m 0,4.682 h 13.25 v 3.703 h -13.25 z m 1.224,-24.541 h 4.407 v 11.169 h -4.407 z m 13.495,0.796 3.825,1.958 c -5.906,8.507 -15.3,14.719 -25.276,18.299 -0.52,-0.949 -1.836,-2.785 -2.631,-3.672 9.975,-3.06 18.911,-8.844 24.082,-16.585 z m -17.228,14.076 h 18.574 v 14.106 h -4.651 v -10.496 h -9.486 v 10.619 h -4.437 z m 33.568,17.564 c -2.937,-4.804 -4.62,-9.823 -4.62,-16.004 0,-6.15 1.683,-11.199 4.62,-16.004 l 3.397,1.408 c -2.54,4.529 -3.641,9.7 -3.641,14.596 0,4.927 1.101,10.068 3.641,14.596 z m 15.435,-21.91 h 13.525 v 3.825 h -13.525 z m -5.661,6.824 h 27.57 v 4.07 h -27.57 z m 11.475,-1.836 h 4.559 v 8.966 c 0,2.173 -0.489,3.305 -2.142,3.947 -1.622,0.612 -3.672,0.674 -6.181,0.674 -0.275,-1.255 -1.102,-3.152 -1.775,-4.315 1.714,0.092 4.131,0.092 4.743,0.092 0.612,0 0.796,-0.123 0.796,-0.551 z m 6.242,-4.988 h 1.102 l 0.948,-0.214 2.785,2.142 c -2.111,2.356 -5.049,4.896 -8.109,6.457 -0.52,-0.765 -1.683,-1.959 -2.326,-2.571 2.234,-1.254 4.621,-3.519 5.6,-4.987 z m -17.472,-5.783 h 27.081 v 7.864 h -4.376 v -3.978 H 623.84 v 3.978 h -4.161 z m 20.808,-4.529 4.865,1.377 c -1.469,2.112 -3.029,4.192 -4.253,5.539 l -3.672,-1.285 c 1.132,-1.561 2.386,-3.856 3.06,-5.631 z m -18.789,1.744 3.795,-1.683 c 1.04,1.163 2.233,2.754 2.723,3.917 l -4.039,1.867 c -0.398,-1.132 -1.5,-2.846 -2.479,-4.101 z m 7.62,-0.673 3.947,-1.469 c 0.949,1.286 1.958,3.06 2.356,4.284 l -4.223,1.622 c -0.306,-1.193 -1.224,-3.06 -2.08,-4.437 z m 39.718,0.429 h 8.783 v 4.161 h -4.437 v 23.195 h -4.346 z m -16.003,0.979 h 14.902 v 3.825 h -14.902 z m -0.582,8.598 h 15.851 v 4.009 h -15.851 z m 5.906,-11.016 h 4.315 v 4.835 h -4.315 z m -3.641,6.977 3.641,-0.765 c 0.581,1.285 1.01,3.06 1.163,4.223 l -3.856,0.887 c -0.061,-1.162 -0.459,-2.998 -0.948,-4.345 z m 7.894,-0.826 4.131,0.857 c -0.673,1.652 -1.224,3.213 -1.713,4.284 l -3.458,-0.826 c 0.398,-1.224 0.857,-2.999 1.04,-4.315 z m -7.068,17.473 h 9.119 v 3.825 h -9.119 z m -1.5,-6.947 h 13.067 v 12.057 h -4.315 v -8.232 h -4.651 v 8.324 h -4.101 z m 22.614,-15.238 h 0.857 l 0.673,-0.153 3.274,2.019 c -1.01,3.03 -2.234,6.549 -3.305,9.058 2.265,2.662 2.601,5.079 2.601,7.038 0,2.478 -0.551,4.008 -1.775,4.865 -0.612,0.459 -1.346,0.735 -2.172,0.857 -0.643,0.092 -1.438,0.092 -2.295,0.092 -0.031,-1.224 -0.398,-3.121 -1.071,-4.345 0.551,0.03 0.979,0.061 1.377,0.03 0.367,0 0.734,-0.061 1.01,-0.245 0.459,-0.275 0.642,-0.856 0.642,-1.866 0,-1.53 -0.52,-3.703 -2.631,-5.906 1.009,-2.846 2.295,-7.864 2.815,-9.853 z m 17.075,24.877 c -3.611,0 -6.151,-1.254 -7.803,-3.182 l 2.509,-3.427 c 1.377,1.285 2.968,2.203 4.743,2.203 2.111,0 3.488,-0.887 3.488,-2.601 0,-1.958 -1.04,-3.121 -5.814,-3.121 v -3.856 c 3.886,0 5.11,-1.163 5.11,-2.968 0,-1.561 -0.918,-2.417 -2.601,-2.417 -1.53,0 -2.692,0.673 -4.069,1.897 l -2.754,-3.336 c 2.111,-1.774 4.375,-2.815 7.068,-2.815 4.713,0 7.803,2.203 7.803,6.273 0,2.265 -1.224,4.039 -3.641,5.019 v 0.153 c 2.509,0.765 4.376,2.601 4.376,5.538 0,4.254 -3.887,6.64 -8.415,6.64 z m 28.469,-16.34 c 2.356,0 4.284,1.928 4.284,4.284 0,2.356 -1.928,4.284 -4.284,4.284 -2.356,0 -4.284,-1.928 -4.284,-4.284 0,-2.356 1.928,-4.284 4.284,-4.284 z m 28.611,15.912 v -13.158 c 0,-1.438 0.122,-3.611 0.184,-5.08 h -0.123 c -0.581,1.316 -1.193,2.632 -1.836,3.917 l -2.601,4.498 H 758.4 v 4.131 h -17.167 v -3.763 l 7.926,-13.342 h 6.732 V 749.3 Z m 18.555,-26.285 4.56,1.162 c -1.592,4.56 -4.254,9.058 -6.916,11.812 -0.857,-0.796 -2.754,-2.264 -3.825,-2.907 2.662,-2.295 4.957,-6.181 6.181,-10.067 z m 1.285,3.304 h 19.309 v 4.284 h -21.451 z m -2.539,7.406 h 21.114 v 4.131 h -16.647 v 5.967 h -4.467 z m -4.743,7.925 h 28.396 v 4.284 h -28.396 z m 13.647,-13.127 h 4.59 v 23.684 h -4.59 z m 25.245,-0.062 h 21.359 v 4.346 h -21.359 z m -1.224,9.027 h 21.359 v 4.284 h -21.359 z m -3.641,9.548 h 27.846 v 4.345 h -27.846 z m 11.567,-23.899 h 4.651 v 26.041 h -4.651 z m -7.191,0.306 4.62,1.04 c -1.346,4.743 -3.611,9.548 -5.967,12.485 -0.887,-0.765 -2.876,-2.081 -4.008,-2.693 2.356,-2.509 4.314,-6.701 5.355,-10.832 z m 32.956,32.13 -3.397,-1.408 c 2.54,-4.528 3.642,-9.669 3.642,-14.596 0,-4.896 -1.102,-10.067 -3.642,-14.596 l 3.397,-1.408 c 2.937,4.805 4.62,9.854 4.62,16.004 0,6.181 -1.683,11.2 -4.62,16.004 z m 25.042,-30.814 c -0.244,1.132 -0.642,2.937 -1.499,5.141 -0.643,1.499 -1.53,3.243 -2.387,4.467 0.826,-0.367 2.448,-0.581 3.489,-0.581 2.539,0 4.467,1.499 4.467,4.345 0,1.652 0.092,4.988 0.123,6.916 h -3.672 c 0.122,-1.439 0.183,-4.04 0.153,-5.692 0,-1.958 -1.224,-2.601 -2.51,-2.601 -1.683,0 -3.61,1.01 -4.773,2.111 -0.918,0.918 -1.775,2.02 -2.815,3.366 l -3.275,-2.448 c 3.917,-3.61 6.273,-6.915 7.559,-10.281 0.612,-1.653 1.009,-3.519 1.101,-5.08 z m -11.536,2.846 c 1.561,0.214 3.825,0.336 5.386,0.336 4.039,0 9.578,-0.214 14.015,-1.01 l -0.031,3.55 c -4.315,0.612 -10.465,0.887 -14.198,0.887 -1.255,0 -3.489,-0.061 -5.172,-0.214 z m 24.235,8.69 c -0.948,0.275 -2.601,0.887 -3.641,1.285 -1.989,0.765 -4.743,1.867 -7.619,3.336 -2.785,1.438 -4.284,2.754 -4.284,4.437 0,1.683 1.468,2.142 4.437,2.142 2.601,0 6.028,-0.337 8.721,-0.888 l -0.123,3.948 c -2.05,0.275 -5.783,0.55 -8.69,0.55 -4.774,0 -8.354,-1.193 -8.354,-5.14 0,-4.254 4.376,-6.763 8.048,-8.599 2.815,-1.469 4.743,-2.203 6.579,-3.06 1.193,-0.52 2.264,-1.01 3.427,-1.591 z m 21.053,-6.151 h 14.596 v 3.519 h -14.596 z m -13.556,-2.111 h 14.566 v 3.397 h -14.566 z m 21.237,-4.712 h 3.641 v 24.174 c 0,2.08 -0.398,3.121 -1.56,3.763 -1.163,0.643 -2.969,0.765 -5.539,0.765 -0.122,-1.071 -0.643,-2.815 -1.163,-3.947 1.714,0.092 3.366,0.092 3.917,0.092 0.52,-0.031 0.704,-0.184 0.704,-0.704 z m -8.017,14.198 2.968,-1.438 c 1.438,2.019 2.907,4.682 3.397,6.518 l -3.183,1.621 c -0.459,-1.805 -1.775,-4.62 -3.182,-6.701 z m -12.638,-1.775 2.57,-2.081 c 3.672,3.887 8.017,9.15 9.792,12.791 l -2.937,2.509 c -1.622,-3.672 -5.814,-9.18 -9.425,-13.219 z m 4.773,-12.393 h 3.519 v 6.763 h -3.519 z m 3.336,8.691 3.549,0.52 c -1.56,8.874 -4.712,15.33 -10.618,19.278 -0.459,-0.735 -1.744,-2.234 -2.478,-2.877 5.538,-3.243 8.323,-9.088 9.547,-16.921 z m 32.956,7.497 2.417,-1.775 c 7.926,4.131 8.262,11.291 4.805,13.433 -1.163,0.765 -2.051,0.979 -3.55,1.01 -0.734,0 -1.622,-0.031 -2.479,-0.061 -0.061,-0.979 -0.397,-2.326 -1.04,-3.305 1.071,0.122 2.142,0.153 2.907,0.153 0.734,0 1.377,-0.061 1.897,-0.49 1.744,-1.132 1.224,-5.599 -4.957,-8.965 z m 3.397,0.306 2.448,1.224 c -2.754,2.264 -7.528,4.314 -11.537,5.263 -0.428,-0.735 -1.315,-1.867 -1.927,-2.479 3.947,-0.704 8.629,-2.264 11.016,-4.008 z m 1.989,2.784 2.57,1.347 c -3.397,3.121 -9.18,5.844 -14.045,7.221 -0.459,-0.765 -1.408,-1.989 -2.081,-2.662 4.896,-1.071 10.618,-3.427 13.556,-5.906 z m -5.264,-17.411 h 8.997 v 2.754 h -8.997 z m 5.202,9.914 2.724,1.316 c -3.427,2.601 -9.119,4.559 -13.923,5.692 -0.398,-0.612 -1.285,-1.959 -1.836,-2.571 4.743,-0.795 10.128,-2.387 13.035,-4.437 z m 4.131,0.612 c 1.592,5.814 5.049,10.374 10.741,12.332 -0.796,0.704 -1.867,2.111 -2.356,3.091 -6.12,-2.54 -9.547,-7.681 -11.475,-14.719 z m 7.1,1.591 2.968,2.142 c -2.326,1.5 -5.141,3.06 -7.314,4.009 l -2.325,-1.897 c 2.111,-1.041 4.988,-2.846 6.671,-4.254 z m -17.779,-5.079 v 2.325 h 14.504 v -2.325 z m -3.458,-2.662 h 21.573 v 7.65 h -21.573 z m 4.835,-6.426 3.825,0.795 c -2.356,3.427 -5.416,6.579 -9.7,9.211 -0.551,-0.826 -1.683,-2.05 -2.479,-2.571 3.948,-2.111 6.793,-4.926 8.354,-7.435 z m 3.856,7.833 h 3.61 v 5.233 h -3.61 z m 3.641,-5.783 h 0.826 l 0.551,-0.153 2.509,1.652 c -1.101,1.775 -2.937,4.009 -4.406,5.386 -0.673,-0.52 -1.836,-1.285 -2.632,-1.744 1.224,-1.224 2.601,-3.244 3.152,-4.468 z m 42.106,6.242 c -0.949,0.551 -1.928,1.102 -3.06,1.653 -1.898,0.948 -5.723,2.754 -8.538,4.559 -2.54,1.652 -4.253,3.427 -4.253,5.539 0,2.203 2.142,3.396 6.395,3.396 3.121,0 7.252,-0.489 9.976,-1.132 l -0.031,4.406 c -2.631,0.429 -5.844,0.765 -9.822,0.765 -6.12,0 -10.741,-1.713 -10.741,-6.976 0,-3.887 2.846,-6.61 6.487,-8.997 2.907,-1.928 6.763,-3.825 8.629,-4.896 1.163,-0.673 2.02,-1.193 2.816,-1.836 z m -15.392,-6.548 c 1.469,4.07 3.396,7.742 4.835,10.312 l -3.489,2.02 c -1.683,-2.785 -3.519,-6.794 -5.202,-10.741 z m 34.914,0.122 c -0.183,1.285 -0.336,2.877 -0.397,4.101 -0.153,3.304 -0.368,10.128 -0.368,13.923 0,3.09 1.836,4.1 4.223,4.1 5.049,0 8.231,-2.907 10.461,-6.242 l 2.79,3.396 c -1.99,2.938 -6.34,7.008 -13.312,7.008 -5.018,0 -8.231,-2.204 -8.231,-7.436 0,-4.101 0.275,-12.118 0.275,-14.749 0,-1.469 -0.122,-2.938 -0.367,-4.131 z m 36.779,-0.153 c -0.21,0.857 -0.49,2.234 -0.64,2.907 -0.43,2.081 -1.19,5.814 -2.02,8.935 -1.1,4.284 -3.15,10.527 -4.83,14.168 l -4.26,-1.438 c 1.81,-3.091 4.13,-9.486 5.3,-13.77 0.76,-2.876 1.46,-6.242 1.68,-8.048 0.15,-1.132 0.18,-2.387 0.09,-3.121 z m -7.8,4.59 c 3.73,0 8.05,-0.581 12.03,-1.53 v 3.825 c -3.8,0.888 -8.6,1.408 -12.06,1.408 -1.5,0 -2.63,-0.061 -3.7,-0.123 l -0.13,-3.825 c 1.6,0.184 2.61,0.245 3.86,0.245 z m 9.61,4.682 c 1.71,-0.184 3.91,-0.306 5.9,-0.306 1.75,0 3.58,0.092 5.36,0.275 l -0.06,3.672 c -1.56,-0.183 -3.43,-0.397 -5.27,-0.397 -2.11,0 -4,0.091 -5.93,0.336 z m 1.65,7.681 c -0.21,0.887 -0.4,1.866 -0.4,2.539 0,1.347 0.89,2.357 4.19,2.357 2.06,0 4.17,-0.215 6.34,-0.612 l -0.15,3.886 c -1.72,0.245 -3.77,0.428 -6.22,0.428 -5.17,0 -7.92,-1.744 -7.92,-4.835 0,-1.438 0.27,-2.907 0.52,-4.1 z m -502.506,42.303 4.376,1.285 c -1.652,3.366 -4.437,6.64 -7.007,8.629 -0.826,-0.826 -2.601,-2.233 -3.642,-2.907 2.571,-1.591 4.988,-4.284 6.273,-7.007 z m 0.215,3.06 h 21.083 v 3.886 H 527.89 Z m -5.661,7.069 h 27.846 v 3.947 h -27.846 z m 0.52,7.099 h 26.867 v 3.947 h -26.867 z m 8.966,-12.76 h 3.672 v 14.871 h -3.672 z m -5.417,0 h 3.917 v 14.871 h -3.917 z m 10.619,0 h 3.672 v 14.871 h -3.672 z m 5.263,0 h 4.07 v 14.871 h -4.07 z m -11.445,18.207 4.131,-0.49 c 0.398,1.897 0.765,4.376 0.796,5.906 l -4.376,0.642 c 0,-1.53 -0.214,-4.1 -0.551,-6.058 z m 5.998,0.122 4.192,-0.704 c 0.735,1.836 1.469,4.254 1.714,5.814 l -4.468,0.857 c -0.153,-1.53 -0.795,-4.039 -1.438,-5.967 z m 5.998,-0.153 4.284,-1.316 c 1.315,1.897 2.998,4.498 3.763,6.243 l -4.59,1.499 c -0.612,-1.683 -2.172,-4.406 -3.457,-6.426 z m -17.595,-1.193 4.345,1.04 c -0.643,2.387 -1.897,4.927 -3.305,6.61 l -4.315,-1.714 c 1.286,-1.285 2.601,-3.703 3.275,-5.936 z m 32.16,-18.116 h 25.092 v 3.795 h -25.092 z m 1.653,4.805 h 21.787 v 3.61 h -21.787 z m 3.488,16.524 h 20.686 v 3.825 h -20.686 z m -6.395,-11.904 h 27.417 v 3.856 h -27.417 z m 9.333,5.11 h 15.575 v 3.795 h -15.575 z m 2.05,-12.454 h 4.59 v 10.343 h -4.59 z m 2.876,14.107 h 4.56 v 6.885 h -4.56 z m -9.18,-17.993 3.825,-1.469 c 0.826,0.949 1.591,2.295 1.897,3.244 l -4.008,1.683 c -0.245,-0.949 -0.979,-2.418 -1.714,-3.458 z m 13.005,-1.591 4.896,1.132 c -0.979,1.438 -1.897,2.662 -2.601,3.519 l -3.794,-1.102 c 0.551,-1.04 1.193,-2.478 1.499,-3.549 z m -12.485,14.657 4.713,0.765 c -1.316,5.967 -3.948,10.802 -7.681,13.678 -0.795,-0.826 -2.723,-2.417 -3.794,-3.09 3.611,-2.295 5.844,-6.426 6.762,-11.353 z m 43.667,-10.832 h 4.314 v 17.503 h -4.314 z m 7.068,-3.121 h 4.407 v 23.194 c 0,2.479 -0.459,3.672 -1.867,4.407 -1.438,0.704 -3.641,0.857 -6.457,0.857 -0.183,-1.286 -0.887,-3.366 -1.53,-4.621 1.928,0.092 3.948,0.092 4.621,0.092 0.581,0 0.826,-0.184 0.826,-0.765 z M 595.7,798.703 h 6.915 v 3.855 H 595.7 Z m 4.926,0 h 4.101 c 0,0 -0.031,1.071 -0.062,1.56 -0.275,7.252 -0.581,10.282 -1.438,11.353 -0.704,0.887 -1.469,1.193 -2.478,1.346 -0.857,0.153 -2.234,0.184 -3.672,0.153 -0.062,-1.163 -0.521,-2.784 -1.163,-3.825 1.132,0.123 2.203,0.123 2.754,0.123 0.428,0 0.734,-0.062 1.01,-0.398 0.489,-0.582 0.765,-3.121 0.948,-9.67 z m -5.141,-9.242 v 3.244 h 4.621 v -3.244 z m -4.008,-3.886 h 12.913 v 11.047 h -12.913 z m 2.968,9.945 h 4.345 c -0.336,6.487 -1.101,13.311 -6.181,17.687 -0.643,-1.102 -1.897,-2.54 -2.968,-3.274 4.314,-3.55 4.59,-9.241 4.804,-14.413 z m 40.729,-9.7 h 11.046 v 4.07 h -11.046 z m 9.21,0 h 0.459 l 0.643,-0.153 2.968,0.367 c -0.49,3.856 -1.377,8.568 -2.173,12.393 l -3.947,-0.428 c 0.826,-3.886 1.683,-8.997 2.05,-11.751 z m 0.979,7.619 h 4.437 v 3.948 h -5.63 z m 2.969,0 h 0.795 l 0.704,-0.122 2.662,0.949 c -1.591,9.424 -5.691,15.759 -11.23,18.849 -0.612,-0.948 -2.081,-2.601 -2.999,-3.243 5.325,-2.663 8.874,-7.926 10.068,-15.606 z m -7.038,-2.295 c 1.224,8.997 4.069,15.821 11.689,18.513 -0.888,0.796 -2.112,2.479 -2.693,3.611 -8.109,-3.519 -10.771,-11.077 -12.24,-21.695 z m -13.281,-6.976 3.825,1.407 c -1.285,2.418 -2.693,5.141 -3.855,6.855 l -2.938,-1.255 c 1.071,-1.867 2.326,-4.804 2.968,-7.007 z m 3.55,3.702 3.58,1.622 c -2.295,3.519 -5.294,7.681 -7.65,10.282 l -2.54,-1.408 c 2.295,-2.785 5.049,-7.191 6.61,-10.496 z m -8.201,4.009 2.081,-3.06 c 1.56,1.377 3.458,3.305 4.223,4.712 l -2.265,3.458 c -0.704,-1.469 -2.509,-3.611 -4.039,-5.11 z m 7.834,3.396 2.876,-1.193 c 1.163,2.111 2.295,4.835 2.601,6.64 l -3.091,1.377 c -0.275,-1.805 -1.285,-4.651 -2.386,-6.824 z m -7.834,2.234 c 2.907,-0.092 7.222,-0.245 11.353,-0.428 l -0.031,3.488 c -3.825,0.306 -7.864,0.551 -10.955,0.765 z m 8.14,5.569 3.09,-1.009 c 0.673,1.591 1.377,3.702 1.714,5.079 l -3.244,1.163 c -0.275,-1.408 -0.979,-3.58 -1.56,-5.233 z m -7.038,-0.673 3.641,0.643 c -0.245,2.937 -0.887,6.059 -1.714,8.017 -0.765,-0.49 -2.417,-1.255 -3.335,-1.591 0.796,-1.775 1.224,-4.529 1.408,-7.069 z m 3.519,-2.846 h 3.855 v 13.648 h -3.855 z m 9.455,-10.954 h 3.825 v 5.967 c 0,5.263 -0.612,13.402 -5.6,18.513 -0.704,-0.704 -2.234,-1.898 -3.213,-2.387 4.529,-4.498 4.988,-11.659 4.988,-16.157 z m 36.475,-2.754 h 8.782 v 4.161 h -4.437 v 23.195 h -4.345 z m -16.004,0.979 h 14.903 v 3.825 h -14.903 z m -0.581,8.598 h 15.851 v 4.009 h -15.851 z m 5.906,-11.016 h 4.314 v 4.835 h -4.314 z m -3.642,6.977 3.642,-0.765 c 0.581,1.285 1.01,3.06 1.163,4.223 l -3.856,0.887 c -0.061,-1.162 -0.459,-2.998 -0.949,-4.345 z m 7.895,-0.826 4.131,0.857 c -0.673,1.652 -1.224,3.213 -1.713,4.284 l -3.458,-0.826 c 0.398,-1.224 0.857,-2.999 1.04,-4.315 z m -7.068,17.473 h 9.118 v 3.825 h -9.118 z m -1.5,-6.947 h 13.066 v 12.057 h -4.314 v -8.232 h -4.651 v 8.324 h -4.101 z m 22.614,-15.238 h 0.856 l 0.674,-0.153 3.274,2.019 c -1.01,3.03 -2.234,6.549 -3.305,9.058 2.264,2.662 2.601,5.079 2.601,7.038 0,2.478 -0.551,4.008 -1.775,4.865 -0.612,0.459 -1.346,0.735 -2.172,0.857 -0.643,0.092 -1.439,0.092 -2.295,0.092 -0.031,-1.224 -0.398,-3.121 -1.071,-4.345 0.55,0.03 0.979,0.061 1.377,0.03 0.367,0 0.734,-0.061 1.009,-0.245 0.459,-0.275 0.643,-0.856 0.643,-1.866 0,-1.53 -0.52,-3.703 -2.632,-5.906 1.01,-2.846 2.295,-7.864 2.816,-9.853 z m 12.974,3.916 h 7.191 v 3.091 h -7.191 z m 14.168,0 h 7.191 v 3.091 h -7.191 z m 5.477,-4.528 h 4.498 v 22.766 c 0,2.448 -0.489,3.672 -1.989,4.376 -1.499,0.734 -3.641,0.826 -6.732,0.826 -0.183,-1.255 -0.918,-3.366 -1.56,-4.559 1.836,0.153 4.223,0.122 4.896,0.122 0.642,0 0.887,-0.214 0.887,-0.826 z m -19.278,0 h 9.609 v 12.24 h -9.609 v -3.519 h 5.447 v -5.172 h -5.447 z m 21.696,0 v 3.549 h -6.182 v 5.263 h 6.182 v 3.519 h -10.404 v -12.331 z m -24.266,0 h 4.406 v 27.968 h -4.406 z m 44.829,16.921 -0.918,-9.669 -0.184,-5.08 h 5.998 l -0.184,5.08 -0.918,9.669 z m 1.897,8.507 c -1.836,0 -3.121,-1.316 -3.121,-3.121 0,-1.805 1.316,-3.06 3.121,-3.06 1.805,0 3.121,1.255 3.121,3.06 0,1.805 -1.316,3.121 -3.121,3.121 z"
           fill="#ffffff"
           id="path3" /></g><g
         filter="url(#filter1_d_403_347)"
         id="g4"
         transform="matrix(0.26458333,0,0,0.26458333,220.56645,26.076675)"
         style="fill:none"><path
           d="m 95.9853,480.386 c -1.8993,0.133 -3.7189,-0.419 -5.4586,-1.655 -1.7421,-1.101 -2.5844,-3.283 -2.5269,-6.546 0.0072,-0.408 0.0156,-0.884 0.0252,-1.428 0.0072,-0.408 0.0834,-0.889 0.2287,-1.442 3.2819,-17.07 7.5575,-32.852 12.8263,-47.345 5.405,-14.502 10.918,-27.45 16.539,-38.844 5.621,-11.393 10.395,-20.895 14.323,-28.503 1.122,-2.116 2.573,-3.711 4.353,-4.786 1.919,-1.221 3.692,-1.888 5.32,-2.002 2.578,-0.18 4.053,0.667 4.427,2.543 2.596,-1.268 5.187,-2.197 7.772,-2.785 1.904,-0.405 3.807,-0.741 5.709,-1.01 2.04,-0.414 4.077,-0.693 6.112,-0.835 5.292,-0.37 10.23,0.032 14.817,1.205 4.722,1.164 8.544,3.409 11.466,6.736 2.925,3.19 4.332,7.913 4.222,14.168 -0.122,6.935 -2.398,13.07 -6.829,18.405 -4.43,5.335 -10.207,10.22 -17.331,14.657 -6.986,4.291 -14.514,8.552 -22.583,12.784 -3.83,2.033 -8.334,3.842 -13.511,5.426 -5.174,1.448 -10.14,2.611 -14.898,3.487 -4.62,0.73 -8.287,1.19 -11,1.38 -0.993,2.514 -1.916,4.887 -2.768,7.12 -0.853,2.232 -1.635,4.324 -2.347,6.275 -0.712,1.952 -1.434,4.515 -2.168,7.69 -0.731,3.039 -1.398,6.277 -2,9.714 -0.603,3.438 -1.0638,6.526 -1.3831,9.264 -0.3168,2.603 -0.4849,4.448 -0.504,5.536 -0.0144,0.816 0.5127,1.661 1.5811,2.537 1.202,1.003 1.792,2.116 1.771,3.34 -0.022,1.224 -0.789,2.432 -2.3001,3.624 -1.0974,0.756 -2.3922,1.186 -3.8846,1.29 z m 22.0827,-65.104 c 2.442,-0.171 5.841,-0.816 10.197,-1.935 4.358,-1.256 10.091,-3.626 17.198,-7.111 12.716,-6.457 22.86,-13.074 30.432,-19.851 7.71,-6.922 11.145,-13.478 10.306,-19.666 0.05,-2.856 -1.127,-5.286 -3.53,-7.291 -2.404,-2.005 -5.63,-3.477 -9.679,-4.416 -3.91,-1.085 -8.239,-1.461 -12.988,-1.129 -2.442,0.171 -5.023,0.555 -7.744,1.153 -1.492,0.104 -2.655,0.729 -3.488,1.873 -0.831,1.009 -1.868,2.168 -3.11,3.477 -1.107,1.3 -2.958,2.516 -5.552,3.648 -0.819,0.329 -1.432,0.508 -1.839,0.536 -2.238,3.959 -4.83,8.826 -7.778,14.6 -2.809,5.629 -5.692,11.603 -8.649,17.921 -2.819,6.173 -5.501,12.268 -8.046,18.286 0.407,-0.028 0.949,0.002 1.625,0.09 0.814,-0.057 1.695,-0.118 2.645,-0.185 z m 137.123,47.86 c -2.984,0.208 -5.963,0.077 -8.936,-0.394 -11.079,-1.806 -19.135,-5.996 -24.169,-12.57 -4.897,-6.584 -7.245,-15.587 -7.044,-27.009 0.07,-3.944 0.413,-8.042 1.03,-12.295 0.755,-4.399 1.651,-9.079 2.687,-14.041 1.471,-6.622 3.957,-13.111 7.457,-19.467 3.635,-6.366 7.669,-12.284 12.101,-17.755 4.433,-5.471 8.716,-10.184 12.851,-14.14 4.135,-3.956 7.507,-6.908 10.116,-8.856 0.828,-0.873 1.994,-1.701 3.499,-2.486 1.64,-0.793 3.206,-1.242 4.698,-1.347 1.493,-0.104 2.841,0.277 4.045,1.143 1.204,0.867 1.786,2.456 1.745,4.768 -0.024,1.359 -0.784,2.227 -2.281,2.604 -1.495,0.24 -3.056,0.417 -4.684,0.531 -1.628,0.114 -2.719,0.462 -3.271,1.044 -1.242,1.309 -3.591,3.85 -7.045,7.622 -3.454,3.773 -7.259,8.249 -11.415,13.429 -4.021,5.17 -7.778,10.73 -11.27,16.678 -3.357,5.939 -5.695,11.738 -7.014,17.399 -0.734,3.175 -1.331,6.34 -1.794,9.496 -0.326,3.147 -0.517,6.284 -0.572,9.411 -0.149,8.431 1.412,15.995 4.681,22.693 3.408,6.552 9.359,11.025 17.853,13.419 2.428,0.645 5.202,0.859 8.322,0.641 5.563,-0.389 11.959,-1.991 19.191,-4.805 7.231,-2.815 14.68,-6.459 22.347,-10.934 7.669,-4.611 15.143,-9.683 22.423,-15.217 7.279,-5.534 13.883,-11.225 19.813,-17.072 5.932,-5.983 10.64,-11.745 14.126,-17.285 3.487,-5.676 5.271,-10.758 5.35,-15.245 0.007,-0.408 0.014,-0.816 0.021,-1.224 0.01,-0.544 -0.05,-1.015 -0.178,-1.414 -2.579,-7.425 -7.173,-11.993 -13.783,-13.704 -6.607,-1.846 -14.32,-2.461 -23.138,-1.845 -2.306,0.162 -4.682,0.396 -7.126,0.702 -2.442,0.171 -4.953,0.415 -7.533,0.731 -5.025,0.623 -10.263,1.804 -15.713,3.543 -5.313,1.594 -10.359,3.441 -15.139,5.54 -4.641,1.955 -8.466,3.716 -11.475,5.285 -0.957,0.474 -1.842,0.74 -2.656,0.797 -1.628,0.113 -2.428,-0.646 -2.399,-2.277 0.012,-0.68 0.298,-1.515 0.857,-2.505 0.695,-0.999 1.726,-1.818 3.092,-2.457 2.873,-1.559 6.43,-3.505 10.672,-5.839 4.378,-2.343 9.226,-4.516 14.546,-6.518 5.458,-2.147 11.174,-3.565 17.148,-4.254 3.123,-0.355 6.246,-0.709 9.368,-1.063 3.261,-0.5 6.588,-0.868 9.979,-1.105 5.834,-0.408 11.521,-0.195 17.062,0.64 5.543,0.699 10.591,2.587 15.144,5.664 4.555,2.941 8.131,7.648 10.727,14.121 0.255,0.933 0.44,1.939 0.557,3.017 0.118,0.942 0.168,1.957 0.149,3.045 -0.105,5.983 -2.046,12.298 -5.822,18.946 -3.775,6.647 -8.907,13.321 -15.393,20.022 -6.349,6.555 -13.507,12.895 -21.474,19.021 -7.965,5.989 -16.258,11.39 -24.879,16.203 -8.486,4.804 -16.82,8.714 -25.004,11.731 -8.183,3.017 -15.666,4.762 -22.45,5.237 z m 156.017,-2.965 c -4.206,0.294 -8.058,-0.251 -11.557,-1.637 -3.365,-1.258 -5.422,-3.695 -6.172,-7.309 0.041,-2.312 0.479,-4.108 1.315,-5.389 0.835,-1.28 1.796,-1.959 2.881,-2.035 2.442,-0.17 4.374,1.732 5.794,5.707 0.778,1.982 3.473,2.813 8.086,2.49 2.307,-0.161 5.027,-0.759 8.162,-1.793 3.132,-0.898 6.407,-2.214 9.826,-3.947 3.694,-2.023 7.939,-4.561 12.735,-7.613 4.935,-3.197 9.674,-6.856 14.218,-10.976 4.683,-4.266 8.56,-9.019 11.634,-14.259 3.076,-5.376 4.669,-11.191 4.779,-17.446 0.093,-5.304 -1.048,-9.705 -3.426,-13.206 -2.241,-3.51 -5.166,-6.701 -8.774,-9.572 -3.47,-3.017 -7.003,-6.301 -10.599,-9.853 -3.596,-3.551 -6.564,-8.097 -8.906,-13.637 -0.518,-1.322 -0.901,-2.653 -1.149,-3.994 -0.247,-1.341 -0.36,-2.623 -0.339,-3.847 0.07,-3.943 1.152,-7.686 3.247,-11.228 2.231,-3.551 4.791,-6.582 7.681,-9.093 3.992,-3.538 8.439,-6.022 13.343,-7.452 4.903,-1.429 9.864,-2.319 14.884,-2.67 1.085,-0.076 2.171,-0.152 3.256,-0.228 1.086,-0.076 2.102,-0.079 3.049,-0.009 2.847,-0.064 4.866,0.678 6.058,2.224 1.328,1.537 2.114,3.112 2.356,4.725 0.381,1.467 0.57,2.269 0.568,2.405 0.525,0.914 0.781,1.778 0.767,2.594 -0.041,2.312 -1.486,3.567 -4.335,3.767 -1.628,0.113 -3.179,-0.321 -4.652,-1.305 l -6.625,-4.629 c -0.536,-0.37 -1.211,-0.527 -2.025,-0.47 -0.811,-0.079 -1.76,-0.081 -2.845,-0.005 -2.578,0.18 -5.571,0.865 -8.979,2.054 -3.406,1.053 -6.005,2.389 -7.795,4.008 -1.792,1.755 -3.184,3.822 -4.174,6.2 -0.852,2.233 -1.299,4.505 -1.34,6.816 -0.033,1.904 0.274,3.716 0.921,5.436 1.413,4.383 3.784,8.224 7.114,11.522 3.465,3.289 7.064,6.636 10.798,10.042 3.872,3.26 7.126,7.039 9.76,11.337 2.636,4.161 3.902,9.234 3.797,15.217 -0.106,5.983 -1.494,11.716 -4.165,17.2 -2.672,5.483 -6.15,10.615 -10.435,15.397 -4.146,4.636 -8.625,8.887 -13.436,12.755 -4.808,3.731 -9.405,6.973 -13.789,9.724 -4.385,2.751 -8.08,4.843 -11.086,6.276 -2.735,1.413 -5.941,2.656 -9.619,3.728 -3.677,1.072 -7.28,1.731 -10.807,1.978 z M 535.356,351.674 c -0.542,0.038 -1.077,-0.4 -1.603,-1.314 -0.526,-0.913 -0.779,-1.914 -0.76,-3.002 0.034,-1.904 0.803,-3.248 2.307,-4.032 6.432,-3.573 12.185,-7.099 17.26,-10.578 5.075,-3.478 11.023,-6.543 17.845,-9.193 6.274,-2.34 13.083,-4.242 20.426,-5.706 7.478,-1.474 14.134,-2.415 19.968,-2.822 l 6.919,-0.484 c 4.206,-0.294 8.137,-0.366 11.793,-0.214 3.655,0.152 6.959,1.075 9.91,2.77 0,0 0.674,0.225 2.021,0.674 1.483,0.44 2.62,1.243 3.413,2.41 0.53,0.642 0.856,1.366 0.978,2.172 0.121,0.807 0.173,1.686 0.156,2.638 -0.009,0.543 -0.019,1.087 -0.028,1.631 -0.01,0.544 -0.089,1.161 -0.236,1.85 -0.155,1.098 -0.381,2.404 -0.679,3.918 -0.16,1.37 -0.792,2.636 -1.896,3.8 -0.836,1.281 -1.868,2.168 -3.096,2.661 -1.228,0.493 -1.978,0.749 -2.249,0.768 l -0.407,0.029 c -1.221,0.085 -2.097,-0.193 -2.628,-0.835 -0.395,-0.651 -0.584,-1.453 -0.567,-2.405 0.028,-1.632 0.327,-3.214 0.896,-4.748 0.707,-1.679 1.062,-2.587 1.065,-2.723 l 0.003,-0.204 c 0.017,-0.952 -0.912,-2.041 -2.788,-3.268 -3.215,-2.084 -7.058,-3.173 -11.527,-3.268 -4.47,-0.095 -9.419,0.047 -14.845,0.427 -4.884,0.341 -10.459,1.41 -16.724,3.206 -6.126,1.651 -12.534,3.864 -19.222,6.641 -6.553,2.767 -12.907,5.792 -19.063,9.074 -6.017,3.137 -11.36,6.431 -16.028,9.881 -0.138,0.145 -0.342,0.227 -0.614,0.246 z m 30.157,87.934 c -2.17,0.152 -4.326,-0.58 -6.465,-2.196 -2.006,-1.489 -2.772,-4.152 -2.298,-7.988 0.481,-4.244 1.593,-9.686 3.336,-16.327 1.879,-6.65 4.105,-13.8 6.679,-21.45 2.712,-7.795 5.56,-15.599 8.543,-23.413 3.119,-7.824 6.093,-15.094 8.921,-21.811 2.967,-6.862 5.643,-12.617 8.028,-17.266 1.26,-2.261 2.975,-3.467 5.145,-3.619 1.221,-0.085 2.298,0.315 3.231,1.2 0.936,0.75 1.388,2.008 1.356,3.776 -0.007,0.408 -0.229,1.51 -0.668,3.306 -0.302,1.787 -0.81,3.724 -1.525,5.811 -0.576,1.941 -1.213,3.48 -1.91,4.615 -1.395,2.271 -3.064,4.696 -5.007,7.277 -1.94,2.444 -3.684,5.282 -5.231,8.514 -6.895,14.471 -12.136,27.4 -15.725,38.787 -3.45,11.242 -5.507,20.35 -6.172,27.323 -0.017,0.951 0.372,1.943 1.167,2.974 0.93,1.021 1.793,2.047 2.588,3.078 0.93,1.022 1.386,2.076 1.367,3.164 -0.019,1.088 -0.716,2.155 -2.089,3.202 -0.688,0.591 -1.778,0.939 -3.271,1.043 z m 111.401,-55.459 c -1.768,0.395 -3.187,0.155 -4.255,-0.721 -0.931,-1.022 -1.384,-2.212 -1.36,-3.572 0.019,-1.088 0.376,-2.131 1.071,-3.131 0.833,-1.144 1.999,-1.905 3.496,-2.281 1.361,-0.367 4.147,-0.834 8.358,-1.4 4.213,-0.702 8.967,-1.374 14.263,-2.016 5.432,-0.651 10.386,-1.133 14.863,-1.446 4.748,-0.332 8.34,-0.38 10.775,-0.143 2.028,0.266 3.033,0.875 3.016,1.827 -0.016,0.951 -0.848,2.028 -2.496,3.23 -1.644,1.066 -3.621,1.747 -5.93,2.044 -5.836,0.544 -11.609,1.355 -17.319,2.434 -5.575,1.069 -10.539,2.095 -14.892,3.078 -4.351,0.848 -7.548,1.547 -9.59,2.097 z m 102.317,48.46 c -1.899,0.133 -3.719,-0.419 -5.459,-1.656 -1.742,-1.1 -2.584,-3.282 -2.527,-6.546 0.008,-0.408 0.016,-0.883 0.026,-1.427 0.007,-0.408 0.083,-0.889 0.228,-1.442 3.282,-17.07 7.558,-32.852 12.827,-47.345 5.405,-14.502 10.917,-27.45 16.538,-38.844 5.621,-11.394 10.396,-20.895 14.324,-28.503 1.121,-2.116 2.572,-3.711 4.353,-4.786 1.918,-1.221 3.691,-1.888 5.319,-2.002 2.578,-0.18 4.054,0.667 4.427,2.542 2.597,-1.268 5.188,-2.196 7.773,-2.784 1.904,-0.405 3.807,-0.742 5.709,-1.01 2.04,-0.415 4.077,-0.693 6.112,-0.835 5.291,-0.37 10.23,0.031 14.816,1.205 4.722,1.163 8.544,3.409 11.467,6.735 2.925,3.191 4.332,7.914 4.222,14.169 -0.123,6.935 -2.399,13.07 -6.829,18.405 -4.43,5.334 -10.207,10.22 -17.332,14.657 -6.986,4.291 -14.513,8.552 -22.583,12.783 -3.83,2.034 -8.333,3.843 -13.51,5.427 -5.175,1.448 -10.141,2.61 -14.899,3.486 -4.62,0.731 -8.286,1.191 -11,1.381 -0.993,2.514 -1.915,4.887 -2.768,7.12 -0.852,2.232 -1.634,4.324 -2.346,6.275 -0.712,1.951 -1.435,4.514 -2.168,7.689 -0.731,3.039 -1.398,6.278 -2.001,9.715 -0.602,3.437 -1.063,6.525 -1.382,9.264 -0.317,2.602 -0.485,4.448 -0.505,5.536 -0.014,0.815 0.513,1.661 1.582,2.537 1.202,1.003 1.792,2.116 1.77,3.34 -0.021,1.223 -0.788,2.431 -2.3,3.624 -1.097,0.755 -2.392,1.186 -3.884,1.29 z m 22.083,-65.104 c 2.442,-0.171 5.841,-0.816 10.196,-1.935 4.359,-1.256 10.091,-3.626 17.199,-7.111 12.715,-6.457 22.859,-13.074 30.431,-19.851 7.71,-6.922 11.146,-13.478 10.306,-19.666 0.051,-2.856 -1.126,-5.286 -3.53,-7.291 -2.403,-2.005 -5.629,-3.477 -9.678,-4.416 -3.91,-1.085 -8.24,-1.461 -12.988,-1.129 -2.442,0.171 -5.024,0.555 -7.744,1.152 -1.492,0.105 -2.655,0.729 -3.488,1.874 -0.831,1.009 -1.868,2.168 -3.11,3.477 -1.107,1.3 -2.958,2.516 -5.553,3.648 -0.818,0.329 -1.431,0.507 -1.838,0.536 -2.238,3.959 -4.831,8.826 -7.778,14.6 -2.809,5.629 -5.692,11.603 -8.649,17.921 -2.819,6.173 -5.501,12.268 -8.046,18.286 0.407,-0.029 0.948,10e-4 1.624,0.09 0.814,-0.057 1.696,-0.119 2.646,-0.185 z m 128.322,51.327 c -2.176,0.424 -3.863,0.066 -5.063,-1.072 -1.066,-1.012 -1.587,-2.198 -1.563,-3.558 0.019,-1.087 0.377,-2.131 1.072,-3.13 0.828,-0.873 1.991,-1.498 3.488,-1.874 3.537,-0.79 7.963,-2.051 13.278,-3.78 5.451,-1.74 11.044,-3.896 16.781,-6.47 5.874,-2.72 11.216,-5.946 16.024,-9.677 6.182,-4.778 11.208,-9.34 15.079,-13.685 3.87,-4.345 7.009,-9.454 9.416,-15.326 0.71,-1.815 1.073,-3.199 1.09,-4.151 0.028,-1.631 -0.693,-3.007 -2.163,-4.126 -1.335,-1.129 -3.336,-2.959 -6.001,-5.489 -2.666,-2.529 -5.688,-4.016 -9.068,-4.458 -3.242,-0.589 -7.699,-1.363 -13.374,-2.325 -3.779,-0.822 -7.291,-1.459 -10.535,-1.911 -3.108,-0.462 -6.019,-0.598 -8.733,-0.408 -1.628,0.114 -2.907,-0.34 -3.837,-1.362 -0.931,-1.021 -1.384,-2.212 -1.36,-3.571 0.041,-2.312 1.151,-3.816 3.331,-4.511 2.319,-0.842 5.048,-1.915 8.187,-3.221 3.275,-1.316 6.554,-2.835 9.837,-4.559 3.282,-1.723 6.162,-3.69 8.64,-5.901 2.478,-2.21 4.079,-4.631 4.803,-7.262 0.293,-1.243 0.516,-2.345 0.668,-3.306 0.291,-1.107 0.444,-2.136 0.461,-3.088 0.065,-3.671 -1.175,-6.369 -3.719,-8.092 -2.409,-1.733 -5.907,-3.118 -10.496,-4.156 -1.754,-0.42 -3.581,-0.564 -5.48,-0.431 -1.357,0.095 -2.785,0.398 -4.284,0.911 -1.362,0.366 -3.202,0.97 -5.52,1.812 -1.086,0.075 -2.177,0.491 -3.274,1.247 -1.098,0.756 -2.604,1.676 -4.52,2.761 -0.41,0.164 -0.819,0.329 -1.229,0.493 -0.407,0.029 -0.814,0.057 -1.221,0.085 -1.763,0.124 -3.246,-0.316 -4.448,-1.318 -1.066,-1.012 -1.587,-2.198 -1.563,-3.558 0.033,-1.903 1.21,-3.344 3.531,-4.321 1.364,-0.503 2.664,-1.205 3.899,-2.106 1.371,-0.911 3.148,-1.782 5.331,-2.614 2.182,-0.831 4.363,-1.527 6.541,-2.087 2.178,-0.56 4.42,-0.92 6.726,-1.081 1.492,-0.105 2.914,-0.068 4.266,0.109 1.49,0.031 3.047,0.126 4.67,0.284 5.81,0.952 10.986,3.238 15.53,6.859 4.679,3.612 6.963,8.545 6.853,14.8 -0.024,1.36 -0.185,2.797 -0.483,4.312 -0.16,1.369 -0.592,2.825 -1.296,4.368 -1.846,4.747 -4.695,8.817 -8.549,12.21 -3.716,3.248 -7.695,6.038 -11.936,8.372 0.271,-0.019 0.677,0.021 1.217,0.119 0.54,0.098 1.081,0.196 1.621,0.294 4.591,0.901 9.251,1.73 13.981,2.485 4.867,0.611 9.365,2.945 13.494,7.002 1.204,1.138 2.664,2.462 4.404,3.97 1.73,1.373 3.26,3.099 4.58,5.18 1.32,2.081 1.95,4.549 1.9,7.404 -0.01,0.952 -0.17,2.05 -0.46,3.292 -0.16,1.234 -0.59,2.554 -1.29,3.961 -2.96,6.59 -6.73,12.558 -11.292,17.902 -4.43,5.335 -10.011,10.614 -16.743,15.838 -5.767,4.342 -11.929,7.965 -18.484,10.868 -6.422,3.029 -12.562,5.428 -18.42,7.195 -5.722,1.759 -10.487,3.043 -14.295,3.852 z m -24.478,4.971 c -2.442,0.171 -4.869,-0.542 -7.279,-2.139 -2.414,-1.461 -3.383,-4.11 -2.909,-7.945 0.481,-4.244 1.868,-9.909 4.161,-16.996 2.429,-7.096 5.342,-14.77 8.74,-23.02 3.399,-8.387 7.003,-16.787 10.81,-25.202 3.945,-8.56 7.742,-16.431 11.392,-23.613 3.785,-7.191 7.006,-13.12 9.663,-17.788 1.259,-2.261 3.178,-3.482 5.755,-3.662 1.493,-0.104 2.84,0.345 4.042,1.347 1.202,1.003 1.65,2.465 1.345,4.388 l 0.004,-0.204 c -0.16,1.369 -0.74,3.515 -1.74,6.437 -1,2.922 -2.057,5.237 -3.171,6.944 -1.531,2.28 -3.402,4.652 -5.613,7.115 -2.209,2.328 -4.155,5.112 -5.839,8.354 -5.185,9.733 -9.893,19.298 -14.123,28.693 -4.093,9.25 -7.426,17.699 -10,25.349 -2.572,7.513 -4.103,13.664 -4.594,18.452 -0.152,0.961 0.237,1.953 1.167,2.974 1.067,1.012 2.065,2.029 2.995,3.05 1.067,1.012 1.59,2.062 1.571,3.15 -0.017,0.951 -0.78,1.956 -2.289,3.012 -1.097,0.756 -2.46,1.19 -4.088,1.304 z m 228.092,-17.987 c -2.31,0.161 -3.44,-0.914 -3.4,-3.225 0.03,-1.496 0.46,-3.156 1.31,-4.981 0.84,-1.689 1.2,-2.528 1.06,-2.519 0,-0.136 0.01,-0.272 0.01,-0.408 0.13,-0.009 0.2,-0.082 0.2,-0.218 0.02,-0.816 -0.78,-1.847 -2.38,-3.093 -2.8,-2.384 -6.44,-3.828 -10.9,-4.33 -4.33,-0.513 -9.2,-0.851 -14.62,-1.015 -0.94,-0.07 -1.82,-0.076 -2.64,-0.019 -0.81,0.056 -1.69,0.118 -2.64,0.185 -5.84,0.407 -11.89,1.578 -18.15,3.51 -6.27,1.932 -12.55,4.272 -18.83,7.02 0.53,0.642 0.93,1.293 1.19,1.954 0.39,0.652 0.58,1.317 0.57,1.997 -0.02,1.224 -0.72,2.291 -2.09,3.202 -0.96,0.746 -2.12,1.167 -3.47,1.262 -1.22,0.085 -2.51,-0.097 -3.86,-0.546 -1.21,-0.458 -2.28,-1.266 -3.21,-2.424 -1.77,0.94 -3.55,1.879 -5.33,2.818 -1.78,1.075 -3.49,2.146 -5.14,3.211 v 0.204 c -0.14,0.146 -0.34,0.228 -0.62,0.247 -0.54,0.038 -1,-0.405 -1.39,-1.328 -0.4,-0.788 -0.59,-1.657 -0.57,-2.609 0.02,-0.952 0.24,-1.85 0.66,-2.694 0.28,-0.835 0.91,-1.49 1.86,-1.964 1.64,-0.794 3.21,-1.515 4.72,-2.163 1.5,-0.784 2.94,-1.496 4.3,-2.135 l -0.19,-0.597 c 0.34,-3.691 1.3,-8.512 2.9,-14.463 1.73,-5.961 3.88,-12.63 6.45,-20.008 2.7,-7.523 5.62,-15.196 8.74,-23.02 3.12,-7.959 6.23,-15.647 9.35,-23.063 3.25,-7.561 6.28,-14.36 9.09,-20.396 2.82,-6.173 5.22,-11.162 7.18,-14.966 1.26,-2.261 2.97,-3.467 5.14,-3.619 1.23,-0.086 2.3,0.314 3.24,1.2 0.93,0.749 1.38,1.94 1.35,3.572 0,0.544 -0.23,1.714 -0.67,3.51 -0.3,1.787 -0.81,3.655 -1.52,5.607 -0.57,1.941 -1.21,3.548 -1.91,4.819 -1.4,2.27 -3.07,4.628 -5.01,7.072 -1.94,2.445 -3.68,5.283 -5.23,8.515 -3.37,7.162 -6.76,14.665 -10.15,22.508 -3.25,7.833 -6.3,15.583 -9.15,23.252 -2.71,7.523 -4.99,14.338 -6.86,20.444 -1.74,6.097 -2.84,10.996 -3.31,14.695 2.73,-1.413 5.6,-2.768 8.61,-4.065 3,-1.296 6.21,-2.471 9.61,-3.524 4.22,-1.246 7.97,-2.119 11.23,-2.618 3.4,-0.646 6.66,-1.077 9.78,-1.295 3.79,-0.266 7.79,-0.342 11.99,-0.228 5.15,0.183 9.95,0.39 14.42,0.621 4.47,0.231 8.38,1.384 11.73,3.458 0,0 0.67,0.293 2.02,0.878 1.48,0.575 2.68,1.51 3.61,2.803 0.39,0.788 0.57,1.793 0.55,3.017 -0.01,0.952 -0.1,1.908 -0.25,2.87 -0.15,0.825 -0.37,1.655 -0.66,2.49 -0.29,1.107 -0.58,2.35 -0.87,3.728 -0.3,1.379 -1,2.65 -2.1,3.814 -0.97,1.154 -2.14,1.915 -3.5,2.282 -1.23,0.493 -1.98,0.749 -2.25,0.768 z"
           fill="#ff8383"
           style="mix-blend-mode:screen"
           shape-rendering="crispEdges"
           id="path4" /></g><g
         filter="url(#filter2_d_403_347)"
         id="g5"
         transform="matrix(0.26458333,0,0,0.26458333,220.56645,26.076675)"
         style="fill:none"><path
           d="m 321.835,414.284 24.725,-1.729 c 8.344,-0.583 14.562,1.223 18.655,5.418 4.093,4.196 6.062,10.628 5.91,19.297 l -0.186,10.555 c -0.153,8.669 -2.355,15.392 -6.606,20.171 -4.251,4.779 -10.548,7.461 -18.892,8.044 l -7.936,0.555 -0.769,43.598 -16.789,1.174 z m 23.876,46.459 c 2.747,-0.193 4.796,-1.1 6.145,-2.722 1.452,-1.629 2.21,-4.28 2.275,-7.951 l 0.224,-12.697 c 0.064,-3.672 -0.602,-6.222 -2,-7.653 -1.296,-1.437 -3.317,-2.059 -6.064,-1.867 l -7.937,0.555 -0.58,32.89 z m 80.246,54.739 c -8.242,0.577 -14.51,-1.328 -18.802,-5.713 -4.293,-4.385 -6.364,-10.861 -6.213,-19.428 l 0.993,-56.295 c 0.151,-8.567 2.455,-15.349 6.913,-20.346 4.458,-4.997 10.808,-7.784 19.05,-8.361 8.242,-0.576 14.509,1.329 18.802,5.714 4.293,4.385 6.363,10.861 6.212,19.428 l -0.992,56.295 c -0.151,8.567 -2.456,15.349 -6.914,20.346 -4.458,4.997 -10.808,7.784 -19.049,8.36 z m 0.269,-15.297 c 5.8,-0.406 8.762,-4.127 8.886,-11.164 l 1.03,-58.437 c 0.124,-7.037 -2.714,-10.353 -8.513,-9.947 -5.8,0.406 -8.762,4.127 -8.886,11.164 l -1.03,58.437 c -0.125,7.037 2.713,10.352 8.513,9.947 z m 81.293,9.594 c -8.14,0.569 -14.256,-1.295 -18.346,-5.593 -4.09,-4.399 -6.058,-10.933 -5.905,-19.602 l 0.108,-6.119 15.873,-1.11 -0.129,7.343 c -0.122,6.935 2.716,10.2 8.516,9.794 2.849,-0.199 5,-1.165 6.454,-2.896 1.557,-1.84 2.368,-4.647 2.435,-8.421 0.079,-4.487 -0.869,-8.342 -2.845,-11.565 -1.974,-3.326 -5.666,-7.193 -11.076,-11.602 -6.811,-5.635 -11.547,-10.804 -14.208,-15.507 -2.66,-4.805 -3.934,-10.318 -3.825,-16.539 0.15,-8.465 2.401,-15.142 6.756,-20.03 4.356,-4.99 10.604,-7.769 18.744,-8.339 8.039,-0.562 14.052,1.361 18.039,5.767 4.091,4.298 6.06,10.781 5.907,19.45 l -0.078,4.436 -15.873,1.11 0.097,-5.507 c 0.064,-3.672 -0.601,-6.274 -1.997,-7.806 -1.394,-1.634 -3.464,-2.355 -6.212,-2.163 -5.596,0.392 -8.454,4.004 -8.575,10.837 -0.068,3.875 0.886,7.424 2.861,10.648 2.078,3.216 5.821,7.028 11.232,11.437 6.912,5.628 11.648,10.848 14.205,15.661 2.558,4.812 3.777,10.584 3.658,17.314 -0.154,8.771 -2.461,15.655 -6.919,20.652 -4.356,4.99 -10.655,7.774 -18.897,8.35 z m 72.628,-98.279 -17.552,1.227 0.269,-15.297 51.894,-3.629 -0.27,15.297 -17.552,1.228 -1.618,91.786 -16.789,1.174 z m 51.203,26.977 33.578,-2.348 -0.269,15.297 -33.578,2.348 z m 67.283,-50.541 24.726,-1.729 c 8.344,-0.584 14.562,1.222 18.654,5.418 4.093,4.195 6.063,10.628 5.91,19.296 l -0.186,10.556 c -0.153,8.668 -2.354,15.392 -6.605,20.171 -4.251,4.779 -10.549,7.46 -18.892,8.044 l -7.937,0.555 -0.768,43.598 -16.789,1.174 z m 23.876,46.458 c 2.748,-0.192 4.796,-1.099 6.146,-2.721 1.451,-1.63 2.21,-4.28 2.274,-7.952 l 0.224,-12.697 c 0.065,-3.671 -0.602,-6.222 -1.999,-7.652 -1.296,-1.437 -3.317,-2.06 -6.065,-1.868 l -7.936,0.555 -0.58,32.89 z m 57.893,-52.176 25.336,-1.772 c 8.649,-0.605 14.922,0.994 18.818,4.796 3.898,3.7 5.774,9.731 5.626,18.094 l -0.075,4.283 c -0.097,5.507 -1.092,10.058 -2.985,13.654 -1.791,3.588 -4.531,6.276 -8.221,8.062 l -0.005,0.305 c 8.293,2.273 12.333,9.426 12.121,21.46 l -0.162,9.178 c -0.145,8.261 -2.444,14.737 -6.897,19.428 -4.349,4.583 -10.695,7.165 -19.039,7.749 l -26.405,1.846 z m 22.584,41.965 c 3.357,-0.235 5.866,-1.276 7.524,-3.123 1.761,-1.855 2.677,-4.822 2.749,-8.902 l 0.105,-5.966 c 0.068,-3.875 -0.595,-6.63 -1.989,-8.264 -1.292,-1.641 -3.413,-2.359 -6.364,-2.152 l -8.089,0.565 -0.499,28.301 z m 2.203,47.974 c 2.95,-0.206 5.152,-1.124 6.603,-2.753 1.453,-1.732 2.214,-4.535 2.282,-8.411 l 0.165,-9.331 c 0.086,-4.895 -0.719,-8.2 -2.417,-9.915 -1.594,-1.824 -4.324,-2.601 -8.19,-2.33 l -7.479,0.523 -0.58,32.89 z m 59.814,-95.855 16.789,-1.174 -1.618,91.786 27.625,-1.932 -0.269,15.298 -44.415,3.105 z"
           fill="#ffffff"
           id="path5" /></g><g
         filter="url(#filter3_d_403_347)"
         id="g6"
         transform="matrix(0.26458333,0,0,0.26458333,220.56645,26.076675)"
         style="fill:none"><path
           d="m 321.835,414.284 24.725,-1.729 c 8.344,-0.583 14.562,1.223 18.655,5.418 4.093,4.196 6.062,10.628 5.91,19.297 l -0.186,10.555 c -0.153,8.669 -2.355,15.392 -6.606,20.171 -4.251,4.779 -10.548,7.461 -18.892,8.044 l -7.936,0.555 -0.769,43.598 -16.789,1.174 z m 23.876,46.459 c 2.747,-0.193 4.796,-1.1 6.145,-2.722 1.452,-1.629 2.21,-4.28 2.275,-7.951 l 0.224,-12.697 c 0.064,-3.672 -0.602,-6.222 -2,-7.653 -1.296,-1.437 -3.317,-2.059 -6.064,-1.867 l -7.937,0.555 -0.58,32.89 z m 80.246,54.739 c -8.242,0.577 -14.51,-1.328 -18.802,-5.713 -4.293,-4.385 -6.364,-10.861 -6.213,-19.428 l 0.993,-56.295 c 0.151,-8.567 2.455,-15.349 6.913,-20.346 4.458,-4.997 10.808,-7.784 19.05,-8.361 8.242,-0.576 14.509,1.329 18.802,5.714 4.293,4.385 6.363,10.861 6.212,19.428 l -0.992,56.295 c -0.151,8.567 -2.456,15.349 -6.914,20.346 -4.458,4.997 -10.808,7.784 -19.049,8.36 z m 0.269,-15.297 c 5.8,-0.406 8.762,-4.127 8.886,-11.164 l 1.03,-58.437 c 0.124,-7.037 -2.714,-10.353 -8.513,-9.947 -5.8,0.406 -8.762,4.127 -8.886,11.164 l -1.03,58.437 c -0.125,7.037 2.713,10.352 8.513,9.947 z m 81.293,9.594 c -8.14,0.569 -14.256,-1.295 -18.346,-5.593 -4.09,-4.399 -6.058,-10.933 -5.905,-19.602 l 0.108,-6.119 15.873,-1.11 -0.129,7.343 c -0.122,6.935 2.716,10.2 8.516,9.794 2.849,-0.199 5,-1.165 6.454,-2.896 1.557,-1.84 2.368,-4.647 2.435,-8.421 0.079,-4.487 -0.869,-8.342 -2.845,-11.565 -1.974,-3.326 -5.666,-7.193 -11.076,-11.602 -6.811,-5.635 -11.547,-10.804 -14.208,-15.507 -2.66,-4.805 -3.934,-10.318 -3.825,-16.539 0.15,-8.465 2.401,-15.142 6.756,-20.03 4.356,-4.99 10.604,-7.769 18.744,-8.339 8.039,-0.562 14.052,1.361 18.039,5.767 4.091,4.298 6.06,10.781 5.907,19.45 l -0.078,4.436 -15.873,1.11 0.097,-5.507 c 0.064,-3.672 -0.601,-6.274 -1.997,-7.806 -1.394,-1.634 -3.464,-2.355 -6.212,-2.163 -5.596,0.392 -8.454,4.004 -8.575,10.837 -0.068,3.875 0.886,7.424 2.861,10.648 2.078,3.216 5.821,7.028 11.232,11.437 6.912,5.628 11.648,10.848 14.205,15.661 2.558,4.812 3.777,10.584 3.658,17.314 -0.154,8.771 -2.461,15.655 -6.919,20.652 -4.356,4.99 -10.655,7.774 -18.897,8.35 z m 72.628,-98.279 -17.552,1.227 0.269,-15.297 51.894,-3.629 -0.27,15.297 -17.552,1.228 -1.618,91.786 -16.789,1.174 z m 51.203,26.977 33.578,-2.348 -0.269,15.297 -33.578,2.348 z m 67.283,-50.541 24.726,-1.729 c 8.344,-0.584 14.562,1.222 18.654,5.418 4.093,4.195 6.063,10.628 5.91,19.296 l -0.186,10.556 c -0.153,8.668 -2.354,15.392 -6.605,20.171 -4.251,4.779 -10.549,7.46 -18.892,8.044 l -7.937,0.555 -0.768,43.598 -16.789,1.174 z m 23.876,46.458 c 2.748,-0.192 4.796,-1.099 6.146,-2.721 1.451,-1.63 2.21,-4.28 2.274,-7.952 l 0.224,-12.697 c 0.065,-3.671 -0.602,-6.222 -1.999,-7.652 -1.296,-1.437 -3.317,-2.06 -6.065,-1.868 l -7.936,0.555 -0.58,32.89 z m 57.893,-52.176 25.336,-1.772 c 8.649,-0.605 14.922,0.994 18.818,4.796 3.898,3.7 5.774,9.731 5.626,18.094 l -0.075,4.283 c -0.097,5.507 -1.092,10.058 -2.985,13.654 -1.791,3.588 -4.531,6.276 -8.221,8.062 l -0.005,0.305 c 8.293,2.273 12.333,9.426 12.121,21.46 l -0.162,9.178 c -0.145,8.261 -2.444,14.737 -6.897,19.428 -4.349,4.583 -10.695,7.165 -19.039,7.749 l -26.405,1.846 z m 22.584,41.965 c 3.357,-0.235 5.866,-1.276 7.524,-3.123 1.761,-1.855 2.677,-4.822 2.749,-8.902 l 0.105,-5.966 c 0.068,-3.875 -0.595,-6.63 -1.989,-8.264 -1.292,-1.641 -3.413,-2.359 -6.364,-2.152 l -8.089,0.565 -0.499,28.301 z m 2.203,47.974 c 2.95,-0.206 5.152,-1.124 6.603,-2.753 1.453,-1.732 2.214,-4.535 2.282,-8.411 l 0.165,-9.331 c 0.086,-4.895 -0.719,-8.2 -2.417,-9.915 -1.594,-1.824 -4.324,-2.601 -8.19,-2.33 l -7.479,0.523 -0.58,32.89 z m 59.814,-95.855 16.789,-1.174 -1.618,91.786 27.625,-1.932 -0.269,15.298 -44.415,3.105 z"
           fill="#ffffff"
           id="path6" /></g></g></g></svg>
