<?xml version="1.0" encoding="UTF-8" standalone="no"?>
<!-- Created with Inkscape (http://www.inkscape.org/) -->

<svg
   width="1440"
   height="1064"
   viewBox="0 70 2880 2128"
   version="1.1"
   id="svg1"
   xml:space="preserve"
   sodipodi:docname="pre-pbl-front.svg"
   inkscape:export-filename="pre-pbl-front.svg"
   inkscape:export-xdpi="96"
   inkscape:export-ydpi="96"
   inkscape:version="1.3.2 (091e20e, 2023-11-25, custom)"
   xmlns:inkscape="http://www.inkscape.org/namespaces/inkscape"
   xmlns:sodipodi="http://sodipodi.sourceforge.net/DTD/sodipodi-0.dtd"
   xmlns="http://www.w3.org/2000/svg"
   xmlns:svg="http://www.w3.org/2000/svg"><sodipodi:namedview
     id="namedview1"
     pagecolor="#ffffff"
     bordercolor="#000000"
     borderopacity="0.25"
     inkscape:showpageshadow="2"
     inkscape:pageopacity="0.0"
     inkscape:pagecheckerboard="0"
     inkscape:deskcolor="#d1d1d1"
     inkscape:zoom="0.46164021"
     inkscape:cx="701.84527"
     inkscape:cy="639.02579"
     inkscape:window-width="1651"
     inkscape:window-height="1250"
     inkscape:window-x="2801"
     inkscape:window-y="96"
     inkscape:window-maximized="0"
     inkscape:current-layer="svg1" /><defs
     id="defs1"><filter
       id="filter0_d_0_1"
       x="256.70001"
       y="531.02399"
       width="875.276"
       height="116.196"
       filterUnits="userSpaceOnUse"
       color-interpolation-filters="sRGB"><feFlood
         flood-opacity="0"
         result="BackgroundImageFix"
         id="feFlood5" /><feColorMatrix
         in="SourceAlpha"
         type="matrix"
         values="0 0 0 0 0 0 0 0 0 0 0 0 0 0 0 0 0 0 127 0"
         result="hardAlpha"
         id="feColorMatrix5" /><feOffset
         dy="1"
         id="feOffset5" /><feGaussianBlur
         stdDeviation="2.4"
         id="feGaussianBlur5" /><feComposite
         in2="hardAlpha"
         operator="out"
         id="feComposite5" /><feColorMatrix
         type="matrix"
         values="0 0 0 0 0.0902778 0 0 0 0 0.541667 0 0 0 0 0.434919 0 0 0 0.2 0"
         id="feColorMatrix6" /><feBlend
         mode="multiply"
         in2="BackgroundImageFix"
         result="effect1_dropShadow_0_1"
         id="feBlend6" /><feBlend
         mode="normal"
         in="SourceGraphic"
         in2="effect1_dropShadow_0_1"
         result="shape"
         id="feBlend7" /></filter><filter
       id="filter1_d_0_1"
       x="0.77129"
       y="0.37617901"
       width="1338.6899"
       height="399.45599"
       filterUnits="userSpaceOnUse"
       color-interpolation-filters="sRGB"><feFlood
         flood-opacity="0"
         result="BackgroundImageFix"
         id="feFlood7" /><feColorMatrix
         in="SourceAlpha"
         type="matrix"
         values="0 0 0 0 0 0 0 0 0 0 0 0 0 0 0 0 0 0 127 0"
         result="hardAlpha"
         id="feColorMatrix7" /><feOffset
         dy="4"
         id="feOffset7" /><feGaussianBlur
         stdDeviation="29.9"
         id="feGaussianBlur7" /><feComposite
         in2="hardAlpha"
         operator="out"
         id="feComposite7" /><feColorMatrix
         type="matrix"
         values="0 0 0 0 1 0 0 0 0 1 0 0 0 0 1 0 0 0 0.75 0"
         id="feColorMatrix8" /><feBlend
         mode="normal"
         in2="BackgroundImageFix"
         result="effect1_dropShadow_0_1"
         id="feBlend8" /><feBlend
         mode="normal"
         in="SourceGraphic"
         in2="effect1_dropShadow_0_1"
         result="shape"
         id="feBlend9" /></filter><filter
       id="filter2_d_0_1"
       x="300.578"
       y="144.748"
       width="732.85303"
       height="288.30801"
       filterUnits="userSpaceOnUse"
       color-interpolation-filters="sRGB"><feFlood
         flood-opacity="0"
         result="BackgroundImageFix"
         id="feFlood9" /><feColorMatrix
         in="SourceAlpha"
         type="matrix"
         values="0 0 0 0 0 0 0 0 0 0 0 0 0 0 0 0 0 0 127 0"
         result="hardAlpha"
         id="feColorMatrix9" /><feOffset
         dy="4"
         id="feOffset9" /><feGaussianBlur
         stdDeviation="29.9"
         id="feGaussianBlur9" /><feComposite
         in2="hardAlpha"
         operator="out"
         id="feComposite9" /><feColorMatrix
         type="matrix"
         values="0 0 0 0 1 0 0 0 0 1 0 0 0 0 1 0 0 0 0.75 0"
         id="feColorMatrix10" /><feBlend
         mode="normal"
         in2="BackgroundImageFix"
         result="effect1_dropShadow_0_1"
         id="feBlend10" /><feBlend
         mode="normal"
         in="SourceGraphic"
         in2="effect1_dropShadow_0_1"
         result="shape"
         id="feBlend11" /></filter><filter
       id="filter3_d_0_1"
       x="343.478"
       y="187.64799"
       width="647.05298"
       height="202.508"
       filterUnits="userSpaceOnUse"
       color-interpolation-filters="sRGB"><feFlood
         flood-opacity="0"
         result="BackgroundImageFix"
         id="feFlood11" /><feColorMatrix
         in="SourceAlpha"
         type="matrix"
         values="0 0 0 0 0 0 0 0 0 0 0 0 0 0 0 0 0 0 127 0"
         result="hardAlpha"
         id="feColorMatrix11" /><feOffset
         dy="4"
         id="feOffset11" /><feGaussianBlur
         stdDeviation="8.45"
         id="feGaussianBlur11" /><feComposite
         in2="hardAlpha"
         operator="out"
         id="feComposite11" /><feColorMatrix
         type="matrix"
         values="0 0 0 0 0.0902778 0 0 0 0 0.541667 0 0 0 0 0.434919 0 0 0 1 0"
         id="feColorMatrix12" /><feBlend
         mode="normal"
         in2="BackgroundImageFix"
         result="effect1_dropShadow_0_1"
         id="feBlend12" /><feBlend
         mode="normal"
         in="SourceGraphic"
         in2="effect1_dropShadow_0_1"
         result="shape"
         id="feBlend13" /></filter></defs><g
     id="layer2"
     style="display:inline"><g
       style="fill:none"
       id="g1"
       transform="matrix(2.0026989,0,0,2.0026989,109.95888,487.52993)"><rect
         width="1260.1801"
         height="82"
         transform="rotate(-4,6223.6196,-204.33767)"
         fill="#1e987c"
         id="rect1"
         x="0"
         y="0" /><path
         d="m 116.042,450.454 c 0.107,1.532 1.439,2.69 2.971,2.583 1.532,-0.107 2.69,-1.439 2.583,-2.971 -0.107,-1.533 -1.439,-2.69 -2.971,-2.583 -1.533,0.107 -2.69,1.439 -2.583,2.971 z m -2.969,0.208 c -0.221,-3.161 2.184,-5.927 5.344,-6.148 3.16,-0.221 5.927,2.184 6.148,5.344 0.221,3.16 -2.184,5.927 -5.344,6.148 -3.161,0.221 -5.927,-2.184 -6.148,-5.344 z m 6.106,3.374 c -0.415,0.943 -0.653,2.355 -0.822,3.378 -0.773,4.769 -2.358,12.386 -6.008,17.982 -3.908,6.048 -9.945,11.234 -18.3253,14.562 l -5.621,-5.381 c 9.3747,-2.869 14.4943,-7.413 17.9863,-12.517 2.931,-4.199 4.368,-9.784 4.703,-13.946 -2.921,0.204 -18.7223,1.309 -22.3136,1.56 -2.2026,0.154 -4.443,0.455 -5.6813,0.638 l -0.4755,-6.799 c 1.4499,0.091 4.1481,0.143 5.7282,0.032 3.5913,-0.251 19.4882,-1.362 22.1702,-1.55 0.957,-0.067 2.486,-0.222 3.708,-0.644 z m 16.24,-3.782 c 1.919,-0.086 3.741,-0.165 5.034,-0.256 3.496,-0.244 22.936,-1.604 26.384,-1.845 1.197,-0.083 2.969,-0.207 4.737,-0.379 0.005,1.443 0.125,3.167 0.229,4.651 0.204,2.921 1.436,20.542 1.641,23.463 0.13,1.867 0.5,6.461 0.561,6.649 l -6.656,0.465 c -0.013,-0.191 -0.131,-3.936 -0.315,-6.57 -0.194,-2.777 -1.54,-22.026 -1.54,-22.026 l -23.176,1.621 c 0,0 1.343,19.201 1.541,22.026 0.16,2.298 0.489,6.317 0.506,6.557 l -6.56,0.458 c -0.016,-0.239 -0.215,-4.46 -0.376,-6.758 -0.201,-2.873 -1.44,-20.59 -1.634,-23.367 -0.097,-1.388 -0.231,-3.304 -0.376,-4.689 z m 33.811,23.86 0.425,6.081 -28.778,2.012 -0.425,-6.081 z m 52.328,-32.674 c 1.481,1.917 3.665,4.94 4.873,7.069 l -3.991,2.108 c -1.647,-2.917 -2.845,-4.902 -4.79,-7.268 z m 6.444,-2.809 c 1.618,1.812 3.706,4.842 5.003,6.868 l -3.991,2.108 c -1.743,-2.91 -3.023,-4.697 -4.962,-6.967 z m -27.292,3.304 c 3.281,1.503 8.785,4.534 11.396,6.084 l -3.22,5.566 c -2.764,-1.683 -8.019,-4.588 -11.303,-6.138 z m -6.481,34.617 c 5.251,-1.282 10.886,-3.264 15.905,-6.502 7.822,-5.118 14.019,-12.143 17.371,-19.258 l 4.142,6.254 c -3.991,6.919 -10.317,13.472 -17.855,18.523 -4.642,3.115 -11.37,5.991 -15.53,7.052 z m -0.13,-23.184 c 3.329,1.5 8.827,4.435 11.39,5.988 l -3.121,5.608 c -2.86,-1.677 -8.019,-4.588 -11.393,-6.036 z m 60.154,-3.34 c 1.063,0.07 2.794,0.045 3.847,-0.028 l 21.883,-1.531 c 1.197,-0.083 2.579,-0.276 3.718,-0.5 l 0.418,5.985 c -1.204,-0.012 -2.643,0.041 -3.745,0.118 l -21.882,1.53 c -1.054,0.073 -2.774,0.242 -3.821,0.411 z m 12.963,23.681 -1.483,-21.212 6.273,-0.438 1.483,21.212 z m -13.894,-2.589 c 1.21,0.108 2.701,0.1 3.946,0.013 l 26.432,-1.848 c 1.34,-0.094 2.623,-0.328 3.619,-0.542 l 0.438,6.273 c -1.015,-0.074 -2.79,0.002 -3.652,0.063 l -26.432,1.848 c -1.197,0.084 -2.678,0.235 -3.913,0.466 z m 91.784,-31.295 c -0.463,0.947 -1.043,2.287 -1.342,3.511 -0.992,4.4 -3.276,10.959 -7.261,16.579 -4.161,5.872 -9.599,10.679 -18.353,14.852 l -6.002,-4.633 c 9.561,-3.651 14.584,-8.189 18.467,-13.224 2.995,-3.963 5.37,-9.903 5.888,-13.5 l -16.136,1.129 1.821,-5.613 c 2.107,-0.147 12.162,-0.85 13.646,-0.954 1.485,-0.104 3.099,-0.409 4.126,-0.866 z m -16.142,-6.521 c -1.032,1.756 -2.123,4.046 -2.579,5.088 -2.851,6.021 -8.077,13.171 -14.644,18.346 l -5.641,-3.599 c 8.021,-5.71 11.803,-12.181 13.861,-16.463 0.638,-1.2 1.49,-3.473 1.803,-5.179 z m 47.304,29.652 c -0.258,-3.687 -1.644,-23.51 -1.926,-27.533 -0.12,-1.723 -0.428,-4.06 -0.884,-5.76 l 7.47,-0.522 c -0.071,1.737 -0.166,3.813 -0.026,5.824 0.369,5.267 1.726,23.986 1.974,27.529 0.093,1.341 0.519,4.679 0.896,6.626 l -7.518,0.525 c 0.205,-1.891 0.144,-4.821 0.014,-6.689 z m 3.708,-21.286 c 6.492,1.326 17.099,4.385 21.953,6.356 l -2.216,6.843 c -5.657,-2.443 -13.915,-4.945 -19.255,-6.304 z m 48.541,-2.192 22.074,-1.543 0.345,4.932 -22.074,1.543 z m -7.821,11.325 42.856,-2.996 0.371,5.315 -42.855,2.996 z m 18.221,-4.353 5.889,-0.412 1.035,14.796 c 0.208,2.969 -0.407,4.503 -2.645,5.526 -2.197,0.923 -5.255,1.233 -9.325,1.518 -0.497,-1.601 -1.721,-3.97 -2.734,-5.39 3.071,-0.119 6.662,-0.37 7.62,-0.437 0.957,-0.067 1.228,-0.327 1.181,-0.997 z m 9.807,-8.385 1.436,-0.1 1.177,-0.371 3.834,2.522 c -3.056,3.775 -7.536,7.841 -12.071,10.42 -0.737,-0.911 -2.38,-2.384 -3.295,-3.09 3.553,-2.173 7.385,-5.857 8.993,-8.327 z m -28.816,-6.79 41.754,-2.92 0.82,11.731 -5.698,0.399 -0.465,-6.656 -30.645,2.143 0.465,6.656 -5.411,0.378 z m 32.674,-9.599 6.352,1.384 c -1.982,3.315 -4.244,6.745 -6.06,8.989 l -4.813,-1.396 c 1.656,-2.473 3.559,-6.215 4.521,-8.977 z m -29.811,4.442 4.73,-2.544 c 1.855,1.747 3.951,4.199 4.848,6.013 l -5.052,2.759 c -0.795,-1.725 -2.757,-4.33 -4.526,-6.228 z m 11.993,-1.897 4.942,-2.27 c 1.679,2 3.512,4.807 4.268,6.679 l -5.311,2.488 c -0.613,-1.882 -2.308,-4.795 -3.899,-6.897 z m 48.786,19.878 32.225,-2.254 1.416,20.255 -5.985,0.418 -1.112,-15.897 -20.542,1.436 1.112,15.898 -5.698,0.398 z m 3.368,6.885 24.899,-1.741 0.302,4.31 -24.9,1.741 z m 0.786,7.115 24.852,-1.738 0.301,4.31 -24.851,1.737 z m 8.278,-19.248 6.237,0.43 c -1.074,2.529 -2.295,5.02 -3.29,6.629 l -4.762,-0.677 c 0.731,-1.928 1.511,-4.533 1.815,-6.382 z m -19.235,-17.036 15.466,-1.082 0.308,4.406 -15.466,1.081 z m 14.173,-0.991 5.171,-0.362 1.109,15.849 c 0.157,2.251 -0.245,3.386 -1.682,4.16 -1.486,0.777 -3.593,0.925 -6.513,1.129 -0.279,-1.232 -1.067,-2.861 -1.722,-3.97 1.68,-0.069 3.499,-0.196 4.026,-0.233 0.575,-0.04 0.753,-0.245 0.719,-0.724 z m 7.709,-0.539 16.52,-1.155 0.308,4.405 -16.52,1.155 z m 13.838,-0.968 5.363,-0.375 1.098,15.706 c 0.165,2.346 -0.234,3.529 -1.808,4.409 -1.582,0.784 -3.877,0.992 -7.04,1.165 -0.33,-1.276 -1.08,-3.052 -1.786,-4.205 1.778,-0.028 3.933,-0.179 4.504,-0.267 0.62,-0.091 0.804,-0.201 0.764,-0.775 z m -14.242,15.142 c 3.329,-1.243 8.195,-3.219 12.911,-5.281 l 1.15,4.058 c -4.008,1.868 -8.344,3.855 -11.848,5.351 z m 1.772,-7.004 2.495,-3.543 c 2.225,0.855 5.215,2.33 6.694,3.526 l -2.612,3.935 c -1.387,-1.25 -4.339,-2.872 -6.577,-3.918 z m -23.502,9.342 c 3.145,-1.134 7.723,-3.09 12.254,-5.043 l 1.102,4.061 c -3.761,1.947 -7.711,3.955 -10.969,5.53 z m 2.005,-7.791 2.547,-3.498 c 2.18,0.906 5.075,2.388 6.458,3.59 l -2.619,3.84 c -1.335,-1.206 -4.147,-2.886 -6.386,-3.932 z m 56.55,5.669 42.903,-3 0.398,5.698 -42.903,3 z m 2.764,-12.078 35.816,-2.505 0.399,5.698 -35.817,2.505 z m 14.15,-8.207 6.081,-0.425 3.144,44.962 -6.081,0.425 z m 0.555,22.384 5.123,1.71 c -4.064,7.935 -11.048,15.401 -18.339,19.856 -1.058,-1.369 -3.134,-3.534 -4.559,-4.637 7.15,-3.724 14.28,-10.478 17.775,-16.929 z m 8.143,-0.522 c 4.311,5.906 12.311,11.602 19.858,14.25 -1.26,1.243 -3.011,3.723 -3.862,5.322 -7.696,-3.407 -15.518,-9.982 -20.644,-17.226 z m 43.505,-23.299 20.494,-1.433 0.345,4.932 -20.494,1.433 z m 3.569,25.589 22.362,-1.563 0.355,5.075 -22.362,1.564 z m -2.174,10.882 27.294,-1.908 0.355,5.075 -27.294,1.909 z m 17.423,-37.787 1.101,-0.077 1.04,-0.265 3.948,1.408 c -2.989,11.613 -11.166,18.536 -21.702,22.689 -0.771,-1.39 -2.314,-3.495 -3.495,-4.567 9.358,-3.109 16.942,-9.557 19.171,-18.278 z m -11.095,5.106 c 3.763,6.329 11.088,10.629 20.323,11.956 -1.12,1.185 -2.501,3.447 -3.17,4.889 -9.853,-1.909 -17.281,-6.972 -22.067,-14.865 z m 3.588,15.532 5.65,-0.395 1.373,19.632 -5.65,0.395 z m -23.05,-20.667 5.111,1.52 c -1.709,3.776 -3.614,8.192 -5.293,11.004 l -3.948,-1.408 c 1.526,-2.946 3.263,-7.687 4.13,-11.116 z m 5.902,5.266 4.792,1.782 c -3.062,5.747 -7.29,12.731 -10.637,17.151 l -3.435,-1.636 c 3.239,-4.605 7.152,-11.952 9.28,-17.297 z m -12.482,6.598 2.455,-4.117 c 2.692,2.025 5.871,4.834 7.27,6.95 l -2.657,4.661 c -1.31,-2.218 -4.465,-5.366 -7.068,-7.494 z m 11.846,4.946 3.672,-1.845 c 2.092,3.078 4.206,7.164 4.975,9.902 l -3.943,2.104 c -0.721,-2.741 -2.654,-6.984 -4.704,-10.161 z m -11.214,4.778 c 4.395,-0.452 10.842,-1.143 17.143,-1.872 l 0.27,4.552 c -5.859,0.843 -11.962,1.654 -16.583,2.314 z m 13.101,7.071 3.932,-1.574 c 1.388,2.646 2.884,6.15 3.578,8.507 l -4.11,1.779 c -0.646,-2.36 -2.149,-5.96 -3.4,-8.712 z m -10.55,-0.176 4.797,0.482 c -0.157,4.631 -0.876,9.493 -2.05,12.654 -1.049,-0.552 -3.274,-1.407 -4.505,-1.802 1.191,-2.922 1.659,-7.237 1.758,-11.334 z m 5.048,-4.876 5.028,-0.352 1.493,21.356 -5.028,0.352 z m 76.659,-6.082 0.311,4.453 12.21,-0.854 -0.311,-4.453 z m -4.981,-3.79 21.835,-1.527 0.887,12.689 -21.835,1.527 z m 9.474,-14.521 c -1.934,3.985 -5.769,9.017 -10.076,12.109 -0.671,-1.349 -1.961,-3.279 -2.955,-4.413 4.276,-2.849 8.275,-8.277 9.998,-12.536 l 4.98,-0.348 c 3.137,4.256 7.658,8.366 12.061,10.079 -0.912,1.411 -1.965,3.554 -2.573,5.184 -4.244,-2.205 -8.821,-6.408 -11.435,-10.075 z m -1.637,8.92 5.075,-0.354 0.653,9.337 c 0.539,7.709 -0.288,16.524 -11.299,22.828 -0.802,-1.147 -2.561,-2.901 -3.777,-3.778 9.734,-5.3 10.432,-12.518 9.997,-18.743 z m 6.619,14.839 c 2.027,4.91 5.824,8.975 10.852,10.693 -1.127,1.089 -2.655,3.313 -3.324,4.755 -5.561,-2.45 -9.39,-7.667 -11.809,-14.042 z m -11.641,-16.46 14.748,-1.032 0.308,4.406 -14.748,1.031 z m -20.257,-1.375 14.03,-0.981 0.301,4.31 -14.03,0.981 z m 0.506,7.231 14.029,-0.981 0.305,4.357 -14.03,0.981 z m -2.173,7.466 16.376,-1.146 0.311,4.454 -16.376,1.145 z m 6.613,-19.662 4.549,-0.318 1.51,21.596 -4.549,0.318 z m 3.429,25.648 2.149,-0.92 c 1.14,1.845 2.227,4.319 2.724,5.92 l -2.331,1.077 c -0.408,-1.704 -1.498,-4.226 -2.542,-6.077 z m -3.069,0.84 2.412,-0.602 c 0.94,2.436 1.832,5.55 2.119,7.599 l -2.545,0.755 c -0.243,-2.1 -1.093,-5.313 -1.986,-7.752 z m -3.284,0.518 2.422,-0.458 c 0.677,2.792 1.126,6.465 1.146,8.822 l -2.562,0.516 c -0.027,-2.453 -0.422,-6.034 -1.006,-8.88 z m -3.613,-0.758 3.2,0.354 c 0.072,4.47 -0.143,8.96 -1.919,11.779 l -2.983,-1.38 c 1.505,-2.559 1.795,-6.669 1.702,-10.753 z m -1.599,-28.373 17.668,-1.236 0.325,4.645 -12.976,0.907 1.413,20.207 -4.693,0.328 z m 15.409,20.816 4.741,-0.332 c 0,0 0.09,1.293 0.086,1.919 0.334,11.669 0.17,16.203 -0.875,17.768 -0.74,1.11 -1.572,1.602 -2.711,1.826 -0.992,0.261 -2.569,0.42 -4.249,0.489 -0.192,-1.382 -0.754,-3.219 -1.508,-4.369 1.303,0.053 2.356,-0.021 2.931,-0.061 0.575,-0.04 0.9,-0.207 1.253,-0.665 0.603,-1.004 0.766,-4.865 0.389,-15.761 z m 67.039,-20.471 c -0.328,4.931 -0.894,10.601 -2.175,16.368 -2.197,9.873 -5.899,16.099 -11.119,16.464 -5.363,0.375 -10.18,-5.207 -10.746,-13.299 -0.77,-11.013 8.192,-21.167 20.594,-22.034 11.827,-0.827 19.92,6.883 20.654,17.369 0.703,10.056 -4.975,17.622 -16.911,20.333 l -4.035,-5.395 c 1.851,-0.37 3.175,-0.704 4.448,-1.081 5.977,-1.91 10.461,-6.602 9.969,-13.641 -0.526,-7.518 -5.594,-12.552 -13.877,-11.973 -10.152,0.71 -15.127,9.382 -14.705,15.415 0.338,4.836 2.418,7.049 4.237,6.922 2.059,-0.144 3.665,-3.336 5.224,-9.941 1.073,-4.598 1.742,-10.178 1.869,-15.24 z m 39.123,-6.152 c 1.299,0.006 2.982,-0.016 3.987,-0.086 2.778,-0.194 7.84,-0.741 10.029,-1.086 1.19,-0.18 2.415,-0.554 3.254,-0.95 l 3.993,2.753 c -0.572,0.761 -1.103,1.424 -1.442,2.073 -1.438,2.843 -3.591,9.201 -5.398,14.332 -1.607,4.539 -3.507,10.398 -5.259,13.552 -1.711,3.054 -3.872,4.505 -7.175,4.736 -4.166,0.291 -7.527,-2.361 -7.869,-7.245 -0.536,-7.661 6.379,-14.063 16.626,-14.78 11.156,-0.78 21.34,4.474 26.608,7.57 l -2.311,6.85 c -6.255,-4.807 -15.064,-9.676 -24.928,-8.987 -6.991,0.489 -10.749,4.553 -10.504,8.049 0.11,1.58 1.077,2.33 2.226,2.25 0.958,-0.067 1.55,-0.542 2.376,-1.802 1.416,-2.457 2.832,-6.983 4.291,-10.886 1.412,-3.9 3.047,-8.73 4.276,-11.799 -1.912,0.182 -6.068,0.617 -8.213,0.911 -1.002,0.118 -2.664,0.427 -3.899,0.658 z m 32.297,9.097 c 0.281,13.646 -1.785,22.644 -12.814,29.382 l -5.415,-3.808 c 11.473,-5.902 12.283,-14.957 12.322,-20.589 -0.035,-1.874 -0.121,-3.793 -0.416,-5.264 z m 18.505,-9.233 c 1.864,-0.178 3.773,-0.408 4.676,-0.567 3.947,-0.661 11.801,-1.884 20.51,-3.263 4.953,-0.731 10.149,-1.432 13.539,-1.813 l 0.479,6.174 c -2.585,0.18 -6.7,0.516 -9.245,1.272 -5.639,1.934 -9.561,8.463 -9.163,14.161 0.549,7.853 8.124,10.211 16.243,10.028 l -1.792,6.717 c -10.051,0.077 -19.91,-4.67 -20.636,-15.061 -0.479,-6.847 3.018,-12.577 6.055,-15.244 -4.42,0.791 -14.162,2.53 -19.585,4.113 z m 32.685,5.702 c 1.267,1.596 3.195,4.396 4.238,6.248 l -3.48,1.831 c -1.426,-2.499 -2.566,-4.344 -4.197,-6.347 z m 5.161,-2.574 c 1.362,1.589 3.38,4.286 4.516,6.084 l -3.471,1.974 c -1.474,-2.495 -2.702,-4.237 -4.382,-6.237 z m 44.609,-8.894 c -0.329,4.931 -0.895,10.601 -2.176,16.368 -2.197,9.873 -5.899,16.099 -11.119,16.464 -5.362,0.375 -10.18,-5.207 -10.745,-13.299 -0.771,-11.013 8.191,-21.167 20.593,-22.034 11.827,-0.827 19.92,6.883 20.654,17.369 0.703,10.056 -4.975,17.622 -16.911,20.333 l -4.034,-5.395 c 1.85,-0.37 3.174,-0.703 4.447,-1.081 5.977,-1.91 10.461,-6.602 9.969,-13.641 -0.526,-7.517 -5.593,-12.552 -13.877,-11.973 -10.151,0.71 -15.127,9.382 -14.705,15.415 0.338,4.837 2.418,7.049 4.237,6.922 2.059,-0.144 3.665,-3.336 5.224,-9.941 1.074,-4.598 1.742,-10.178 1.869,-15.239 z m 40.168,14.321 c 1.732,-5.51 3.08,-12.389 3.277,-18.513 l 7.043,0.951 c -0.289,1.367 -0.652,3.75 -0.814,4.868 -0.388,3.396 -1.701,10.079 -3.062,14.698 -1.351,4.761 -3.846,10.373 -6.085,14.138 l -6.901,-2.356 c 2.698,-4.086 5.161,-9.455 6.542,-13.786 z m 23.536,-2.656 c -2.171,-4.901 -5.731,-11.773 -8.044,-15.268 l 6.224,-2.504 c 2.269,3.546 6.041,10.692 8.185,15.21 2.025,4.189 5.099,11.672 6.723,16.322 l -6.878,2.791 c -1.739,-5.604 -3.933,-11.514 -6.21,-16.551 z m 41.613,-14.602 c 1.05,1.947 3.83,8.056 4.66,10.212 l -5.56,2.361 c -0.79,-2.255 -3.3,-7.901 -4.621,-10.311 z m 17.91,2.212 c -0.42,1.617 -0.64,2.642 -0.86,3.62 -0.9,4.923 -2.61,10.047 -5.58,14.441 -4.05,6.105 -9.71,10.494 -15.16,13.041 l -5.383,-4.772 c 5.123,-1.801 11.573,-5.909 15.143,-11.164 2.98,-4.25 4.88,-10.782 4.98,-16.852 z m -28.847,1.054 c 1.368,2.359 4.123,8.036 5.22,10.654 l -5.691,2.564 c -0.943,-2.485 -3.834,-8.73 -5.127,-10.709 z m 69.037,-17.386 c -0.06,1.16 -0.07,3.181 -0.04,4.333 0.81,19.047 -3.01,29.082 -13.07,37.339 l -5.92,-4.109 c 1.94,-1.242 4.22,-2.989 6,-5.086 5.84,-6.664 7.47,-14.958 6.63,-27.603 -0.07,-1.053 -0.42,-3.242 -0.69,-4.378 z m 16.95,9.16 c -0.09,0.776 -0.15,1.984 -0.11,2.51 0.17,5.233 0.48,18.636 -1.23,23.664 -0.84,2.464 -2.62,3.888 -5.88,4.115 -2.77,0.195 -5.61,0.153 -7.97,0.125 l -1.22,-6.315 c 2.43,0.216 4.89,0.333 6.8,0.199 1.53,-0.107 2.17,-0.681 2.56,-1.912 1.18,-3.113 1.18,-12.737 0.82,-17.908 l -23.37,1.634 c -1.62,0.114 -4.3,0.349 -6.3,0.681 l -0.44,-6.32 c 2.03,0.098 4.47,0.023 6.29,-0.104 l 22.17,-1.55 c 1.25,-0.087 2.49,-0.27 3.62,-0.59 z m 29.16,23.415 c 7.53,-3.75 12.37,-8.9 15.47,-14.169 3.23,-5.375 4.2,-10.831 4.68,-14.859 0.28,-2.185 0.3,-4.641 0.18,-5.786 l 7.83,0.511 c -0.4,1.856 -0.81,4.29 -1,5.699 -0.85,5.689 -2.36,11.665 -5.48,17.272 -3.33,6.007 -8.28,11.646 -15.59,15.862 z m -3.27,-32.972 c 2.59,3.235 7.22,10.274 9.22,13.502 l -6.02,3.981 c -2.75,-4.956 -6.73,-10.933 -9.15,-13.891 z m 58.28,-4.653 c 3.47,2.019 10.04,6.564 13.07,9.287 l -4.54,5.322 c -2.67,-2.508 -9.07,-7.305 -12.74,-9.455 z m -3.8,32.312 c 7.45,-1.579 13.45,-4.453 17.91,-7.507 7.84,-5.457 13.56,-13.17 16.17,-19.849 l 4.16,6.446 c -3.14,6.763 -9.05,13.816 -16.43,19 -4.68,3.262 -10.67,6.328 -17.3,7.946 z m 57.83,-11.406 c 4.31,-0.301 8,2.905 8.3,7.167 0.3,4.309 -2.91,7.998 -7.22,8.299 -4.26,0.298 -8,-2.905 -8.3,-7.214 -0.29,-4.262 2.96,-7.954 7.22,-8.252 z m 0.84,12.019 c 2.4,-0.168 4.18,-2.217 4.01,-4.611 -0.16,-2.346 -2.21,-4.128 -4.61,-3.96 -2.34,0.164 -4.17,2.216 -4.01,4.563 0.17,2.394 2.27,4.172 4.61,4.008 z"
         fill="#ffffff"
         id="path1" /><g
         filter="url(#filter0_d_0_1)"
         id="g2"><path
           d="m 287.168,539.288 c 0,1.044 0.864,1.908 1.908,1.908 1.044,0 1.908,-0.864 1.908,-1.908 0,-1.044 -0.864,-1.908 -1.908,-1.908 -1.044,0 -1.908,0.864 -1.908,1.908 z m -2.556,0 c 0,-2.448 2.016,-4.464 4.464,-4.464 2.448,0 4.464,2.016 4.464,4.464 0,2.448 -2.016,4.464 -4.464,4.464 -2.448,0 -4.464,-2.016 -4.464,-4.464 z m 5.076,3.096 c -0.396,0.792 -0.72,2.088 -0.936,2.88 -0.864,3.384 -2.34,8.856 -5.436,13.032 -3.24,4.356 -8.316,8.064 -14.652,10.116 l -4.752,-5.22 c 7.236,-1.62 11.304,-4.788 14.148,-8.316 2.304,-2.844 3.492,-6.408 3.96,-9.288 -2.232,0 -12.78,0 -15.84,0 -1.764,0 -3.744,0.108 -4.68,0.18 v -6.156 c 1.116,0.144 3.492,0.324 4.68,0.324 3.06,0 13.644,0 15.876,0 0.792,0 2.196,-0.036 3.312,-0.324 z M 302,539.972 c 1.476,0.036 3.096,0.072 4.14,0.072 2.988,0 17.028,0 20.088,0 0.972,0 2.34,0 3.78,-0.036 -0.072,1.188 -0.072,2.664 -0.072,3.888 0,2.484 0,14.94 0,17.568 0,1.548 0.072,5.364 0.072,5.364 h -6.048 c 0,0 0.108,-3.204 0.108,-5.436 0,-2.52 0,-15.768 0,-15.768 H 307.94 c 0,0 0,13.248 0,15.768 0,2.016 0.036,5.436 0.036,5.436 h -6.012 c 0,0 0.108,-3.456 0.108,-5.436 0,-2.556 0,-15.012 0,-17.496 0,-1.152 0,-2.808 -0.072,-3.924 z m 24.192,19.368 v 5.58 h -21.276 v -5.58 z m 37.8,-21.42 c 1.08,1.62 2.448,3.924 3.24,5.544 l -3.708,1.584 c -1.152,-2.484 -1.728,-3.672 -3.132,-5.652 z m 5.112,-1.764 c 1.188,1.548 2.484,3.78 3.348,5.328 l -3.672,1.62 c -1.26,-2.484 -1.944,-3.528 -3.348,-5.436 z m -20.88,0.972 c 2.52,1.368 6.372,3.78 8.424,5.184 l -3.24,4.824 c -2.16,-1.44 -5.832,-3.78 -8.352,-5.184 z m -7.38,25.452 c 4.068,-0.684 8.28,-1.764 12.348,-3.96 6.192,-3.42 11.376,-8.496 14.22,-13.68 l 3.348,5.976 c -3.456,5.076 -8.604,9.576 -14.58,12.996 -3.672,2.052 -8.964,3.924 -12.06,4.428 z m 1.764,-17.172 c 2.592,1.368 6.408,3.78 8.424,5.184 l -3.204,4.896 c -2.196,-1.512 -5.832,-3.888 -8.388,-5.256 z m 41.4,0.576 c 0.792,0.144 2.16,0.216 3.06,0.216 h 16.416 c 0.864,0 2.016,-0.072 2.952,-0.216 v 5.436 c -0.972,-0.072 -2.124,-0.144 -2.952,-0.144 h -16.416 c -0.9,0 -2.268,0.072 -3.06,0.144 z m 8.064,18.936 v -15.984 h 5.76 v 15.984 z m -9.936,-3.24 c 0.972,0.144 2.196,0.252 3.168,0.252 h 19.872 c 1.08,0 2.16,-0.144 2.916,-0.252 v 5.688 c -0.792,-0.144 -2.232,-0.18 -2.916,-0.18 h -19.872 c -0.936,0 -2.16,0.036 -3.168,0.18 z m 67.464,-18 c -0.468,0.792 -1.044,1.872 -1.404,2.952 -0.972,2.988 -2.916,7.74 -6.228,11.808 -3.492,4.284 -7.848,7.596 -14.616,10.368 l -5.184,-4.608 c 7.776,-2.376 11.52,-5.436 14.58,-8.856 2.268,-2.52 4.284,-6.66 4.752,-9 h -11.448 l 1.944,-4.932 c 1.692,0 8.46,0 9.612,0 1.188,0 2.628,-0.18 3.564,-0.468 z m -11.556,-5.832 c -1.008,1.44 -2.088,3.312 -2.556,4.14 -2.592,4.572 -7.2,9.612 -12.024,12.96 l -4.896,-3.636 c 6.372,-3.924 9.288,-8.244 11.196,-11.268 0.648,-1.008 1.512,-2.88 1.908,-4.284 z m 29.052,24.552 c 0,-3.168 0,-17.496 0,-20.556 0,-1.44 -0.144,-3.312 -0.432,-4.68 h 6.804 c -0.144,1.368 -0.36,2.952 -0.36,4.68 0,3.06 0,17.352 0,20.556 0,0.972 0.216,3.816 0.396,5.436 h -6.84 c 0.252,-1.548 0.432,-3.96 0.432,-5.436 z m 4.716,-15.984 c 4.824,1.296 12.852,4.176 16.164,5.796 l -2.484,6.084 c -4.068,-2.088 -9.756,-4.248 -13.68,-5.58 z m 32.544,1.188 h 15.912 v 4.5 h -15.912 z m -6.66,8.028 h 32.436 v 4.788 h -32.436 z m 13.5,-2.16 h 5.364 v 10.548 c 0,2.556 -0.576,3.888 -2.52,4.644 -1.908,0.72 -4.32,0.792 -7.272,0.792 -0.324,-1.476 -1.296,-3.708 -2.088,-5.076 2.016,0.108 4.86,0.108 5.58,0.108 0.72,0 0.936,-0.144 0.936,-0.648 z m 7.344,-5.868 h 1.296 l 1.116,-0.252 3.276,2.52 c -2.484,2.772 -5.94,5.76 -9.54,7.596 -0.612,-0.9 -1.98,-2.304 -2.736,-3.024 2.628,-1.476 5.436,-4.14 6.588,-5.868 z M 497.984,540.8 h 31.86 v 9.252 h -5.148 v -4.68 H 502.88 v 4.68 h -4.896 z m 24.48,-5.328 5.724,1.62 c -1.728,2.484 -3.564,4.932 -5.004,6.516 l -4.32,-1.512 c 1.332,-1.836 2.808,-4.536 3.6,-6.624 z m -22.104,2.052 4.464,-1.98 c 1.224,1.368 2.628,3.24 3.204,4.608 l -4.752,2.196 c -0.468,-1.332 -1.764,-3.348 -2.916,-4.824 z m 8.964,-0.792 4.644,-1.728 c 1.116,1.512 2.304,3.6 2.772,5.04 l -4.968,1.908 c -0.36,-1.404 -1.44,-3.6 -2.448,-5.22 z m 31.968,17.388 h 24.912 v 15.372 h -5.472 v -11.484 h -14.256 v 11.484 h -5.184 z m 2.592,5.148 h 18.18 v 3.852 h -18.18 z m 0.288,5.112 h 18.18 v 3.888 h -18.18 z m 6.516,-13.5 5.652,0.72 c -1.008,1.98 -2.124,3.852 -2.952,5.076 l -4.284,-0.864 c 0.612,-1.476 1.296,-3.456 1.584,-4.932 z m -13.212,-14.184 h 11.376 v 3.996 h -11.376 z m 10.26,0 h 4.716 v 11.952 c 0,1.944 -0.396,2.88 -1.656,3.492 -1.26,0.576 -2.952,0.576 -5.076,0.576 -0.18,-1.116 -0.756,-2.628 -1.26,-3.636 1.008,0.036 2.34,0.036 2.736,0.036 0.396,0 0.54,-0.144 0.54,-0.504 z m 6.408,0 h 12.348 v 3.996 h -12.348 z m 9.9,0 h 4.86 v 11.772 c 0,2.052 -0.432,3.06 -1.8,3.708 -1.368,0.612 -3.204,0.648 -5.544,0.612 -0.216,-1.188 -0.792,-2.808 -1.332,-3.888 1.152,0.072 2.772,0.072 3.204,0.072 0.432,-0.036 0.612,-0.144 0.612,-0.54 z m -11.052,10.584 c 2.52,-0.72 6.192,-1.908 9.756,-3.132 l 0.792,3.708 c -2.988,1.152 -6.228,2.34 -8.856,3.276 z m 1.584,-4.392 2.448,-3.06 c 1.548,0.72 3.708,1.944 4.788,2.844 l -2.556,3.384 c -0.972,-0.936 -3.096,-2.304 -4.68,-3.168 z m -18.144,4.968 c 2.34,-0.648 5.832,-1.8 9.252,-2.952 l 0.756,3.708 c -2.772,1.224 -5.724,2.484 -8.208,3.492 z m 1.656,-4.896 2.412,-2.988 c 1.548,0.72 3.6,1.908 4.608,2.808 l -2.556,3.312 c -0.9,-0.936 -2.916,-2.268 -4.464,-3.132 z m 38.772,6.3 h 32.58 v 5.184 h -32.58 z m 2.772,-8.892 h 27.072 v 5.184 h -27.072 z m 10.62,-5.148 h 5.58 v 34.2 h -5.58 z m -0.792,17.136 4.536,1.872 c -3.456,5.688 -8.892,10.836 -14.616,13.86 -0.864,-1.332 -2.628,-3.456 -3.852,-4.536 5.544,-2.376 11.088,-6.804 13.932,-11.196 z m 7.2,0.072 c 2.808,4.392 8.28,8.784 13.752,11.16 -1.224,1.044 -2.952,3.168 -3.816,4.572 -5.616,-3.024 -10.872,-8.244 -14.328,-13.932 z m 33.336,-15.66 h 15.084 v 4.464 h -15.084 z m 1.296,19.296 h 16.884 v 4.572 h -16.884 z m -2.088,7.848 h 20.448 v 4.572 h -20.448 z m 14.364,-27.144 h 0.972 l 0.936,-0.18 3.492,1.512 c -2.808,8.676 -9.144,13.5 -17.496,16.092 -0.612,-1.296 -1.872,-3.312 -2.844,-4.356 7.236,-1.764 12.996,-6.12 14.94,-12.276 z m -7.488,3.888 c 2.448,4.392 7.524,7.668 14.112,9.072 -1.08,1.008 -2.484,2.952 -3.168,4.212 -7.128,-1.944 -12.204,-5.94 -15.48,-11.808 z m 0.9,11.628 h 5.148 v 14.58 h -5.148 z m -16.128,-17.028 4.5,1.656 c -1.512,2.844 -3.168,6.048 -4.536,8.064 L 617.36,543.5 c 1.26,-2.196 2.736,-5.652 3.492,-8.244 z m 4.176,4.356 4.212,1.908 c -2.7,4.14 -6.228,9.036 -9,12.096 l -2.988,-1.656 c 2.7,-3.276 5.94,-8.46 7.776,-12.348 z m -9.648,4.716 2.448,-3.6 c 1.836,1.62 4.068,3.888 4.968,5.544 l -2.664,4.068 c -0.828,-1.728 -2.952,-4.248 -4.752,-6.012 z m 8.712,3.996 3.384,-1.404 c 1.368,2.484 2.7,5.688 3.06,7.812 l -3.636,1.62 c -0.324,-2.124 -1.512,-5.472 -2.808,-8.028 z m -8.712,2.628 c 3.42,-0.108 8.496,-0.288 13.356,-0.504 l -0.036,4.104 c -4.5,0.36 -9.252,0.648 -12.888,0.9 z m 9.396,6.624 3.636,-1.188 c 0.828,2.088 1.764,4.752 2.196,6.552 l -3.816,1.368 c -0.36,-1.8 -1.26,-4.608 -2.016,-6.732 z m -8.1,-0.864 4.284,0.756 c -0.288,3.456 -1.044,7.128 -2.016,9.432 -0.9,-0.576 -2.844,-1.476 -3.924,-1.872 0.936,-2.088 1.44,-5.328 1.656,-8.316 z m 4.14,-3.348 h 4.536 v 16.056 h -4.536 z m 55.116,-0.288 v 2.52 h 8.028 v -2.52 z m -4.212,-3.708 h 16.668 v 9.936 H 671.72 Z m 7.884,-9.612 c -1.584,2.772 -4.644,6.3 -7.956,8.316 -0.504,-1.26 -1.512,-3.132 -2.34,-4.212 3.276,-1.836 6.444,-5.688 7.884,-8.64 h 4.5 c 2.088,3.204 5.076,6.444 8.208,7.848 -0.9,1.224 -1.944,3.096 -2.592,4.536 -2.952,-1.764 -6.048,-5.112 -7.704,-7.848 z m -2.016,6.012 h 4.608 v 6.84 c 0,5.832 -1.116,12.708 -9.72,16.92 -0.648,-1.08 -2.16,-2.808 -3.168,-3.636 7.38,-3.42 8.28,-8.82 8.28,-13.356 z m 4.896,11.34 c 1.26,3.492 3.816,6.624 7.308,8.172 -1.08,0.936 -2.592,2.844 -3.312,4.104 -3.924,-2.196 -6.408,-6.408 -7.92,-11.304 z m -8.208,-13.068 h 11.052 V 548 H 674.276 Z M 659.3,541.952 h 10.404 v 3.888 H 659.3 Z m 0,5.472 h 10.404 v 3.888 H 659.3 Z m -2.448,5.472 h 12.492 v 3.996 h -12.492 z m 6.084,-13.968 h 4.104 v 16.2 h -4.104 z m 1.116,19.44 1.908,-0.612 c 0.684,1.404 1.296,3.312 1.512,4.536 l -2.016,0.72 c -0.18,-1.26 -0.792,-3.204 -1.404,-4.644 z m -2.304,0.432 2.088,-0.36 c 0.504,1.872 0.936,4.284 1.008,5.832 l -2.196,0.432 c -0.036,-1.584 -0.432,-4.032 -0.9,-5.904 z m -2.448,0.144 2.124,-0.216 c 0.324,2.124 0.396,4.896 0.288,6.66 l -2.232,0.288 c 0.144,-1.836 0.072,-4.572 -0.18,-6.732 z m -2.736,-0.864 2.772,0.54 c -0.18,3.384 -0.54,6.696 -2.052,8.748 L 654.728,566 c 1.26,-1.836 1.692,-4.824 1.836,-7.92 z m 0.288,-21.6 h 13.536 v 4.176 H 661.1 v 15.048 h -4.248 z m 10.224,16.416 h 4.248 c 0,0 0,1.116 -0.036,1.656 -0.324,8.604 -0.684,12.096 -1.548,13.248 -0.648,0.9 -1.332,1.26 -2.232,1.404 -0.792,0.18 -1.908,0.216 -3.168,0.18 -0.072,-1.224 -0.468,-2.916 -1.08,-3.996 0.828,0.108 1.44,0.108 1.872,0.108 0.396,0 0.648,-0.108 0.936,-0.468 0.468,-0.684 0.756,-3.456 1.008,-11.412 z m 28.476,-7.128 h 32.58 v 4.572 h -32.58 z m 3.096,-7.02 h 20.448 v 4.5 h -20.448 z m 6.624,19.836 h 15.588 v 3.888 h -15.588 z m 0,5.508 h 15.588 v 4.356 h -15.588 z m 1.44,-28.872 h 5.184 v 13.14 h -5.184 z m 15.876,0.936 4.5,2.304 c -6.948,10.008 -18,17.316 -29.736,21.528 -0.612,-1.116 -2.16,-3.276 -3.096,-4.32 11.736,-3.6 22.248,-10.404 28.332,-19.512 z m -20.268,16.56 h 21.852 v 16.596 H 718.7 v -12.348 h -11.16 v 12.492 h -5.22 z m 39.564,20.556 c -3.42,-5.544 -5.4,-11.412 -5.4,-18.612 0,-7.164 1.98,-13.068 5.4,-18.612 l 3.276,1.404 c -3.024,5.256 -4.392,11.34 -4.392,17.208 0,5.904 1.368,11.988 4.392,17.244 z m 17.17,-25.524 h 16.596 v 3.708 h -16.596 z m -6.444,8.064 h 32.22 v 3.996 h -32.22 z m 13.86,-2.304 h 4.428 v 11.124 c 0,2.232 -0.54,3.348 -2.268,3.996 -1.692,0.576 -3.996,0.648 -7.056,0.648 -0.288,-1.224 -1.08,-3.06 -1.764,-4.176 2.304,0.072 5.004,0.072 5.724,0.072 0.72,0 0.936,-0.18 0.936,-0.684 z m 7.776,-5.76 h 1.08 l 0.9,-0.216 2.736,2.088 c -2.484,2.664 -6.048,5.472 -9.576,7.164 -0.504,-0.72 -1.656,-1.908 -2.304,-2.484 2.772,-1.44 5.832,-3.996 7.164,-5.76 z m -21.204,-6.588 h 31.392 v 8.82 h -4.284 v -5.004 h -23.04 v 5.004 h -4.068 z m 24.948,-5.472 4.68,1.368 c -1.656,2.376 -3.528,4.824 -5.004,6.408 l -3.528,-1.296 c 1.368,-1.764 2.988,-4.464 3.852,-6.48 z m -22.536,1.764 3.672,-1.656 c 1.296,1.404 2.736,3.348 3.312,4.752 l -3.924,1.8 c -0.504,-1.332 -1.836,-3.384 -3.06,-4.896 z m 9.072,-0.792 3.816,-1.44 c 1.152,1.584 2.376,3.78 2.844,5.22 l -4.104,1.584 c -0.36,-1.44 -1.476,-3.708 -2.556,-5.364 z m 46.692,0.828 h 10.476 v 4.068 h -6.264 v 27.684 h -4.212 z m -18.972,1.404 h 17.424 v 3.744 h -17.424 z m -0.756,10.08 h 18.612 v 3.888 H 791.49 Z m 7.38,-13.284 h 4.176 v 5.544 h -4.176 z m -4.536,7.956 3.564,-0.756 c 0.72,1.62 1.26,3.816 1.476,5.256 l -3.78,0.9 c -0.108,-1.476 -0.648,-3.708 -1.26,-5.4 z m 9.648,-0.9 4.032,0.864 c -0.792,2.016 -1.512,4.068 -2.16,5.436 l -3.384,-0.828 c 0.576,-1.512 1.224,-3.816 1.512,-5.472 z m -8.964,20.988 h 11.124 v 3.744 h -11.124 z m -1.476,-8.496 h 14.94 v 13.896 h -4.176 V 558.98 h -6.768 v 10.296 h -3.996 z m 27.036,-17.748 h 0.828 l 0.684,-0.144 3.168,1.98 c -1.296,3.492 -2.88,7.632 -4.284,10.728 2.988,3.204 3.564,6.048 3.6,8.46 0,2.664 -0.612,4.428 -1.98,5.364 -0.72,0.504 -1.548,0.792 -2.484,0.936 -0.828,0.108 -1.836,0.108 -2.88,0.072 -0.036,-1.188 -0.396,-3.024 -1.08,-4.212 0.792,0.036 1.512,0.072 2.052,0.036 0.504,0 0.972,-0.108 1.332,-0.324 0.612,-0.396 0.864,-1.188 0.864,-2.448 -0.036,-1.944 -0.792,-4.572 -3.708,-7.38 1.44,-3.456 3.096,-9.036 3.888,-11.556 z M 832.782,566 v -4.284 h 5.76 v -16.848 h -4.86 v -3.276 c 2.7,-0.504 4.5,-1.188 6.228,-2.232 h 3.924 v 22.356 h 5.004 V 566 Z M 872.7,547.748 c 2.52,0 4.572,2.052 4.572,4.572 0,2.556 -2.052,4.608 -4.572,4.608 -2.556,0 -4.608,-2.052 -4.608,-4.608 0,-2.52 2.052,-4.572 4.608,-4.572 z M 895.812,566 v -3.024 c 7.272,-6.516 11.52,-11.52 11.52,-15.624 0,-2.664 -1.404,-4.32 -3.96,-4.32 -1.98,0 -3.528,1.26 -4.896,2.772 l -2.916,-2.88 c 2.448,-2.628 4.86,-4.032 8.496,-4.032 5.004,0 8.388,3.204 8.388,8.172 0,4.86 -4.032,10.044 -8.892,14.796 1.332,-0.144 3.096,-0.324 4.356,-0.324 h 5.76 V 566 Z m 32.25,-30.708 4.392,1.116 c -1.908,5.364 -5.076,10.548 -8.28,13.788 -0.828,-0.756 -2.664,-2.196 -3.708,-2.808 3.24,-2.808 6.048,-7.416 7.596,-12.096 z m 0.756,4.104 h 22.896 v 4.176 H 926.73 Z m -2.556,8.496 h 24.624 v 4.032 h -20.268 v 7.56 h -4.356 z m -5.688,9.468 h 33.12 v 4.176 h -33.12 z m 16.272,-15.804 h 4.464 v 27.684 h -4.464 z m 29.34,0.396 h 25.056 v 4.212 h -25.056 z m -1.476,10.62 h 25.164 v 4.14 H 964.71 Z m -4.176,11.412 h 32.544 v 4.212 h -32.544 z m 14.004,-28.548 h 4.5 v 30.636 h -4.5 z m -8.316,0.432 4.464,1.008 c -1.584,5.58 -4.212,11.124 -7.02,14.58 -0.864,-0.756 -2.772,-2.016 -3.888,-2.628 2.844,-3.024 5.148,-7.992 6.444,-12.96 z m 37.258,37.404 -3.31,-1.368 c 3.02,-5.256 4.43,-11.34 4.43,-17.244 0,-5.868 -1.41,-11.952 -4.43,-17.208 l 3.31,-1.404 c 3.39,5.544 5.37,11.448 5.37,18.612 0,7.2 -1.98,13.068 -5.37,18.612 z m 33.34,-31.932 c -0.51,3.672 -1.23,7.884 -2.49,12.132 -2.16,7.272 -5.25,11.736 -9.18,11.736 -4.03,0 -7.34,-4.428 -7.34,-10.512 0,-8.28 7.23,-15.408 16.56,-15.408 8.89,0 14.54,6.192 14.54,14.076 0,7.56 -4.64,12.924 -13.71,14.328 l -2.74,-4.248 c 1.4,-0.18 2.41,-0.36 3.38,-0.576 4.58,-1.116 8.18,-4.392 8.18,-9.684 0,-5.652 -3.53,-9.684 -9.76,-9.684 -7.63,0 -11.81,6.228 -11.81,10.764 0,3.636 1.44,5.4 2.81,5.4 1.55,0 2.92,-2.304 4.43,-7.164 1.04,-3.384 1.83,-7.524 2.19,-11.304 z m 25.99,-2.556 c 0.97,0.072 2.23,0.144 2.99,0.144 2.08,0 5.9,-0.144 7.56,-0.288 0.9,-0.072 1.83,-0.288 2.48,-0.54 l 2.84,2.268 c -0.46,0.54 -0.9,1.008 -1.18,1.476 -1.23,2.052 -3.17,6.696 -4.79,10.44 -1.44,3.312 -3.17,7.596 -4.65,9.864 -1.44,2.196 -3.13,3.168 -5.61,3.168 -3.13,0 -5.51,-2.16 -5.51,-5.832 0,-5.76 5.51,-10.188 13.21,-10.188 8.39,0 15.73,4.464 19.51,7.056 l -2.08,5.004 c -4.43,-3.924 -10.77,-8.028 -18.18,-8.028 -5.26,0 -8.28,2.844 -8.28,5.472 0,1.188 0.68,1.8 1.54,1.8 0.72,0 1.19,-0.324 1.88,-1.224 1.18,-1.764 2.48,-5.076 3.78,-7.92 1.26,-2.844 2.73,-6.372 3.81,-8.604 -1.44,0.036 -4.57,0.144 -6.19,0.252 -0.76,0.036 -2.02,0.18 -2.95,0.288 z m 23.69,8.496 c -0.51,10.224 -2.52,16.848 -11.13,21.312 l -3.85,-3.132 c 8.89,-3.816 9.97,-10.548 10.3,-14.76 0.07,-1.404 0.1,-2.844 -0.04,-3.96 z m 25.74,-10.152 c -0.29,1.332 -0.76,3.456 -1.77,6.048 -0.75,1.764 -1.8,3.816 -2.81,5.256 0.98,-0.432 2.88,-0.684 4.11,-0.684 2.99,0 5.25,1.764 5.25,5.112 0,1.944 0.11,5.868 0.15,8.136 h -4.32 c 0.14,-1.692 0.21,-4.752 0.18,-6.696 0,-2.304 -1.44,-3.06 -2.95,-3.06 -1.98,0 -4.25,1.188 -5.62,2.484 -1.08,1.08 -2.09,2.376 -3.31,3.96 l -3.85,-2.88 c 4.6,-4.248 7.38,-8.136 8.89,-12.096 0.72,-1.944 1.19,-4.14 1.29,-5.976 z m -13.58,3.348 c 1.84,0.252 4.5,0.396 6.34,0.396 4.75,0 11.27,-0.252 16.49,-1.188 l -0.04,4.176 c -5.07,0.72 -12.31,1.044 -16.7,1.044 -1.48,0 -4.11,-0.072 -6.09,-0.252 z m 28.52,10.224 c -1.12,0.324 -3.06,1.044 -4.29,1.512 -2.34,0.9 -5.58,2.196 -8.96,3.924 -3.28,1.692 -5.04,3.24 -5.04,5.22 0,1.98 1.73,2.52 5.22,2.52 3.06,0 7.09,-0.396 10.26,-1.044 l -0.15,4.644 c -2.41,0.324 -6.8,0.648 -10.22,0.648 -5.62,0 -9.83,-1.404 -9.83,-6.048 0,-5.004 5.15,-7.956 9.47,-10.116 3.31,-1.728 5.58,-2.592 7.74,-3.6 1.4,-0.612 2.66,-1.188 4.03,-1.872 z m -670.676,64.764 h 17.172 v 4.14 h -17.172 z m -15.948,-2.484 h 17.136 v 3.996 h -17.136 z m 24.984,-5.544 h 4.284 v 28.44 c 0,2.448 -0.468,3.672 -1.836,4.428 -1.368,0.756 -3.492,0.9 -6.516,0.9 -0.144,-1.26 -0.756,-3.312 -1.368,-4.644 2.016,0.108 3.96,0.108 4.608,0.108 0.612,-0.036 0.828,-0.216 0.828,-0.828 z m -9.432,16.704 3.492,-1.692 c 1.692,2.376 3.42,5.508 3.996,7.668 l -3.744,1.908 c -0.54,-2.124 -2.088,-5.436 -3.744,-7.884 z m -14.868,-2.088 3.024,-2.448 c 4.32,4.572 9.432,10.764 11.52,15.048 l -3.456,2.952 c -1.908,-4.32 -6.84,-10.8 -11.088,-15.552 z m 5.616,-14.58 h 4.14 v 7.956 h -4.14 z m 3.924,10.224 4.176,0.612 c -1.836,10.44 -5.544,18.036 -12.492,22.68 -0.54,-0.864 -2.052,-2.628 -2.916,-3.384 6.516,-3.816 9.792,-10.692 11.232,-19.908 z m 38.772,8.82 2.844,-2.088 c 9.324,4.86 9.72,13.284 5.652,15.804 -1.368,0.9 -2.412,1.152 -4.176,1.188 -0.864,0 -1.908,-0.036 -2.916,-0.072 -0.072,-1.152 -0.468,-2.736 -1.224,-3.888 1.26,0.144 2.52,0.18 3.42,0.18 0.864,0 1.62,-0.072 2.232,-0.576 2.052,-1.332 1.44,-6.588 -5.832,-10.548 z m 3.996,0.36 2.88,1.44 c -3.24,2.664 -8.856,5.076 -13.572,6.192 -0.504,-0.864 -1.548,-2.196 -2.268,-2.916 4.644,-0.828 10.152,-2.664 12.96,-4.716 z m 2.34,3.276 3.024,1.584 c -3.996,3.672 -10.8,6.876 -16.524,8.496 -0.54,-0.9 -1.656,-2.34 -2.448,-3.132 5.76,-1.26 12.492,-4.032 15.948,-6.948 z m -6.192,-20.484 h 10.584 v 3.24 h -10.584 z m 6.12,11.664 3.204,1.548 c -4.032,3.06 -10.728,5.364 -16.38,6.696 -0.468,-0.72 -1.512,-2.304 -2.16,-3.024 5.58,-0.936 11.916,-2.808 15.336,-5.22 z m 4.86,0.72 c 1.872,6.84 5.94,12.204 12.636,14.508 -0.936,0.828 -2.196,2.484 -2.772,3.636 -7.2,-2.988 -11.232,-9.036 -13.5,-17.316 z m 8.352,1.872 3.492,2.52 c -2.736,1.764 -6.048,3.6 -8.604,4.716 l -2.736,-2.232 c 2.484,-1.224 5.868,-3.348 7.848,-5.004 z m -20.916,-5.976 v 2.736 h 17.064 v -2.736 z m -4.068,-3.132 h 25.38 v 9 h -25.38 z m 5.688,-7.56 4.5,0.936 c -2.772,4.032 -6.372,7.74 -11.412,10.836 -0.648,-0.972 -1.98,-2.412 -2.916,-3.024 4.644,-2.484 7.992,-5.796 9.828,-8.748 z m 4.536,9.216 h 4.248 v 6.156 h -4.248 z m 4.284,-6.804 h 0.972 l 0.648,-0.18 2.952,1.944 c -1.296,2.088 -3.456,4.716 -5.184,6.336 -0.792,-0.612 -2.16,-1.512 -3.096,-2.052 1.44,-1.44 3.06,-3.816 3.708,-5.256 z m 49.536,7.344 c -1.116,0.648 -2.268,1.296 -3.6,1.944 -2.232,1.116 -6.732,3.24 -10.044,5.364 -2.988,1.944 -5.004,4.032 -5.004,6.516 0,2.592 2.52,3.996 7.524,3.996 3.672,0 8.532,-0.576 11.736,-1.332 l -0.036,5.184 c -3.096,0.504 -6.876,0.9 -11.556,0.9 -7.2,0 -12.636,-2.016 -12.636,-8.208 0,-4.572 3.348,-7.776 7.632,-10.584 3.42,-2.268 7.956,-4.5 10.152,-5.76 1.368,-0.792 2.376,-1.404 3.312,-2.16 z m -18.108,-7.704 c 1.728,4.788 3.996,9.108 5.688,12.132 l -4.104,2.376 c -1.98,-3.276 -4.14,-7.992 -6.12,-12.636 z m 41.076,0.144 c -0.216,1.512 -0.396,3.384 -0.468,4.824 -0.18,3.888 -0.432,11.916 -0.432,16.38 0,3.636 2.16,4.824 4.968,4.824 5.94,0 9.684,-3.42 12.312,-7.344 l 3.276,3.996 c -2.34,3.456 -7.452,8.244 -15.66,8.244 -5.904,0 -9.684,-2.592 -9.684,-8.748 0,-4.824 0.324,-14.256 0.324,-17.352 0,-1.728 -0.144,-3.456 -0.432,-4.86 z m 43.272,-0.18 c -0.252,1.008 -0.576,2.628 -0.756,3.42 -0.504,2.448 -1.404,6.84 -2.376,10.512 -1.296,5.04 -3.708,12.384 -5.688,16.668 l -5.004,-1.692 c 2.124,-3.636 4.86,-11.16 6.228,-16.2 0.9,-3.384 1.728,-7.344 1.98,-9.468 0.18,-1.332 0.216,-2.808 0.108,-3.672 z m -9.18,5.4 c 4.392,0 9.468,-0.684 14.148,-1.8 v 4.5 c -4.464,1.044 -10.116,1.656 -14.184,1.656 -1.764,0 -3.096,-0.072 -4.356,-0.144 l -0.144,-4.5 c 1.872,0.216 3.06,0.288 4.536,0.288 z m 11.304,5.508 c 2.016,-0.216 4.608,-0.36 6.948,-0.36 2.052,0 4.212,0.108 6.3,0.324 l -0.072,4.32 c -1.836,-0.216 -4.032,-0.468 -6.192,-0.468 -2.484,0 -4.716,0.108 -6.984,0.396 z m 1.944,9.036 c -0.252,1.044 -0.468,2.196 -0.468,2.988 0,1.584 1.044,2.772 4.932,2.772 2.412,0 4.896,-0.252 7.452,-0.72 l -0.18,4.572 c -2.016,0.288 -4.428,0.504 -7.308,0.504 -6.084,0 -9.324,-2.052 -9.324,-5.688 0,-1.692 0.324,-3.42 0.612,-4.824 z m 33.372,-19.008 h 16.452 v 4.068 h -16.452 z m 14.904,0 h 4.428 c 0,0 0,1.62 -0.036,2.196 -0.36,18.072 -0.72,24.408 -2.088,26.352 -0.936,1.44 -1.872,1.908 -3.204,2.196 -1.332,0.252 -3.312,0.216 -5.256,0.144 -0.072,-1.224 -0.612,-3.168 -1.368,-4.464 1.908,0.18 3.564,0.18 4.428,0.18 0.612,0 0.972,-0.18 1.368,-0.72 1.08,-1.26 1.44,-7.812 1.728,-24.84 z m -9.648,1.872 h 4.428 c -0.252,11.16 -0.756,22.644 -9.396,29.196 -0.756,-1.152 -2.088,-2.592 -3.24,-3.384 8.028,-5.652 8.028,-15.876 8.208,-25.812 z m -13.824,13.932 4.248,-5.076 V 641.24 H 643.2 Z m -4.68,-12.168 h 10.764 v 3.852 H 638.52 Z m 4.68,-6.372 h 4.248 v 8.46 H 643.2 Z m 3.816,15.804 c 1.188,0.936 5.112,4.68 6.048,5.616 l -2.556,3.312 c -1.296,-1.908 -4.248,-5.4 -5.76,-6.948 z m 1.08,-9.432 h 0.828 l 0.756,-0.216 2.412,1.62 c -2.592,6.948 -7.632,13.716 -12.348,17.424 -0.396,-1.08 -1.548,-3.204 -2.232,-3.96 4.356,-3.024 8.748,-8.82 10.584,-14.04 z m 3.132,6.84 2.772,2.304 c -1.548,1.44 -2.844,3.096 -3.96,4.14 l -1.98,-1.728 c 1.008,-1.224 2.448,-3.312 3.168,-4.716 z m 35.964,-2.952 h 4.5 v 17.208 c 0,1.764 0.288,2.016 1.98,2.016 0.756,0 3.996,0 4.932,0 1.764,0 2.052,-1.188 2.34,-6.84 0.972,0.792 2.808,1.584 4.032,1.872 -0.504,6.768 -1.692,8.892 -6.012,8.892 -0.972,0 -4.932,0 -5.868,0 -4.608,0 -5.904,-1.404 -5.904,-5.94 z m 0.144,-6.84 2.808,-3.348 c 4.248,1.512 9.216,4.212 12.096,6.3 l -2.88,3.816 c -2.736,-2.304 -7.776,-5.112 -12.024,-6.768 z m -6.624,9.396 4.248,0.864 c -0.54,5.004 -1.476,10.548 -3.852,14.076 l -4.032,-2.304 c 2.124,-3.096 3.168,-7.812 3.636,-12.636 z m 20.736,0.576 3.96,-1.98 c 3.096,3.96 5.688,9.252 6.552,13.032 l -4.392,2.16 c -0.72,-3.708 -3.24,-9.252 -6.12,-13.212 z m 16.416,-2.52 h 32.4 v 3.816 h -32.4 z m 3.132,-7.02 h 20.592 v 3.744 h -20.592 z m 6.336,19.584 h 16.092 v 3.24 h -16.092 z m 0,5.652 h 16.092 v 3.636 h -16.092 z m 2.16,-29.124 h 4.248 v 13.032 h -4.248 z m 15.84,1.044 3.708,1.908 c -7.056,9.828 -18.036,17.064 -29.7,21.348 -0.504,-0.936 -1.8,-2.736 -2.592,-3.6 11.7,-3.744 22.284,-10.62 28.584,-19.656 z m -20.412,16.56 h 21.24 v 16.092 h -4.5 v -12.564 h -12.42 v 12.708 h -4.32 z m 33.876,-11.556 h 27.108 v 4.212 H 763.08 v 23.508 h -4.284 z m 25.56,0 h 4.356 v 22.752 c 0,2.34 -0.504,3.564 -2.016,4.248 -1.548,0.684 -3.852,0.792 -7.092,0.792 -0.18,-1.224 -0.828,-3.24 -1.44,-4.392 2.124,0.144 4.572,0.144 5.292,0.108 0.684,0 0.9,-0.18 0.9,-0.828 z m -13.716,-6.048 5.544,0.792 c -1.26,2.88 -2.808,5.832 -3.96,7.812 l -4.176,-0.936 c 1.008,-2.196 2.088,-5.328 2.592,-7.668 z m -4.032,13.752 h 3.924 v 14.868 h -3.924 z m 1.692,0 h 12.456 v 12.348 H 768.3 v -3.78 h 8.46 v -4.788 h -8.46 z m 55.008,-11.808 c -0.144,0.792 -0.18,1.656 -0.18,2.484 -0.072,1.656 0,8.46 0,10.584 0,8.46 -0.648,13.716 -7.812,18.252 l -4.176,-3.24 c 1.404,-0.612 3.204,-1.764 4.212,-2.88 2.736,-2.88 3.348,-6.12 3.348,-12.168 0,-2.7 -0.072,-8.532 -0.252,-10.548 -0.072,-0.864 -0.252,-1.908 -0.396,-2.484 z m -14.22,7.056 c 1.764,0.252 3.528,0.36 5.472,0.36 4.644,0 10.404,-0.324 13.932,-0.972 v 4.68 c -3.42,0.396 -8.964,0.684 -13.824,0.684 -1.584,0 -3.78,-0.108 -5.58,-0.216 z m -3.708,-6.444 c -0.288,0.9 -0.648,2.196 -0.828,2.952 -0.9,3.996 -2.196,11.556 -1.224,16.02 0.468,-1.116 1.152,-2.88 1.728,-4.176 l 2.268,1.44 c -1.08,3.096 -2.016,6.696 -2.448,8.748 -0.144,0.576 -0.252,1.368 -0.216,1.764 0,0.396 0.036,1.008 0.072,1.512 l -4.032,0.396 c -0.792,-2.196 -2.052,-7.2 -2.052,-11.664 0,-5.904 0.72,-11.448 1.188,-14.4 0.144,-0.972 0.18,-2.196 0.216,-3.096 z m 50.472,-0.504 h 10.476 v 4.068 h -6.264 v 27.684 h -4.212 z m -18.972,1.404 h 17.424 v 3.744 H 836.88 Z m -0.756,10.08 h 18.612 v 3.888 h -18.612 z m 7.38,-13.284 h 4.176 v 5.544 h -4.176 z m -4.536,7.956 3.564,-0.756 c 0.72,1.62 1.26,3.816 1.476,5.256 l -3.78,0.9 c -0.108,-1.476 -0.648,-3.708 -1.26,-5.4 z m 9.648,-0.9 4.032,0.864 c -0.792,2.016 -1.512,4.068 -2.16,5.436 l -3.384,-0.828 c 0.576,-1.512 1.224,-3.816 1.512,-5.472 z m -8.964,20.988 h 11.124 v 3.744 h -11.124 z m -1.476,-8.496 h 14.94 v 13.896 H 848.94 V 630.98 h -6.768 v 10.296 h -3.996 z m 27.036,-17.748 h 0.828 l 0.684,-0.144 3.168,1.98 c -1.296,3.492 -2.88,7.632 -4.284,10.728 2.988,3.204 3.564,6.048 3.6,8.46 0,2.664 -0.612,4.428 -1.98,5.364 -0.72,0.504 -1.548,0.792 -2.484,0.936 -0.828,0.108 -1.836,0.108 -2.88,0.072 -0.036,-1.188 -0.396,-3.024 -1.08,-4.212 0.792,0.036 1.512,0.072 2.052,0.036 0.504,0 0.972,-0.108 1.332,-0.324 0.612,-0.396 0.864,-1.188 0.864,-2.448 -0.036,-1.944 -0.792,-4.572 -3.708,-7.38 1.44,-3.456 3.096,-9.036 3.888,-11.556 z m 14.256,4.752 h 9.036 v 3.06 h -9.036 z m 16.632,0 h 9.072 v 3.06 H 896.1 Z m 7.38,-5.364 h 4.356 v 27.108 c 0,2.52 -0.504,3.744 -2.088,4.428 -1.584,0.72 -3.96,0.828 -7.452,0.828 -0.216,-1.224 -0.936,-3.276 -1.548,-4.464 2.268,0.18 4.968,0.144 5.724,0.108 0.756,0 1.008,-0.216 1.008,-0.936 z m -23.652,0 h 11.34 v 13.968 h -11.34 v -3.456 h 7.272 v -7.02 h -7.272 z m 25.992,0 v 3.492 h -8.064 v 7.092 h 8.064 v 3.456 h -12.168 v -14.04 z m -28.476,0 h 4.284 v 32.364 h -4.284 z m 52.884,19.872 -0.936,-12.312 -0.18,-5.364 h 5.94 l -0.18,5.364 -0.936,12.312 z m 1.872,9.612 c -1.872,0 -3.204,-1.332 -3.204,-3.204 0,-1.872 1.368,-3.168 3.204,-3.168 1.8,0 3.168,1.296 3.168,3.168 0,1.872 -1.368,3.204 -3.168,3.204 z"
           fill="#004435"
           id="path2" /></g><g
         filter="url(#filter1_d_0_1)"
         id="g3"><path
           d="m 71.7441,335.251 c -2.607,0.183 -5.1044,-0.575 -7.4922,-2.272 -2.3912,-1.51 -3.5473,-4.505 -3.4683,-8.985 0.0099,-0.56 0.0214,-1.213 0.0345,-1.959 0.0099,-0.56 0.1145,-1.22 0.3139,-1.98 4.5047,-23.429 10.373,-45.09 17.6051,-64.982 7.4182,-19.905 14.9848,-37.677 22.6999,-53.315 7.715,-15.639 14.268,-28.68 19.66,-39.123 1.539,-2.903 3.53,-5.093 5.974,-6.569 2.633,-1.675 5.067,-2.591 7.302,-2.747 3.538,-0.248 5.563,0.915 6.076,3.489 3.564,-1.74 7.12,-3.014 10.668,-3.821 2.614,-0.556 5.226,-1.018 7.836,-1.387 2.8,-0.569 5.596,-0.951 8.389,-1.146 7.263,-0.508 14.041,0.043 20.336,1.654 6.481,1.597 11.728,4.679 15.739,9.245 4.014,4.379 5.946,10.862 5.794,19.447 -0.168,9.518 -3.292,17.939 -9.372,25.261 -6.081,7.322 -14.01,14.028 -23.789,20.118 -9.589,5.89 -19.921,11.739 -30.996,17.546 -5.257,2.791 -11.438,5.274 -18.544,7.448 -7.102,1.988 -13.919,3.583 -20.449,4.785 -6.3412,1.003 -11.3739,1.635 -15.0981,1.895 -1.3627,3.451 -2.629,6.708 -3.7989,9.772 -1.17,3.065 -2.2435,5.936 -3.2206,8.614 -0.9771,2.678 -1.9691,6.196 -2.9758,10.554 -1.0034,4.171 -1.9187,8.615 -2.7458,13.333 -0.8271,4.718 -1.4598,8.957 -1.898,12.716 -0.435,3.572 -0.6656,6.104 -0.6919,7.598 -0.0198,1.119 0.7037,2.28 2.1703,3.483 1.6496,1.376 2.4596,2.903 2.43,4.583 -0.0296,1.68 -1.0817,3.338 -3.1564,4.974 -1.5061,1.038 -3.2834,1.628 -5.3317,1.771 z m 30.3099,-89.358 c 3.352,-0.234 8.017,-1.12 13.995,-2.656 5.982,-1.723 13.851,-4.977 23.606,-9.76 17.453,-8.863 31.375,-17.945 41.769,-27.247 10.582,-9.501 15.297,-18.498 14.145,-26.993 0.069,-3.919 -1.546,-7.255 -4.845,-10.006 -3.299,-2.752 -7.727,-4.773 -13.284,-6.062 -5.367,-1.489 -11.309,-2.005 -17.827,-1.549 -3.352,0.234 -6.895,0.761 -10.629,1.582 -2.048,0.143 -3.644,1 -4.788,2.571 -1.14,1.385 -2.563,2.976 -4.268,4.773 -1.52,1.784 -4.06,3.452 -7.621,5.006 -1.124,0.452 -1.965,0.697 -2.524,0.736 -3.071,5.434 -6.63,12.114 -10.675,20.04 -3.856,7.726 -7.813,15.925 -11.872,24.597 -3.869,8.472 -7.5497,16.838 -11.043,25.098 0.5586,-0.039 1.3018,0.002 2.2296,0.124 1.1173,-0.078 2.3274,-0.163 3.6314,-0.254 z m 141.973,77.311 c -2.607,0.182 -5.105,-0.575 -7.493,-2.272 -2.391,-1.511 -3.547,-4.506 -3.468,-8.985 0.01,-0.56 0.021,-1.213 0.035,-1.96 0.009,-0.559 0.114,-1.219 0.313,-1.979 4.505,-23.429 10.373,-45.09 17.605,-64.982 7.419,-19.905 14.985,-37.677 22.7,-53.316 7.715,-15.638 14.269,-28.679 19.66,-39.122 1.539,-2.904 3.531,-5.093 5.975,-6.569 2.633,-1.676 5.067,-2.591 7.301,-2.748 3.352,-0.234 5.284,0.936 5.797,3.51 3.75,-1.754 7.4,-3.034 10.948,-3.842 2.613,-0.555 5.225,-1.017 7.835,-1.386 2.8,-0.569 5.597,-0.951 8.39,-1.146 7.262,-0.508 14.041,0.043 20.336,1.653 6.484,1.411 11.732,4.399 15.743,8.966 4.011,4.566 5.943,11.048 5.795,19.447 -0.168,9.518 -3.292,17.939 -9.373,25.261 -6.077,7.136 -14.005,13.748 -23.783,19.838 -9.589,5.89 -19.925,11.925 -31.007,18.106 -2.617,0.742 -6.08,2.009 -10.389,3.802 -4.123,1.78 -7.022,2.728 -8.698,2.845 l 0.274,0.261 c 0.346,1.467 1.885,3.876 4.615,7.226 2.917,3.338 6.293,7.017 10.128,11.036 4.021,4.006 8.23,7.906 12.626,11.699 4.397,3.794 8.431,7.054 12.103,9.779 3.675,2.54 6.437,4.117 8.286,4.734 4.259,1.007 7.214,2.198 8.864,3.574 1.653,1.189 2.469,2.344 2.449,3.464 -0.019,1.119 -0.781,2.105 -2.283,2.955 -1.503,0.851 -3.279,1.348 -5.327,1.491 -3.352,0.235 -7.886,-1.033 -13.603,-3.802 -5.713,-2.956 -11.693,-6.639 -17.938,-11.048 -6.243,-4.597 -11.926,-9.232 -17.052,-13.907 -5.121,-4.861 -8.768,-8.987 -10.94,-12.377 -0.712,-1.814 -2.087,-2.93 -4.126,-3.346 -2.035,-0.604 -3.974,-1.4 -5.816,-2.39 -1.843,-0.989 -2.738,-2.977 -2.685,-5.963 0.073,-4.106 1.336,-7.177 3.789,-9.213 2.643,-2.235 5.834,-3.856 9.571,-4.863 3.741,-1.194 7.477,-2.108 11.207,-2.741 3.734,-0.821 6.822,-1.875 9.262,-3.164 17.459,-9.237 31.479,-18.512 42.058,-27.827 10.579,-9.314 15.293,-18.219 14.141,-26.713 0.069,-3.919 -1.546,-7.255 -4.846,-10.007 -3.299,-2.751 -7.727,-4.772 -13.283,-6.061 -5.368,-1.489 -11.31,-2.005 -17.827,-1.55 -3.352,0.235 -6.895,0.762 -10.629,1.583 -2.049,0.143 -3.645,1 -4.788,2.571 -1.141,1.385 -2.563,2.976 -4.269,4.772 -1.519,1.784 -4.059,3.453 -7.621,5.007 -1.123,0.452 -1.965,0.697 -2.523,0.736 -3.454,6.02 -7.303,13.373 -11.548,22.058 -4.245,8.685 -8.591,17.843 -13.038,27.475 -4.444,9.444 -8.511,18.583 -12.2,27.416 -3.69,8.833 -6.708,16.5 -9.054,23.002 -0.977,2.678 -1.969,6.196 -2.976,10.554 -1.003,4.171 -1.919,8.615 -2.746,13.333 -0.827,4.718 -1.46,8.957 -1.898,12.716 -0.435,3.572 -0.665,6.104 -0.692,7.597 -0.019,1.12 0.704,2.281 2.171,3.484 1.649,1.375 2.459,2.903 2.43,4.583 -0.03,1.68 -1.082,3.338 -3.157,4.974 -1.506,1.038 -3.283,1.628 -5.331,1.771 z m 232.995,-19.928 c -11.731,0.821 -22.401,-0.577 -32.008,-4.192 -9.424,-3.442 -16.403,-8.453 -20.937,-15.033 -3.08,-4.632 -5.322,-9.321 -6.726,-14.07 -1.401,-4.935 -2.055,-10.015 -1.963,-15.241 0.138,-7.839 1.576,-15.582 4.315,-23.23 2.742,-7.835 6.222,-15.348 10.44,-22.54 4.408,-7.392 8.803,-14.037 13.185,-19.935 8.191,-11.012 17.861,-21.475 29.008,-31.388 11.148,-9.914 22.831,-18.56 35.05,-25.938 12.409,-7.579 24.312,-12.885 35.711,-15.919 2.616,-0.742 4.763,-1.172 6.439,-1.289 2.793,-0.195 4.833,0.128 6.12,0.97 1.473,0.829 2.198,1.897 2.175,3.203 -0.029,1.68 -1.088,3.711 -3.176,6.094 -2.088,2.383 -5.18,3.718 -9.277,4.004 l -0.279,0.02 c -7.448,0.521 -15.302,2.934 -23.561,7.24 -8.256,4.119 -16.535,9.544 -24.837,16.276 -8.299,6.546 -16.143,13.712 -23.534,21.498 -7.387,7.6 -13.843,15.135 -19.368,22.605 -6.476,8.655 -12.133,18.278 -16.969,28.868 -4.833,10.404 -7.332,20.272 -7.496,29.604 -0.145,8.212 1.778,15.161 5.77,20.847 2.907,3.898 8.331,7.433 16.272,10.606 7.945,2.986 16.945,4.128 27,3.424 4.842,-0.338 9.786,-1.243 14.834,-2.715 11.594,-3.606 20.682,-7.411 27.261,-11.413 6.77,-4.201 12.05,-8.298 15.84,-12.292 3.976,-4.006 7.475,-7.326 10.497,-9.961 1.127,-0.638 2.063,-0.983 2.808,-1.035 2.235,-0.156 3.323,1.445 3.263,4.805 -0.033,1.866 -0.533,3.858 -1.5,5.976 -0.781,2.106 -2.112,3.783 -3.994,5.033 -1.317,0.838 -3.591,3.234 -6.822,7.188 -3.229,3.767 -8.324,7.945 -15.286,12.533 -6.965,4.774 -16.708,8.811 -29.227,12.11 -3.178,0.968 -6.352,1.655 -9.521,2.063 -3.172,0.595 -6.341,1.003 -9.507,1.224 z m -26.218,-63.595 c -1.862,0.13 -3.34,-0.419 -4.435,-1.647 -1.094,-1.229 -1.626,-2.683 -1.597,-4.363 0.06,-3.359 1.775,-5.716 5.147,-7.07 3.561,-1.554 6.658,-3.169 9.291,-4.844 2.823,-1.875 6.196,-3.323 10.12,-4.343 0,0 1.589,-0.484 4.768,-1.451 3.365,-0.981 7.571,-2.208 12.619,-3.679 5.237,-1.671 10.658,-3.262 16.264,-4.772 5.61,-1.697 10.842,-3.088 15.696,-4.174 5.041,-1.098 8.865,-1.738 11.472,-1.92 2.235,-0.156 3.901,0.286 4.998,1.328 1.098,1.042 1.633,2.309 1.607,3.802 -0.026,1.493 -0.611,3.026 -1.755,4.597 -1.14,1.384 -2.924,2.348 -5.351,2.89 -7.848,2.04 -14.756,3.549 -20.724,4.525 -5.969,0.977 -11.848,2.134 -17.637,3.47 -5.599,1.138 -11.865,3.16 -18.798,6.068 l -0.005,0.28 c -2.999,1.328 -5.912,3.023 -8.738,5.085 -2.822,1.875 -6.295,3.702 -10.418,5.482 -1.124,0.451 -1.965,0.697 -2.524,0.736 z m 186.274,-20.296 c -2.427,0.543 -4.374,0.213 -5.841,-0.989 -1.277,-1.402 -1.899,-3.036 -1.866,-4.903 0.026,-1.493 0.516,-2.925 1.47,-4.297 1.144,-1.571 2.743,-2.615 4.798,-3.131 1.869,-0.504 5.693,-1.144 11.472,-1.921 5.782,-0.964 12.308,-1.886 19.577,-2.767 7.455,-0.894 14.255,-1.556 20.4,-1.986 6.517,-0.456 11.447,-0.521 14.789,-0.195 2.783,0.364 4.163,1.2 4.14,2.506 -0.023,1.307 -1.165,2.785 -3.426,4.434 -2.257,1.463 -4.97,2.398 -8.139,2.806 -8.011,0.747 -15.935,1.86 -23.772,3.34 -7.651,1.467 -14.464,2.876 -20.439,4.226 -5.972,1.163 -10.36,2.122 -13.163,2.877 z m 140.435,66.514 c -2.607,0.182 -5.105,-0.575 -7.492,-2.272 -2.392,-1.511 -3.548,-4.506 -3.469,-8.985 0.01,-0.56 0.022,-1.213 0.035,-1.96 0.01,-0.559 0.114,-1.219 0.314,-1.979 4.504,-23.429 10.373,-45.09 17.605,-64.982 7.418,-19.905 14.985,-37.677 22.7,-53.316 7.715,-15.638 14.268,-28.679 19.66,-39.122 1.539,-2.904 3.53,-5.093 5.974,-6.569 2.633,-1.676 5.067,-2.591 7.302,-2.748 3.538,-0.247 5.563,0.916 6.076,3.49 3.564,-1.74 7.12,-3.014 10.668,-3.822 2.613,-0.555 5.225,-1.017 7.836,-1.386 2.799,-0.569 5.596,-0.951 8.389,-1.146 7.262,-0.508 14.041,0.043 20.336,1.653 6.481,1.598 11.727,4.679 15.738,9.246 4.015,4.379 5.946,10.861 5.795,19.447 -0.168,9.518 -3.292,17.939 -9.373,25.261 -6.08,7.322 -14.01,14.028 -23.788,20.118 -9.589,5.89 -19.921,11.738 -30.996,17.546 -5.257,2.791 -11.438,5.273 -18.544,7.448 -7.102,1.988 -13.919,3.583 -20.449,4.785 -6.341,1.003 -11.374,1.634 -15.098,1.895 -1.363,3.45 -2.629,6.708 -3.799,9.772 -1.17,3.065 -2.244,5.936 -3.221,8.614 -0.977,2.678 -1.969,6.196 -2.976,10.554 -1.003,4.171 -1.918,8.615 -2.745,13.333 -0.828,4.718 -1.46,8.957 -1.898,12.716 -0.435,3.572 -0.666,6.104 -0.692,7.597 -0.02,1.12 0.703,2.281 2.17,3.484 1.65,1.375 2.46,2.903 2.43,4.583 -0.03,1.68 -1.082,3.338 -3.156,4.974 -1.507,1.038 -3.284,1.628 -5.332,1.771 z m 30.309,-89.358 c 3.352,-0.235 8.017,-1.12 13.996,-2.656 5.982,-1.724 13.85,-4.977 23.606,-9.76 17.452,-8.863 31.375,-17.945 41.768,-27.247 10.583,-9.501 15.298,-18.499 14.146,-26.993 0.069,-3.919 -1.546,-7.255 -4.845,-10.007 -3.299,-2.751 -7.727,-4.772 -13.284,-6.061 -5.367,-1.489 -11.31,-2.005 -17.827,-1.55 -3.352,0.235 -6.895,0.762 -10.629,1.583 -2.048,0.143 -3.644,1 -4.788,2.571 -1.14,1.385 -2.563,2.976 -4.269,4.772 -1.519,1.784 -4.059,3.453 -7.62,5.007 -1.124,0.452 -1.965,0.697 -2.524,0.736 -3.071,5.434 -6.63,12.114 -10.675,20.04 -3.856,7.725 -7.813,15.924 -11.872,24.597 -3.869,8.472 -7.55,16.838 -11.043,25.098 0.558,-0.039 1.302,0.002 2.229,0.124 1.118,-0.078 2.328,-0.163 3.631,-0.254 z m 176.129,70.449 c -2.986,0.581 -5.302,0.091 -6.948,-1.472 -1.464,-1.389 -2.179,-3.016 -2.146,-4.883 0.026,-1.493 0.516,-2.925 1.471,-4.297 1.137,-1.198 2.733,-2.055 4.787,-2.571 4.855,-1.085 10.93,-2.815 18.225,-5.189 7.48,-2.388 15.16,-5.348 23.03,-8.881 8.07,-3.733 15.4,-8.16 22,-13.281 8.48,-6.559 15.38,-12.82 20.69,-18.784 5.32,-5.963 9.62,-12.975 12.93,-21.035 0.97,-2.492 1.47,-4.391 1.49,-5.697 0.04,-2.24 -0.95,-4.128 -2.97,-5.664 -1.83,-1.55 -4.57,-4.061 -8.23,-7.533 -3.66,-3.473 -7.81,-5.513 -12.45,-6.12 -4.45,-0.807 -10.57,-1.871 -18.35,-3.19 -5.19,-1.129 -10.01,-2.003 -14.46,-2.624 -4.27,-0.634 -8.27,-0.82 -11.99,-0.56 -2.24,0.156 -3.99,-0.467 -5.27,-1.869 -1.28,-1.402 -1.9,-3.036 -1.86,-4.902 0.05,-3.173 1.58,-5.237 4.57,-6.192 3.18,-1.154 6.93,-2.628 11.23,-4.42 4.5,-1.806 9,-3.892 13.51,-6.257 4.5,-2.366 8.45,-5.065 11.86,-8.099 3.4,-3.034 5.59,-6.357 6.59,-9.968 0.4,-1.706 0.71,-3.218 0.91,-4.538 0.4,-1.519 0.61,-2.932 0.64,-4.238 0.09,-5.0396 -1.62,-8.742 -5.11,-11.1075 -3.3,-2.3785 -8.11,-4.2796 -14.4,-5.7033 -2.41,-0.5773 -4.92,-0.7748 -7.53,-0.5925 -1.86,0.1302 -3.82,0.5469 -5.88,1.2501 -1.86,0.5035 -4.39,1.3325 -7.57,2.487 -1.49,0.1042 -2.99,0.675 -4.5,1.7123 -1.5,1.0374 -3.57,2.3004 -6.2,3.7892 -0.56,0.2257 -1.12,0.4514 -1.69,0.6771 -0.554,0.0391 -1.113,0.0781 -1.672,0.1172 -2.42,0.1693 -4.455,-0.434 -6.105,-1.81 -1.463,-1.3889 -2.179,-3.0165 -2.146,-4.8829 0.046,-2.6129 1.662,-4.59 4.847,-5.9312 1.872,-0.6901 3.656,-1.6537 5.356,-2.8907 1.88,-1.25 4.32,-2.4458 7.31,-3.5874 3,-1.1415 5.99,-2.0964 8.98,-2.8646 2.99,-0.7683 6.07,-1.2631 9.23,-1.4844 2.05,-0.1433 4,-0.0934 5.86,0.1497 2.04,0.0434 4.18,0.1736 6.41,0.3906 7.97,1.3065 15.08,4.4446 21.31,9.4144 6.42,4.9567 9.56,11.7278 9.41,20.3129 -0.03,1.867 -0.26,3.839 -0.66,5.918 -0.22,1.88 -0.82,3.879 -1.78,5.997 -2.54,6.515 -6.45,12.101 -11.74,16.758 -5.1,4.458 -10.56,8.288 -16.38,11.491 0.37,-0.026 0.93,0.028 1.67,0.163 0.74,0.135 1.48,0.269 2.23,0.404 6.3,1.237 12.69,2.374 19.19,3.411 6.68,0.838 12.85,4.041 18.52,9.61 1.64,1.562 3.66,3.379 6.04,5.449 2.38,1.884 4.48,4.254 6.29,7.11 1.81,2.856 2.68,6.244 2.61,10.163 -0.02,1.306 -0.24,2.813 -0.64,4.518 -0.21,1.693 -0.8,3.505 -1.77,5.437 -4.06,9.045 -9.23,17.235 -15.5,24.571 -6.08,7.322 -13.74,14.568 -22.98,21.739 -7.91,5.959 -16.37,10.931 -25.37,14.915 -8.81,4.159 -17.24,7.451 -25.28,9.877 -7.851,2.413 -14.392,4.176 -19.619,5.287 z m -33.597,6.823 c -3.352,0.234 -6.682,-0.745 -9.991,-2.936 -3.313,-2.006 -4.644,-5.641 -3.993,-10.906 0.661,-5.825 2.565,-13.6 5.712,-23.327 3.333,-9.74 7.332,-20.272 11.995,-31.596 4.666,-11.511 9.612,-23.041 14.837,-34.591 5.415,-11.75 10.627,-22.553 15.636,-32.41 5.196,-9.87 9.617,-18.008 13.264,-24.415 1.728,-3.103 4.366,-4.779 7.896,-5.026 2.05,-0.143 3.9,0.473 5.55,1.849 1.65,1.376 2.27,3.383 1.85,6.022 v -0.28 c -0.22,1.88 -1.01,4.825 -2.39,8.835 -1.37,4.011 -2.82,7.188 -4.35,9.532 -2.1,3.129 -4.67,6.385 -7.703,9.766 -3.032,3.194 -5.703,7.016 -8.013,11.465 -7.117,13.36 -13.579,26.487 -19.386,39.383 -5.617,12.695 -10.192,24.293 -13.725,34.792 -3.529,10.313 -5.631,18.755 -6.305,25.327 -0.209,1.319 0.325,2.68 1.602,4.082 1.464,1.389 2.834,2.784 4.111,4.186 1.463,1.389 2.182,2.83 2.156,4.323 -0.024,1.307 -1.071,2.685 -3.142,4.134 -1.506,1.038 -3.377,1.635 -5.611,1.791 z m 313.066,-24.688 c -3.16,0.221 -4.72,-1.255 -4.66,-4.427 0.03,-2.053 0.63,-4.332 1.79,-6.837 1.16,-2.317 1.64,-3.47 1.46,-3.457 0,-0.186 0,-0.373 0.01,-0.56 0.18,-0.013 0.28,-0.112 0.28,-0.299 0.02,-1.12 -1.07,-2.535 -3.27,-4.245 -3.85,-3.273 -8.83,-5.254 -14.96,-5.944 -5.94,-0.703 -12.63,-1.168 -20.06,-1.393 -1.3,-0.096 -2.51,-0.105 -3.63,-0.027 -1.12,0.079 -2.33,0.163 -3.63,0.254 -8.01,0.56 -16.31,2.166 -24.91,4.818 -8.6,2.652 -17.22,5.864 -25.84,9.636 0.73,0.881 1.27,1.775 1.63,2.682 0.54,0.894 0.8,1.808 0.79,2.741 -0.03,1.68 -0.99,3.145 -2.87,4.395 -1.32,1.024 -2.91,1.602 -4.77,1.732 -1.68,0.117 -3.44,-0.133 -5.29,-0.749 -1.66,-0.629 -3.13,-1.738 -4.41,-3.327 -2.44,1.289 -4.88,2.578 -7.32,3.867 -2.44,1.476 -4.79,2.945 -7.05,4.408 v 0.28 c -0.19,0.2 -0.47,0.313 -0.85,0.339 -0.74,0.052 -1.38,-0.556 -1.92,-1.823 -0.54,-1.081 -0.79,-2.275 -0.77,-3.581 0.02,-1.307 0.32,-2.539 0.9,-3.698 0.39,-1.146 1.25,-2.045 2.56,-2.696 2.25,-1.089 4.41,-2.079 6.47,-2.968 2.06,-1.077 4.03,-2.053 5.91,-2.93 l -0.27,-0.821 c 0.46,-5.065 1.79,-11.682 3.98,-19.85 2.38,-8.182 5.33,-17.336 8.85,-27.462 3.72,-10.326 7.72,-20.858 12,-31.596 4.28,-10.925 8.56,-21.477 12.83,-31.655 4.46,-10.378 8.62,-19.71 12.49,-27.9955 3.87,-8.4725 7.15,-15.3195 9.85,-20.541 1.73,-3.1034 4.08,-4.7592 7.06,-4.9676 1.68,-0.1172 3.15,0.4319 4.43,1.6472 1.29,1.0287 1.91,2.6628 1.87,4.9025 -0.01,0.7466 -0.32,2.3525 -0.92,4.8179 -0.42,2.4523 -1.11,5.0175 -2.09,7.6955 -0.79,2.665 -1.67,4.8699 -2.63,6.6148 -1.91,3.1164 -4.2,6.3522 -6.86,9.7072 -2.67,3.355 -5.06,7.251 -7.18,11.687 -4.64,9.831 -9.29,20.128 -13.94,30.893 -4.47,10.751 -8.65,21.389 -12.56,31.915 -3.71,10.325 -6.85,19.679 -9.42,28.06 -2.38,8.369 -3.89,15.092 -4.54,20.17 3.75,-1.94 7.69,-3.8 11.82,-5.579 4.12,-1.78 8.52,-3.392 13.19,-4.838 5.8,-1.71 10.93,-2.908 15.41,-3.594 4.66,-0.885 9.14,-1.478 13.42,-1.777 5.22,-0.365 10.7,-0.469 16.47,-0.313 7.06,0.252 13.66,0.537 19.79,0.853 6.13,0.317 11.5,1.899 16.1,4.747 0,0 0.92,0.401 2.76,1.204 2.04,0.79 3.69,2.073 4.96,3.848 0.54,1.081 0.79,2.461 0.76,4.141 -0.02,1.306 -0.14,2.619 -0.35,3.939 -0.2,1.132 -0.5,2.272 -0.89,3.418 -0.4,1.519 -0.8,3.225 -1.21,5.117 -0.41,1.892 -1.37,3.637 -2.88,5.234 -1.33,1.585 -2.93,2.629 -4.8,3.132 -1.69,0.677 -2.71,1.029 -3.09,1.055 z"
           fill="#45d5b6"
           fill-opacity="0.16"
           style="mix-blend-mode:multiply"
           shape-rendering="crispEdges"
           id="path3" /></g><g
         filter="url(#filter2_d_0_1)"
         id="g4"><path
           d="m 362.599,243.275 29.089,-2.034 c 9.816,-0.686 17.132,1.439 21.947,6.375 4.815,4.936 7.132,12.503 6.952,22.701 l -0.219,12.418 c -0.179,10.199 -2.77,18.109 -7.771,23.731 -5.001,5.623 -12.41,8.777 -22.226,9.464 l -9.337,0.653 -0.904,51.292 -19.752,1.381 z m 28.09,54.657 c 3.232,-0.226 5.642,-1.293 7.23,-3.201 1.707,-1.917 2.599,-5.035 2.675,-9.355 l 0.264,-14.937 c 0.076,-4.32 -0.708,-7.321 -2.352,-9.003 -1.525,-1.691 -3.903,-2.424 -7.135,-2.198 l -9.337,0.653 -0.682,38.694 z m 68.109,-61.384 29.268,-2.046 c 10.176,-0.712 17.555,1.169 22.139,5.642 4.586,4.353 6.793,11.448 6.619,21.287 l -0.136,7.738 c -0.231,13.078 -4.686,21.658 -13.367,25.741 l -0.006,0.36 c 4.763,1.105 8.063,3.81 9.9,8.115 1.957,4.297 2.87,10.165 2.738,17.604 l -0.39,22.136 c -0.063,3.6 0.005,6.531 0.204,8.794 0.201,2.143 0.762,4.261 1.681,6.353 l -20.111,1.407 c -0.682,-1.99 -1.127,-3.876 -1.335,-5.659 -0.207,-1.783 -0.27,-5.014 -0.187,-9.693 l 0.406,-23.037 c 0.101,-5.759 -0.786,-9.711 -2.661,-11.857 -1.755,-2.154 -4.907,-3.072 -9.456,-2.754 l -6.824,0.477 -0.951,53.992 -19.752,1.381 z m 25.982,52.109 c 3.951,-0.277 6.901,-1.502 8.853,-3.675 2.071,-2.182 3.148,-5.673 3.233,-10.472 l 0.171,-9.718 c 0.081,-4.56 -0.699,-7.801 -2.339,-9.723 -1.52,-1.931 -4.016,-2.775 -7.488,-2.532 l -8.978,0.627 -0.634,35.995 z m 73.373,-59.056 53.868,-3.767 -0.317,17.997 -34.117,2.386 -0.587,33.295 27.114,-1.896 -0.317,17.997 -27.114,1.896 -0.682,38.694 34.117,-2.386 -0.318,17.997 -53.868,3.767 z m 88.341,47.748 39.503,-2.763 -0.317,17.997 -39.504,2.763 z m 79.156,-59.461 29.089,-2.034 c 9.816,-0.686 17.132,1.439 21.947,6.375 4.815,4.936 7.132,12.503 6.952,22.701 l -0.219,12.418 c -0.179,10.199 -2.77,18.109 -7.771,23.731 -5.001,5.623 -12.41,8.777 -22.226,9.464 l -9.337,0.653 -0.904,51.292 -19.752,1.381 z m 28.09,54.657 c 3.232,-0.226 5.642,-1.293 7.23,-3.201 1.707,-1.917 2.599,-5.035 2.675,-9.355 l 0.264,-14.937 c 0.076,-4.32 -0.708,-7.321 -2.352,-9.003 -1.525,-1.691 -3.903,-2.424 -7.135,-2.198 l -9.337,0.653 -0.683,38.694 z m 68.109,-61.384 29.807,-2.084 c 10.175,-0.711 17.555,1.169 22.139,5.642 4.586,4.353 6.792,11.448 6.619,21.287 l -0.089,5.039 c -0.114,6.479 -1.285,11.834 -3.511,16.064 -2.107,4.221 -5.331,7.383 -9.673,9.484 l -0.006,0.36 c 9.757,2.673 14.51,11.088 14.261,25.246 l -0.191,10.798 c -0.171,9.719 -2.876,17.338 -8.114,22.857 -5.117,5.391 -12.583,8.429 -22.399,9.116 l -31.064,2.172 z m 26.568,49.371 c 3.951,-0.276 6.902,-1.501 8.853,-3.674 2.071,-2.182 3.149,-5.673 3.233,-10.472 l 0.124,-7.019 c 0.08,-4.559 -0.699,-7.8 -2.339,-9.723 -1.521,-1.931 -4.016,-2.775 -7.488,-2.532 l -9.517,0.665 -0.587,33.295 z m 2.592,56.44 c 3.472,-0.242 6.061,-1.322 7.769,-3.239 1.71,-2.037 2.605,-5.335 2.685,-9.894 l 0.194,-10.979 c 0.101,-5.759 -0.846,-9.647 -2.843,-11.664 -1.876,-2.146 -5.088,-3.06 -9.636,-2.742 l -8.799,0.616 -0.682,38.693 z m 70.37,-112.77 19.752,-1.382 -1.904,107.984 32.501,-2.273 -0.317,17.997 -52.253,3.654 z"
           fill="#ffffff"
           id="path4" /></g><g
         filter="url(#filter3_d_0_1)"
         id="g5"><path
           d="m 362.599,243.275 29.089,-2.034 c 9.816,-0.686 17.132,1.439 21.947,6.375 4.815,4.936 7.132,12.503 6.952,22.701 l -0.219,12.418 c -0.179,10.199 -2.77,18.109 -7.771,23.731 -5.001,5.623 -12.41,8.777 -22.226,9.464 l -9.337,0.653 -0.904,51.292 -19.752,1.381 z m 28.09,54.657 c 3.232,-0.226 5.642,-1.293 7.23,-3.201 1.707,-1.917 2.599,-5.035 2.675,-9.355 l 0.264,-14.937 c 0.076,-4.32 -0.708,-7.321 -2.352,-9.003 -1.525,-1.691 -3.903,-2.424 -7.135,-2.198 l -9.337,0.653 -0.682,38.694 z m 68.109,-61.384 29.268,-2.046 c 10.176,-0.712 17.555,1.169 22.139,5.642 4.586,4.353 6.793,11.448 6.619,21.287 l -0.136,7.738 c -0.231,13.078 -4.686,21.658 -13.367,25.741 l -0.006,0.36 c 4.763,1.105 8.063,3.81 9.9,8.115 1.957,4.297 2.87,10.165 2.738,17.604 l -0.39,22.136 c -0.063,3.6 0.005,6.531 0.204,8.794 0.201,2.143 0.762,4.261 1.681,6.353 l -20.111,1.407 c -0.682,-1.99 -1.127,-3.876 -1.335,-5.659 -0.207,-1.783 -0.27,-5.014 -0.187,-9.693 l 0.406,-23.037 c 0.101,-5.759 -0.786,-9.711 -2.661,-11.857 -1.755,-2.154 -4.907,-3.072 -9.456,-2.754 l -6.824,0.477 -0.951,53.992 -19.752,1.381 z m 25.982,52.109 c 3.951,-0.277 6.901,-1.502 8.853,-3.675 2.071,-2.182 3.148,-5.673 3.233,-10.472 l 0.171,-9.718 c 0.081,-4.56 -0.699,-7.801 -2.339,-9.723 -1.52,-1.931 -4.016,-2.775 -7.488,-2.532 l -8.978,0.627 -0.634,35.995 z m 73.373,-59.056 53.868,-3.767 -0.317,17.997 -34.117,2.386 -0.587,33.295 27.114,-1.896 -0.317,17.997 -27.114,1.896 -0.682,38.694 34.117,-2.386 -0.318,17.997 -53.868,3.767 z m 88.341,47.748 39.503,-2.763 -0.317,17.997 -39.504,2.763 z m 79.156,-59.461 29.089,-2.034 c 9.816,-0.686 17.132,1.439 21.947,6.375 4.815,4.936 7.132,12.503 6.952,22.701 l -0.219,12.418 c -0.179,10.199 -2.77,18.109 -7.771,23.731 -5.001,5.623 -12.41,8.777 -22.226,9.464 l -9.337,0.653 -0.904,51.292 -19.752,1.381 z m 28.09,54.657 c 3.232,-0.226 5.642,-1.293 7.23,-3.201 1.707,-1.917 2.599,-5.035 2.675,-9.355 l 0.264,-14.937 c 0.076,-4.32 -0.708,-7.321 -2.352,-9.003 -1.525,-1.691 -3.903,-2.424 -7.135,-2.198 l -9.337,0.653 -0.683,38.694 z m 68.109,-61.384 29.807,-2.084 c 10.175,-0.711 17.555,1.169 22.139,5.642 4.586,4.353 6.792,11.448 6.619,21.287 l -0.089,5.039 c -0.114,6.479 -1.285,11.834 -3.511,16.064 -2.107,4.221 -5.331,7.383 -9.673,9.484 l -0.006,0.36 c 9.757,2.673 14.51,11.088 14.261,25.246 l -0.191,10.798 c -0.171,9.719 -2.876,17.338 -8.114,22.857 -5.117,5.391 -12.583,8.429 -22.399,9.116 l -31.064,2.172 z m 26.568,49.371 c 3.951,-0.276 6.902,-1.501 8.853,-3.674 2.071,-2.182 3.149,-5.673 3.233,-10.472 l 0.124,-7.019 c 0.08,-4.559 -0.699,-7.8 -2.339,-9.723 -1.521,-1.931 -4.016,-2.775 -7.488,-2.532 l -9.517,0.665 -0.587,33.295 z m 2.592,56.44 c 3.472,-0.242 6.061,-1.322 7.769,-3.239 1.71,-2.037 2.605,-5.335 2.685,-9.894 l 0.194,-10.979 c 0.101,-5.759 -0.846,-9.647 -2.843,-11.664 -1.876,-2.146 -5.088,-3.06 -9.636,-2.742 l -8.799,0.616 -0.682,38.693 z m 70.37,-112.77 19.752,-1.382 -1.904,107.984 32.501,-2.273 -0.317,17.997 -52.253,3.654 z"
           fill="#ffffff"
           id="path5" /></g></g></g></svg>
