<svg width="16" height="13" viewBox="0 0 16 13" fill="none" xmlns="http://www.w3.org/2000/svg">
  <path d="M15.7699 12.2076C15.616 12.4507 15.3938 12.6523 15.126 12.7915C14.8583 12.9307 14.5547 13.0027 14.2463 12.9999L1.75298 12.9999C1.44461 13.0027 1.14098 12.9307 0.873241 12.7915C0.605497 12.6523 0.383269 12.4507 0.229346 12.2076C0.079152 11.9737 0 11.7076 0 11.4367C0 11.1658 0.079152 10.8997 0.229346 10.6658L6.47459 0.794336C6.63068 0.552489 6.85353 0.351962 7.12103 0.21263C7.38854 0.0732985 7.69141 0 7.99964 0C8.30787 0 8.61075 0.0732985 8.87825 0.21263C9.14576 0.351962 9.3686 0.552489 9.5247 0.794336L15.7714 10.6658C15.9213 10.8998 16.0003 11.1659 16 11.4369C15.9998 11.7078 15.9204 11.9738 15.7699 12.2076Z" fill="#fff"/>
</svg>
