<svg width="242" height="36" viewBox="0 0 242 36" fill="none" xmlns="http://www.w3.org/2000/svg">
<path d="M43.8427 27V9.54545H50.3881C51.729 9.54545 52.854 9.79545 53.7631 10.2955C54.6779 10.7955 55.3683 11.483 55.8342 12.358C56.3058 13.2273 56.5415 14.2159 56.5415 15.3239C56.5415 16.4432 56.3058 17.4375 55.8342 18.3068C55.3626 19.1761 54.6665 19.8608 53.7461 20.3608C52.8256 20.8551 51.6921 21.1023 50.3455 21.1023H46.0075V18.5028H49.9194C50.7035 18.5028 51.3455 18.3665 51.8455 18.0938C52.3455 17.821 52.7148 17.446 52.9535 16.9688C53.1978 16.4915 53.32 15.9432 53.32 15.3239C53.32 14.7045 53.1978 14.1591 52.9535 13.6875C52.7148 13.2159 52.3427 12.8494 51.837 12.5881C51.337 12.321 50.6921 12.1875 49.9023 12.1875H47.0046V27H43.8427ZM61.5175 27V24.7159L67.5772 18.7756C68.1567 18.1903 68.6397 17.6705 69.0261 17.2159C69.4124 16.7614 69.7022 16.321 69.8954 15.8949C70.0886 15.4687 70.1852 15.0142 70.1852 14.5312C70.1852 13.9801 70.0602 13.5085 69.8102 13.1165C69.5602 12.7188 69.2164 12.4119 68.7789 12.196C68.3414 11.9801 67.8442 11.8722 67.2874 11.8722C66.7136 11.8722 66.2107 11.9915 65.7789 12.2301C65.3471 12.4631 65.0119 12.7955 64.7732 13.2273C64.5403 13.6591 64.4238 14.1733 64.4238 14.7699H61.4153C61.4153 13.6619 61.6681 12.6989 62.1738 11.8807C62.6795 11.0625 63.3755 10.429 64.2619 9.98011C65.1539 9.53125 66.1766 9.30682 67.33 9.30682C68.5005 9.30682 69.5289 9.52557 70.4153 9.96307C71.3016 10.4006 71.9891 11 72.4778 11.7614C72.9721 12.5227 73.2192 13.392 73.2192 14.3693C73.2192 15.0227 73.0942 15.6648 72.8442 16.2955C72.5942 16.9261 72.1539 17.625 71.5232 18.392C70.8982 19.1591 70.0204 20.0881 68.8897 21.179L65.8812 24.2386V24.358H73.4835V27H61.5175ZM78.9942 27V9.54545H82.1562V16.9347H90.2442V9.54545H93.4147V27H90.2442V19.5852H82.1562V27H78.9942ZM101.495 27H98.1201L104.265 9.54545H108.168L114.322 27H110.947L106.285 13.125H106.149L101.495 27ZM101.606 20.1562H110.81V22.696H101.606V20.1562ZM133.141 15.4347H129.953C129.862 14.9119 129.695 14.4489 129.45 14.0455C129.206 13.6364 128.902 13.2898 128.539 13.0057C128.175 12.7216 127.76 12.5085 127.294 12.3665C126.834 12.2188 126.337 12.1449 125.803 12.1449C124.854 12.1449 124.013 12.3835 123.28 12.8608C122.547 13.3324 121.973 14.0256 121.558 14.9403C121.144 15.8494 120.936 16.9602 120.936 18.2727C120.936 19.608 121.144 20.733 121.558 21.6477C121.979 22.5568 122.553 23.2443 123.28 23.7102C124.013 24.1705 124.851 24.4006 125.794 24.4006C126.317 24.4006 126.806 24.3324 127.26 24.196C127.72 24.054 128.132 23.8466 128.496 23.5739C128.865 23.3011 129.175 22.9659 129.425 22.5682C129.681 22.1705 129.857 21.7159 129.953 21.2045L133.141 21.2216C133.022 22.0511 132.763 22.8295 132.365 23.5568C131.973 24.2841 131.459 24.9261 130.823 25.483C130.186 26.0341 129.442 26.4659 128.59 26.7784C127.737 27.0852 126.791 27.2386 125.752 27.2386C124.218 27.2386 122.848 26.8835 121.644 26.1733C120.439 25.4631 119.49 24.4375 118.797 23.0966C118.104 21.7557 117.757 20.1477 117.757 18.2727C117.757 16.392 118.107 14.7841 118.806 13.4489C119.504 12.108 120.456 11.0824 121.661 10.3722C122.865 9.66193 124.229 9.30682 125.752 9.30682C126.723 9.30682 127.627 9.44318 128.462 9.71591C129.297 9.98864 130.041 10.3892 130.695 10.9176C131.348 11.4403 131.885 12.0824 132.306 12.8438C132.732 13.5994 133.01 14.4631 133.141 15.4347ZM138.436 27V9.54545H141.598V17.5653H141.811L148.621 9.54545H152.482L145.732 17.3778L152.542 27H148.74L143.533 19.517L141.598 21.8011V27H138.436ZM166.471 14.3438C166.391 13.5994 166.056 13.0199 165.465 12.6051C164.88 12.1903 164.118 11.983 163.181 11.983C162.522 11.983 161.956 12.0824 161.485 12.2812C161.013 12.4801 160.652 12.75 160.402 13.0909C160.152 13.4318 160.025 13.821 160.019 14.2585C160.019 14.6222 160.101 14.9375 160.266 15.2045C160.437 15.4716 160.667 15.6989 160.956 15.8864C161.246 16.0682 161.567 16.2216 161.92 16.3466C162.272 16.4716 162.627 16.5767 162.985 16.6619L164.621 17.071C165.28 17.2244 165.914 17.4318 166.522 17.6932C167.135 17.9545 167.684 18.2841 168.167 18.6818C168.655 19.0795 169.042 19.5597 169.326 20.1222C169.61 20.6847 169.752 21.3437 169.752 22.0994C169.752 23.1222 169.491 24.0227 168.968 24.8011C168.445 25.5739 167.689 26.179 166.701 26.6165C165.718 27.0483 164.527 27.2642 163.13 27.2642C161.772 27.2642 160.593 27.054 159.593 26.6335C158.599 26.2131 157.82 25.5994 157.258 24.7926C156.701 23.9858 156.4 23.0028 156.354 21.8438H159.465C159.51 22.4517 159.698 22.9574 160.027 23.3608C160.357 23.7642 160.786 24.0653 161.314 24.2642C161.849 24.4631 162.445 24.5625 163.104 24.5625C163.792 24.5625 164.394 24.4602 164.911 24.2557C165.434 24.0455 165.843 23.7557 166.138 23.3864C166.434 23.0114 166.584 22.5739 166.59 22.0739C166.584 21.6193 166.451 21.2443 166.189 20.9489C165.928 20.6477 165.562 20.3977 165.09 20.1989C164.624 19.9943 164.079 19.8125 163.454 19.6534L161.468 19.142C160.03 18.7727 158.894 18.2131 158.059 17.4631C157.229 16.7074 156.814 15.7045 156.814 14.4545C156.814 13.4261 157.093 12.5256 157.65 11.7528C158.212 10.9801 158.976 10.3807 159.942 9.95454C160.908 9.52273 162.002 9.30682 163.224 9.30682C164.462 9.30682 165.547 9.52273 166.479 9.95454C167.417 10.3807 168.152 10.9744 168.687 11.7358C169.221 12.4915 169.496 13.3608 169.513 14.3438H166.471ZM174.8 27V24.7159L180.86 18.7756C181.44 18.1903 181.923 17.6705 182.309 17.2159C182.695 16.7614 182.985 16.321 183.178 15.8949C183.371 15.4687 183.468 15.0142 183.468 14.5312C183.468 13.9801 183.343 13.5085 183.093 13.1165C182.843 12.7188 182.499 12.4119 182.062 12.196C181.624 11.9801 181.127 11.8722 180.57 11.8722C179.996 11.8722 179.494 11.9915 179.062 12.2301C178.63 12.4631 178.295 12.7955 178.056 13.2273C177.823 13.6591 177.707 14.1733 177.707 14.7699H174.698C174.698 13.6619 174.951 12.6989 175.457 11.8807C175.962 11.0625 176.658 10.429 177.545 9.98011C178.437 9.53125 179.459 9.30682 180.613 9.30682C181.783 9.30682 182.812 9.52557 183.698 9.96307C184.584 10.4006 185.272 11 185.761 11.7614C186.255 12.5227 186.502 13.392 186.502 14.3693C186.502 15.0227 186.377 15.6648 186.127 16.2955C185.877 16.9261 185.437 17.625 184.806 18.392C184.181 19.1591 183.303 20.0881 182.173 21.179L179.164 24.2386V24.358H186.766V27H174.8ZM198.558 27.3324C197.155 27.3324 195.95 26.9773 194.945 26.267C193.945 25.5511 193.175 24.5199 192.635 23.1733C192.101 21.821 191.834 20.1932 191.834 18.2898C191.84 16.3864 192.109 14.767 192.644 13.4318C193.183 12.0909 193.953 11.0682 194.953 10.3636C195.959 9.65909 197.161 9.30682 198.558 9.30682C199.956 9.30682 201.158 9.65909 202.163 10.3636C203.169 11.0682 203.939 12.0909 204.473 13.4318C205.013 14.7727 205.283 16.392 205.283 18.2898C205.283 20.1989 205.013 21.8295 204.473 23.1818C203.939 24.5284 203.169 25.5568 202.163 26.267C201.163 26.9773 199.962 27.3324 198.558 27.3324ZM198.558 24.6648C199.649 24.6648 200.51 24.1278 201.141 23.054C201.777 21.9744 202.095 20.3864 202.095 18.2898C202.095 16.9034 201.95 15.7386 201.661 14.7955C201.371 13.8523 200.962 13.142 200.433 12.6648C199.905 12.1818 199.28 11.9403 198.558 11.9403C197.473 11.9403 196.615 12.4801 195.984 13.5597C195.354 14.6335 195.036 16.2102 195.03 18.2898C195.024 19.6818 195.163 20.8523 195.448 21.8011C195.737 22.75 196.146 23.4659 196.675 23.9489C197.203 24.4261 197.831 24.6648 198.558 24.6648ZM210.514 27V24.7159L216.574 18.7756C217.154 18.1903 217.637 17.6705 218.023 17.2159C218.409 16.7614 218.699 16.321 218.892 15.8949C219.085 15.4687 219.182 15.0142 219.182 14.5312C219.182 13.9801 219.057 13.5085 218.807 13.1165C218.557 12.7188 218.213 12.4119 217.776 12.196C217.338 11.9801 216.841 11.8722 216.284 11.8722C215.71 11.8722 215.208 11.9915 214.776 12.2301C214.344 12.4631 214.009 12.7955 213.77 13.2273C213.537 13.6591 213.421 14.1733 213.421 14.7699H210.412C210.412 13.6619 210.665 12.6989 211.171 11.8807C211.676 11.0625 212.372 10.429 213.259 9.98011C214.151 9.53125 215.174 9.30682 216.327 9.30682C217.497 9.30682 218.526 9.52557 219.412 9.96307C220.299 10.4006 220.986 11 221.475 11.7614C221.969 12.5227 222.216 13.392 222.216 14.3693C222.216 15.0227 222.091 15.6648 221.841 16.2955C221.591 16.9261 221.151 17.625 220.52 18.392C219.895 19.1591 219.017 20.0881 217.887 21.179L214.878 24.2386V24.358H222.48V27H210.514ZM227.13 23.7614V21.2472L234.537 9.54545H236.633V13.125H235.355L230.369 21.0256V21.1619H240.707V23.7614H227.13ZM235.457 27V22.9943L235.491 21.8693V9.54545H238.474V27H235.457Z" fill="white" style="mix-blend-mode:screen"/>
<path d="M26.7279 12.6233C25.7018 12.9214 24.6267 12.3371 24.3267 11.3186C24.0264 10.3001 24.615 9.2329 25.641 8.93511C26.6671 8.63698 27.7421 9.22121 28.042 10.2398C28.0425 10.2406 28.0425 10.2415 28.043 10.2425C28.3414 11.26 27.7529 12.326 26.7279 12.6233ZM6.39545 27.0409C5.36939 27.339 4.29432 26.7548 3.99434 25.7363C3.69418 24.7177 4.28256 23.6507 5.30862 23.3529C5.3095 23.3524 5.3102 23.3521 5.31108 23.3521C6.33117 23.0522 7.40307 23.6296 7.70534 24.6424C7.70674 24.6473 7.70832 24.6522 7.70973 24.6576C8.00989 25.6761 7.42133 26.7433 6.39545 27.0409ZM31.7626 9.15339C31.7623 9.15165 31.7617 9.14991 31.7614 9.14799C30.859 6.09063 27.6306 4.33844 24.5502 5.23424C24.0956 5.36639 23.6707 5.54981 23.2778 5.77471V5.01107H20.3746V10.6134C20.3714 10.7281 20.3706 10.8432 20.3746 10.9593V14.612L11.6598 17.3338V5.01596H8.75634V18.2407L4.20897 19.661C1.11831 20.5477 -0.662802 23.7541 0.230654 26.8223C1.12429 29.8899 4.35404 31.6582 7.44487 30.7709C7.91381 30.6367 8.3522 30.4478 8.75634 30.2147V30.9642H11.6598V21.3596L20.3746 18.6396V30.9597H23.2778V17.7337L27.8252 16.3144C30.9048 15.4163 32.6678 12.2104 31.7626 9.15339Z" fill="white" style="mix-blend-mode:screen"/>
</svg>
