<svg width="582" height="474" viewBox="0 0 582 474" fill="none" xmlns="http://www.w3.org/2000/svg">
<path d="M384.21 79.3161C375.103 81.9878 365.562 76.7521 362.9 67.6245C360.234 58.4968 365.458 48.9333 374.564 46.2646C383.67 43.5929 393.212 48.8286 395.872 57.9562C395.877 57.964 395.877 57.9719 395.882 57.9812C398.53 67.0995 393.307 76.6522 384.21 79.3161ZM203.76 208.52C194.653 211.192 185.112 205.957 182.45 196.829C179.786 187.701 185.008 178.139 194.114 175.471C194.122 175.466 194.128 175.463 194.136 175.463C203.189 172.775 212.702 177.95 215.385 187.026C215.397 187.07 215.411 187.114 215.424 187.162C218.088 196.29 212.864 205.853 203.76 208.52ZM428.893 48.2208C428.89 48.2052 428.885 48.1895 428.882 48.1724C420.873 20.7737 392.222 5.07141 364.883 13.0991C360.849 14.2834 357.078 15.9271 353.591 17.9426V11.0992H327.825V61.3045C327.797 62.3326 327.789 63.3638 327.825 64.4043V97.1386L250.48 121.53V11.143H224.712V129.657L184.355 142.385C156.925 150.331 141.118 179.066 149.047 206.561C156.978 234.052 185.642 249.898 213.073 241.947C217.235 240.744 221.126 239.052 224.712 236.963V243.68H250.48V157.607L327.825 133.232V243.639H353.591V125.114L393.949 112.394C421.28 104.346 436.927 75.6163 428.893 48.2208Z" fill="white" style="mix-blend-mode:difference"/>
<path d="M88.2055 331V284.455H106.569C110.099 284.455 113.107 285.129 115.592 286.477C118.077 287.811 119.971 289.667 121.274 292.045C122.592 294.409 123.251 297.136 123.251 300.227C123.251 303.318 122.584 306.045 121.251 308.409C119.918 310.773 117.986 312.614 115.455 313.932C112.94 315.25 109.895 315.909 106.319 315.909H94.6145V308.023H104.728C106.622 308.023 108.183 307.697 109.41 307.045C110.652 306.379 111.577 305.462 112.183 304.295C112.804 303.114 113.115 301.758 113.115 300.227C113.115 298.682 112.804 297.333 112.183 296.182C111.577 295.015 110.652 294.114 109.41 293.477C108.168 292.826 106.592 292.5 104.683 292.5H98.0464V331H88.2055ZM146.65 331V323.909L163.218 308.568C164.628 307.205 165.809 305.977 166.764 304.886C167.734 303.795 168.468 302.727 168.968 301.682C169.468 300.621 169.718 299.477 169.718 298.25C169.718 296.886 169.408 295.712 168.787 294.727C168.165 293.727 167.317 292.962 166.241 292.432C165.165 291.886 163.946 291.614 162.582 291.614C161.158 291.614 159.915 291.902 158.855 292.477C157.794 293.053 156.976 293.879 156.4 294.955C155.824 296.03 155.537 297.311 155.537 298.795H146.196C146.196 295.75 146.885 293.106 148.264 290.864C149.643 288.621 151.574 286.886 154.059 285.659C156.544 284.432 159.408 283.818 162.65 283.818C165.984 283.818 168.885 284.409 171.355 285.591C173.84 286.758 175.771 288.379 177.15 290.455C178.529 292.53 179.218 294.909 179.218 297.591C179.218 299.348 178.87 301.083 178.173 302.795C177.491 304.508 176.271 306.409 174.514 308.5C172.756 310.576 170.279 313.068 167.082 315.977L160.287 322.636V322.955H179.832V331H146.65ZM204.515 331V284.455H214.356V303.659H234.334V284.455H244.152V331H234.334V311.773H214.356V331H204.515ZM277.568 331H267.023L283.091 284.455H295.773L311.818 331H301.273L289.614 295.091H289.25L277.568 331ZM276.909 312.705H301.818V320.386H276.909V312.705ZM373.581 300.75H363.627C363.445 299.462 363.074 298.318 362.513 297.318C361.952 296.303 361.233 295.439 360.354 294.727C359.475 294.015 358.46 293.47 357.308 293.091C356.172 292.712 354.937 292.523 353.604 292.523C351.195 292.523 349.096 293.121 347.308 294.318C345.521 295.5 344.134 297.227 343.149 299.5C342.164 301.758 341.672 304.5 341.672 307.727C341.672 311.045 342.164 313.833 343.149 316.091C344.149 318.348 345.543 320.053 347.331 321.205C349.119 322.356 351.187 322.932 353.536 322.932C354.854 322.932 356.074 322.758 357.195 322.409C358.331 322.061 359.339 321.553 360.217 320.886C361.096 320.205 361.824 319.379 362.399 318.409C362.99 317.439 363.399 316.333 363.627 315.091L373.581 315.136C373.324 317.273 372.68 319.333 371.649 321.318C370.634 323.288 369.263 325.053 367.536 326.614C365.824 328.159 363.778 329.386 361.399 330.295C359.036 331.189 356.361 331.636 353.377 331.636C349.225 331.636 345.513 330.697 342.24 328.818C338.983 326.939 336.407 324.22 334.513 320.659C332.634 317.098 331.695 312.788 331.695 307.727C331.695 302.652 332.649 298.333 334.558 294.773C336.467 291.212 339.058 288.5 342.331 286.636C345.604 284.758 349.286 283.818 353.377 283.818C356.074 283.818 358.574 284.197 360.877 284.955C363.195 285.712 365.248 286.818 367.036 288.273C368.824 289.712 370.278 291.477 371.399 293.568C372.536 295.659 373.263 298.053 373.581 300.75ZM397.918 331V284.455H407.759V304.977H408.372L425.122 284.455H436.918L419.645 305.295L437.122 331H425.35L412.6 311.864L407.759 317.773V331H397.918ZM484.198 297.841C484.016 296.008 483.236 294.583 481.857 293.568C480.478 292.553 478.607 292.045 476.243 292.045C474.637 292.045 473.281 292.273 472.175 292.727C471.069 293.167 470.221 293.78 469.63 294.568C469.054 295.356 468.766 296.25 468.766 297.25C468.736 298.083 468.91 298.811 469.289 299.432C469.683 300.053 470.221 300.591 470.902 301.045C471.584 301.485 472.372 301.871 473.266 302.205C474.16 302.523 475.115 302.795 476.13 303.023L480.312 304.023C482.342 304.477 484.206 305.083 485.902 305.841C487.599 306.598 489.069 307.53 490.312 308.636C491.554 309.742 492.516 311.045 493.198 312.545C493.895 314.045 494.251 315.765 494.266 317.705C494.251 320.553 493.524 323.023 492.084 325.114C490.66 327.189 488.599 328.803 485.902 329.955C483.221 331.091 479.986 331.659 476.198 331.659C472.44 331.659 469.168 331.083 466.38 329.932C463.607 328.78 461.44 327.076 459.88 324.818C458.334 322.545 457.524 319.735 457.448 316.386H466.971C467.077 317.947 467.524 319.25 468.312 320.295C469.115 321.326 470.183 322.106 471.516 322.636C472.865 323.152 474.387 323.409 476.084 323.409C477.751 323.409 479.198 323.167 480.425 322.682C481.668 322.197 482.63 321.523 483.312 320.659C483.993 319.795 484.334 318.803 484.334 317.682C484.334 316.636 484.024 315.758 483.402 315.045C482.796 314.333 481.902 313.727 480.721 313.227C479.554 312.727 478.122 312.273 476.425 311.864L471.357 310.591C467.433 309.636 464.334 308.144 462.062 306.114C459.789 304.083 458.66 301.348 458.675 297.909C458.66 295.091 459.41 292.629 460.925 290.523C462.456 288.417 464.554 286.773 467.221 285.591C469.887 284.409 472.918 283.818 476.312 283.818C479.766 283.818 482.781 284.409 485.357 285.591C487.948 286.773 489.963 288.417 491.402 290.523C492.842 292.629 493.584 295.068 493.63 297.841H484.198ZM203.061 401V393.909L219.63 378.568C221.039 377.205 222.221 375.977 223.175 374.886C224.145 373.795 224.88 372.727 225.38 371.682C225.88 370.621 226.13 369.477 226.13 368.25C226.13 366.886 225.819 365.712 225.198 364.727C224.577 363.727 223.728 362.962 222.652 362.432C221.577 361.886 220.357 361.614 218.993 361.614C217.569 361.614 216.327 361.902 215.266 362.477C214.205 363.053 213.387 363.879 212.811 364.955C212.236 366.03 211.948 367.311 211.948 368.795H202.607C202.607 365.75 203.296 363.106 204.675 360.864C206.054 358.621 207.986 356.886 210.471 355.659C212.955 354.432 215.819 353.818 219.061 353.818C222.395 353.818 225.296 354.409 227.766 355.591C230.251 356.758 232.183 358.379 233.561 360.455C234.94 362.53 235.63 364.909 235.63 367.591C235.63 369.348 235.281 371.083 234.584 372.795C233.902 374.508 232.683 376.409 230.925 378.5C229.168 380.576 226.69 383.068 223.493 385.977L216.698 392.636V392.955H236.243V401H203.061ZM266.744 402.023C262.835 402.008 259.471 401.045 256.653 399.136C253.85 397.227 251.691 394.462 250.176 390.841C248.676 387.22 247.933 382.864 247.949 377.773C247.949 372.697 248.699 368.371 250.199 364.795C251.714 361.22 253.873 358.5 256.676 356.636C259.494 354.758 262.85 353.818 266.744 353.818C270.638 353.818 273.986 354.758 276.789 356.636C279.608 358.515 281.774 361.242 283.289 364.818C284.805 368.379 285.555 372.697 285.539 377.773C285.539 382.879 284.782 387.242 283.267 390.864C281.767 394.485 279.615 397.25 276.812 399.159C274.009 401.068 270.653 402.023 266.744 402.023ZM266.744 393.864C269.411 393.864 271.539 392.523 273.13 389.841C274.721 387.159 275.509 383.136 275.494 377.773C275.494 374.242 275.13 371.303 274.403 368.955C273.691 366.606 272.676 364.841 271.358 363.659C270.055 362.477 268.517 361.886 266.744 361.886C264.092 361.886 261.971 363.212 260.38 365.864C258.789 368.515 257.986 372.485 257.971 377.773C257.971 381.348 258.327 384.333 259.039 386.727C259.767 389.106 260.789 390.894 262.108 392.091C263.426 393.273 264.971 393.864 266.744 393.864ZM297.676 401V393.909L314.245 378.568C315.654 377.205 316.836 375.977 317.79 374.886C318.76 373.795 319.495 372.727 319.995 371.682C320.495 370.621 320.745 369.477 320.745 368.25C320.745 366.886 320.434 365.712 319.813 364.727C319.192 363.727 318.343 362.962 317.267 362.432C316.192 361.886 314.972 361.614 313.608 361.614C312.184 361.614 310.942 361.902 309.881 362.477C308.82 363.053 308.002 363.879 307.426 364.955C306.851 366.03 306.563 367.311 306.563 368.795H297.222C297.222 365.75 297.911 363.106 299.29 360.864C300.669 358.621 302.601 356.886 305.086 355.659C307.57 354.432 310.434 353.818 313.676 353.818C317.01 353.818 319.911 354.409 322.381 355.591C324.866 356.758 326.798 358.379 328.176 360.455C329.555 362.53 330.245 364.909 330.245 367.591C330.245 369.348 329.896 371.083 329.199 372.795C328.517 374.508 327.298 376.409 325.54 378.5C323.783 380.576 321.305 383.068 318.108 385.977L311.313 392.636V392.955H330.858V401H297.676ZM341.404 392.818V385.068L360.836 354.455H367.518V365.182H363.564L351.314 384.568V384.932H378.927V392.818H341.404ZM363.745 401V390.455L363.927 387.023V354.455H373.154V401H363.745Z" fill="white" style="mix-blend-mode:difference"/>
<path d="M10.7983 459V455.818L20.642 445.619C21.6932 444.511 22.5597 443.541 23.2415 442.707C23.9328 441.865 24.4489 441.064 24.7898 440.307C25.1307 439.549 25.3011 438.744 25.3011 437.892C25.3011 436.926 25.0739 436.093 24.6193 435.392C24.1648 434.682 23.5445 434.137 22.7585 433.759C21.9725 433.37 21.0871 433.176 20.1023 433.176C19.0606 433.176 18.1515 433.389 17.375 433.815C16.5985 434.241 16.0019 434.843 15.5852 435.619C15.1686 436.396 14.9602 437.305 14.9602 438.347H10.7699C10.7699 436.576 11.1771 435.027 11.9915 433.702C12.8059 432.376 13.9233 431.348 15.3438 430.619C16.7642 429.881 18.3788 429.511 20.1875 429.511C22.0152 429.511 23.625 429.876 25.017 430.605C26.4186 431.325 27.5123 432.31 28.2983 433.56C29.0843 434.8 29.4773 436.202 29.4773 437.764C29.4773 438.844 29.2737 439.9 28.8665 440.932C28.4688 441.964 27.7727 443.115 26.7784 444.384C25.7841 445.643 24.4015 447.172 22.6307 448.972L16.8494 455.023V455.236H29.946V459H10.7983ZM49.4574 459.483C47.2131 459.473 45.2955 458.882 43.7045 457.707C42.1136 456.533 40.8968 454.824 40.054 452.58C39.2112 450.335 38.7898 447.632 38.7898 444.469C38.7898 441.315 39.2112 438.621 40.054 436.386C40.9063 434.152 42.1278 432.447 43.7188 431.273C45.3191 430.098 47.232 429.511 49.4574 429.511C51.6828 429.511 53.5909 430.103 55.1818 431.287C56.7727 432.461 57.9896 434.166 58.8324 436.401C59.6847 438.626 60.1108 441.315 60.1108 444.469C60.1108 447.641 59.6894 450.349 58.8466 452.594C58.0038 454.829 56.7869 456.538 55.196 457.722C53.6051 458.896 51.6922 459.483 49.4574 459.483ZM49.4574 455.69C51.4271 455.69 52.9659 454.729 54.0739 452.807C55.1913 450.884 55.75 448.105 55.75 444.469C55.75 442.054 55.4943 440.013 54.983 438.347C54.4811 436.67 53.7566 435.402 52.8097 434.54C51.8722 433.669 50.7547 433.233 49.4574 433.233C47.4972 433.233 45.9583 434.199 44.8409 436.131C43.7235 438.062 43.16 440.842 43.1506 444.469C43.1506 446.893 43.4015 448.943 43.9034 450.619C44.4148 452.286 45.1392 453.55 46.0767 454.412C47.0142 455.264 48.1411 455.69 49.4574 455.69ZM69.1499 459V455.818L78.9936 445.619C80.0447 444.511 80.9112 443.541 81.593 442.707C82.2843 441.865 82.8004 441.064 83.1413 440.307C83.4822 439.549 83.6527 438.744 83.6527 437.892C83.6527 436.926 83.4254 436.093 82.9709 435.392C82.5163 434.682 81.8961 434.137 81.1101 433.759C80.3241 433.37 79.4387 433.176 78.4538 433.176C77.4122 433.176 76.5031 433.389 75.7266 433.815C74.95 434.241 74.3535 434.843 73.9368 435.619C73.5201 436.396 73.3118 437.305 73.3118 438.347H69.1214C69.1214 436.576 69.5286 435.027 70.343 433.702C71.1574 432.376 72.2749 431.348 73.6953 430.619C75.1158 429.881 76.7304 429.511 78.5391 429.511C80.3667 429.511 81.9766 429.876 83.3686 430.605C84.7701 431.325 85.8639 432.31 86.6499 433.56C87.4358 434.8 87.8288 436.202 87.8288 437.764C87.8288 438.844 87.6252 439.9 87.218 440.932C86.8203 441.964 86.1243 443.115 85.13 444.384C84.1357 445.643 82.7531 447.172 80.9822 448.972L75.201 455.023V455.236H88.2976V459H69.1499ZM96.4453 453.318V449.767L109.016 429.909H111.815V435.136H110.039L101.048 449.369V449.597H118.278V453.318H96.4453ZM110.238 459V452.239L110.266 450.619V429.909H114.428V459H110.238ZM138.364 428.545L128.989 463.375H125.197L134.572 428.545H138.364ZM156.952 429.909V459H152.549V434.312H152.379L145.418 438.858V434.653L152.677 429.909H156.952ZM168.822 459V455.818L178.665 445.619C179.717 444.511 180.583 443.541 181.265 442.707C181.956 441.865 182.472 441.064 182.813 440.307C183.154 439.549 183.325 438.744 183.325 437.892C183.325 436.926 183.097 436.093 182.643 435.392C182.188 434.682 181.568 434.137 180.782 433.759C179.996 433.37 179.111 433.176 178.126 433.176C177.084 433.176 176.175 433.389 175.398 433.815C174.622 434.241 174.025 434.843 173.609 435.619C173.192 436.396 172.984 437.305 172.984 438.347H168.793C168.793 436.576 169.201 435.027 170.015 433.702C170.829 432.376 171.947 431.348 173.367 430.619C174.788 429.881 176.402 429.511 178.211 429.511C180.039 429.511 181.648 429.876 183.04 430.605C184.442 431.325 185.536 432.31 186.322 433.56C187.108 434.8 187.501 436.202 187.501 437.764C187.501 438.844 187.297 439.9 186.89 440.932C186.492 441.964 185.796 443.115 184.802 444.384C183.808 445.643 182.425 447.172 180.654 448.972L174.873 455.023V455.236H187.969V459H168.822ZM208.489 428.545L199.114 463.375H195.322L204.697 428.545H208.489ZM226.168 459.483C223.924 459.473 222.006 458.882 220.415 457.707C218.825 456.533 217.608 454.824 216.765 452.58C215.922 450.335 215.501 447.632 215.501 444.469C215.501 441.315 215.922 438.621 216.765 436.386C217.617 434.152 218.839 432.447 220.43 431.273C222.03 430.098 223.943 429.511 226.168 429.511C228.394 429.511 230.302 430.103 231.893 431.287C233.484 432.461 234.701 434.166 235.543 436.401C236.396 438.626 236.822 441.315 236.822 444.469C236.822 447.641 236.4 450.349 235.558 452.594C234.715 454.829 233.498 456.538 231.907 457.722C230.316 458.896 228.403 459.483 226.168 459.483ZM226.168 455.69C228.138 455.69 229.677 454.729 230.785 452.807C231.902 450.884 232.461 448.105 232.461 444.469C232.461 442.054 232.205 440.013 231.694 438.347C231.192 436.67 230.468 435.402 229.521 434.54C228.583 433.669 227.466 433.233 226.168 433.233C224.208 433.233 222.669 434.199 221.552 436.131C220.434 438.062 219.871 440.842 219.862 444.469C219.862 446.893 220.112 448.943 220.614 450.619C221.126 452.286 221.85 453.55 222.788 454.412C223.725 455.264 224.852 455.69 226.168 455.69ZM246.06 459L258.759 433.886V433.673H244.071V429.909H263.304V433.801L250.648 459H246.06ZM299.741 442.608V446.301H286.844V442.608H299.741ZM323.931 459V455.818L333.775 445.619C334.826 444.511 335.692 443.541 336.374 442.707C337.066 441.865 337.582 441.064 337.923 440.307C338.263 439.549 338.434 438.744 338.434 437.892C338.434 436.926 338.207 436.093 337.752 435.392C337.298 434.682 336.677 434.137 335.891 433.759C335.105 433.37 334.22 433.176 333.235 433.176C332.193 433.176 331.284 433.389 330.508 433.815C329.731 434.241 329.135 434.843 328.718 435.619C328.301 436.396 328.093 437.305 328.093 438.347H323.903C323.903 436.576 324.31 435.027 325.124 433.702C325.939 432.376 327.056 431.348 328.477 430.619C329.897 429.881 331.512 429.511 333.32 429.511C335.148 429.511 336.758 429.876 338.15 430.605C339.551 431.325 340.645 432.31 341.431 433.56C342.217 434.8 342.61 436.202 342.61 437.764C342.61 438.844 342.406 439.9 341.999 440.932C341.602 441.964 340.906 443.115 339.911 444.384C338.917 445.643 337.534 447.172 335.763 448.972L329.982 455.023V455.236H343.079V459H323.931ZM362.59 459.483C360.346 459.473 358.428 458.882 356.837 457.707C355.246 456.533 354.03 454.824 353.187 452.58C352.344 450.335 351.923 447.632 351.923 444.469C351.923 441.315 352.344 438.621 353.187 436.386C354.039 434.152 355.261 432.447 356.852 431.273C358.452 430.098 360.365 429.511 362.59 429.511C364.816 429.511 366.724 430.103 368.315 431.287C369.906 432.461 371.122 434.166 371.965 436.401C372.817 438.626 373.244 441.315 373.244 444.469C373.244 447.641 372.822 450.349 371.979 452.594C371.137 454.829 369.92 456.538 368.329 457.722C366.738 458.896 364.825 459.483 362.59 459.483ZM362.59 455.69C364.56 455.69 366.099 454.729 367.207 452.807C368.324 450.884 368.883 448.105 368.883 444.469C368.883 442.054 368.627 440.013 368.116 438.347C367.614 436.67 366.889 435.402 365.942 434.54C365.005 433.669 363.888 433.233 362.59 433.233C360.63 433.233 359.091 434.199 357.974 436.131C356.856 438.062 356.293 440.842 356.283 444.469C356.283 446.893 356.534 448.943 357.036 450.619C357.548 452.286 358.272 453.55 359.21 454.412C360.147 455.264 361.274 455.69 362.59 455.69ZM382.283 459V455.818L392.126 445.619C393.178 444.511 394.044 443.541 394.726 442.707C395.417 441.865 395.933 441.064 396.274 440.307C396.615 439.549 396.786 438.744 396.786 437.892C396.786 436.926 396.558 436.093 396.104 435.392C395.649 434.682 395.029 434.137 394.243 433.759C393.457 433.37 392.571 433.176 391.587 433.176C390.545 433.176 389.636 433.389 388.859 433.815C388.083 434.241 387.486 434.843 387.07 435.619C386.653 436.396 386.445 437.305 386.445 438.347H382.254C382.254 436.576 382.661 435.027 383.476 433.702C384.29 432.376 385.408 431.348 386.828 430.619C388.249 429.881 389.863 429.511 391.672 429.511C393.5 429.511 395.109 429.876 396.501 430.605C397.903 431.325 398.997 432.31 399.783 433.56C400.569 434.8 400.962 436.202 400.962 437.764C400.962 438.844 400.758 439.9 400.351 440.932C399.953 441.964 399.257 443.115 398.263 444.384C397.268 445.643 395.886 447.172 394.115 448.972L388.334 455.023V455.236H401.43V459H382.283ZM409.578 453.318V449.767L422.149 429.909H424.947V435.136H423.172L414.18 449.369V449.597H431.411V453.318H409.578ZM423.371 459V452.239L423.399 450.619V429.909H427.561V459H423.371ZM451.497 428.545L442.122 463.375H438.33L447.705 428.545H451.497ZM470.085 429.909V459H465.682V434.312H465.511L458.551 438.858V434.653L465.81 429.909H470.085ZM481.955 459V455.818L491.798 445.619C492.849 444.511 493.716 443.541 494.398 442.707C495.089 441.865 495.605 441.064 495.946 440.307C496.287 439.549 496.457 438.744 496.457 437.892C496.457 436.926 496.23 436.093 495.776 435.392C495.321 434.682 494.701 434.137 493.915 433.759C493.129 433.37 492.243 433.176 491.259 433.176C490.217 433.176 489.308 433.389 488.531 433.815C487.755 434.241 487.158 434.843 486.741 435.619C486.325 436.396 486.116 437.305 486.116 438.347H481.926C481.926 436.576 482.333 435.027 483.148 433.702C483.962 432.376 485.08 431.348 486.5 430.619C487.92 429.881 489.535 429.511 491.344 429.511C493.171 429.511 494.781 429.876 496.173 430.605C497.575 431.325 498.669 432.31 499.455 433.56C500.241 434.8 500.634 436.202 500.634 437.764C500.634 438.844 500.43 439.9 500.023 440.932C499.625 441.964 498.929 443.115 497.935 444.384C496.94 445.643 495.558 447.172 493.787 448.972L488.006 455.023V455.236H501.102V459H481.955ZM521.622 428.545L512.247 463.375H508.455L517.83 428.545H521.622ZM540.21 429.909V459H535.807V434.312H535.636L528.676 438.858V434.653L535.935 429.909H540.21ZM561.682 459.398C559.902 459.398 558.301 459.057 556.881 458.375C555.47 457.684 554.343 456.737 553.5 455.534C552.657 454.331 552.207 452.958 552.151 451.415H556.412C556.516 452.665 557.07 453.692 558.074 454.497C559.078 455.302 560.28 455.705 561.682 455.705C562.799 455.705 563.789 455.449 564.651 454.938C565.522 454.417 566.204 453.702 566.696 452.793C567.198 451.884 567.449 450.847 567.449 449.682C567.449 448.498 567.193 447.442 566.682 446.514C566.17 445.586 565.465 444.857 564.565 444.327C563.675 443.796 562.652 443.527 561.497 443.517C560.616 443.517 559.731 443.669 558.841 443.972C557.951 444.275 557.231 444.672 556.682 445.165L552.662 444.568L554.295 429.909H570.29V433.673H557.946L557.023 441.812H557.193C557.761 441.263 558.514 440.804 559.452 440.435C560.399 440.065 561.412 439.881 562.491 439.881C564.262 439.881 565.839 440.302 567.222 441.145C568.614 441.988 569.707 443.138 570.503 444.597C571.308 446.045 571.705 447.712 571.696 449.597C571.705 451.481 571.279 453.162 570.418 454.639C569.565 456.116 568.382 457.281 566.866 458.134C565.361 458.976 563.633 459.398 561.682 459.398Z" fill="white"/>
<g filter="url(#filter0_f_88_25)">
<path d="M384.21 79.3161C375.103 81.9878 365.562 76.7521 362.9 67.6245C360.234 58.4968 365.458 48.9333 374.564 46.2646C383.67 43.5929 393.212 48.8286 395.872 57.9562C395.877 57.964 395.877 57.9719 395.882 57.9812C398.53 67.0995 393.307 76.6522 384.21 79.3161ZM203.76 208.52C194.653 211.192 185.112 205.957 182.45 196.829C179.786 187.701 185.008 178.139 194.114 175.471C194.122 175.466 194.128 175.463 194.136 175.463C203.189 172.775 212.702 177.95 215.385 187.026C215.397 187.07 215.411 187.114 215.424 187.162C218.088 196.29 212.864 205.853 203.76 208.52ZM428.893 48.2208C428.89 48.2052 428.885 48.1895 428.882 48.1724C420.873 20.7737 392.222 5.07141 364.883 13.0991C360.849 14.2834 357.078 15.9271 353.591 17.9426V11.0992H327.825V61.3045C327.797 62.3326 327.789 63.3638 327.825 64.4043V97.1386L250.48 121.53V11.143H224.712V129.657L184.355 142.385C156.925 150.331 141.118 179.066 149.047 206.561C156.978 234.052 185.642 249.898 213.073 241.947C217.235 240.744 221.126 239.052 224.712 236.963V243.68H250.48V157.607L327.825 133.232V243.639H353.591V125.114L393.949 112.394C421.28 104.346 436.927 75.6163 428.893 48.2208Z" fill="white" fill-opacity="0.49" style="mix-blend-mode:screen"/>
<path d="M88.2055 331V284.455H106.569C110.099 284.455 113.107 285.129 115.592 286.477C118.077 287.811 119.971 289.667 121.274 292.045C122.592 294.409 123.251 297.136 123.251 300.227C123.251 303.318 122.584 306.045 121.251 308.409C119.918 310.773 117.986 312.614 115.455 313.932C112.94 315.25 109.895 315.909 106.319 315.909H94.6145V308.023H104.728C106.622 308.023 108.183 307.697 109.41 307.045C110.652 306.379 111.577 305.462 112.183 304.295C112.804 303.114 113.115 301.758 113.115 300.227C113.115 298.682 112.804 297.333 112.183 296.182C111.577 295.015 110.652 294.114 109.41 293.477C108.168 292.826 106.592 292.5 104.683 292.5H98.0464V331H88.2055ZM146.65 331V323.909L163.218 308.568C164.628 307.205 165.809 305.977 166.764 304.886C167.734 303.795 168.468 302.727 168.968 301.682C169.468 300.621 169.718 299.477 169.718 298.25C169.718 296.886 169.408 295.712 168.787 294.727C168.165 293.727 167.317 292.962 166.241 292.432C165.165 291.886 163.946 291.614 162.582 291.614C161.158 291.614 159.915 291.902 158.855 292.477C157.794 293.053 156.976 293.879 156.4 294.955C155.824 296.03 155.537 297.311 155.537 298.795H146.196C146.196 295.75 146.885 293.106 148.264 290.864C149.643 288.621 151.574 286.886 154.059 285.659C156.544 284.432 159.408 283.818 162.65 283.818C165.984 283.818 168.885 284.409 171.355 285.591C173.84 286.758 175.771 288.379 177.15 290.455C178.529 292.53 179.218 294.909 179.218 297.591C179.218 299.348 178.87 301.083 178.173 302.795C177.491 304.508 176.271 306.409 174.514 308.5C172.756 310.576 170.279 313.068 167.082 315.977L160.287 322.636V322.955H179.832V331H146.65ZM204.515 331V284.455H214.356V303.659H234.334V284.455H244.152V331H234.334V311.773H214.356V331H204.515ZM277.568 331H267.023L283.091 284.455H295.773L311.818 331H301.273L289.614 295.091H289.25L277.568 331ZM276.909 312.705H301.818V320.386H276.909V312.705ZM373.581 300.75H363.627C363.445 299.462 363.074 298.318 362.513 297.318C361.952 296.303 361.233 295.439 360.354 294.727C359.475 294.015 358.46 293.47 357.308 293.091C356.172 292.712 354.937 292.523 353.604 292.523C351.195 292.523 349.096 293.121 347.308 294.318C345.521 295.5 344.134 297.227 343.149 299.5C342.164 301.758 341.672 304.5 341.672 307.727C341.672 311.045 342.164 313.833 343.149 316.091C344.149 318.348 345.543 320.053 347.331 321.205C349.119 322.356 351.187 322.932 353.536 322.932C354.854 322.932 356.074 322.758 357.195 322.409C358.331 322.061 359.339 321.553 360.217 320.886C361.096 320.205 361.824 319.379 362.399 318.409C362.99 317.439 363.399 316.333 363.627 315.091L373.581 315.136C373.324 317.273 372.68 319.333 371.649 321.318C370.634 323.288 369.263 325.053 367.536 326.614C365.824 328.159 363.778 329.386 361.399 330.295C359.036 331.189 356.361 331.636 353.377 331.636C349.225 331.636 345.513 330.697 342.24 328.818C338.983 326.939 336.407 324.22 334.513 320.659C332.634 317.098 331.695 312.788 331.695 307.727C331.695 302.652 332.649 298.333 334.558 294.773C336.467 291.212 339.058 288.5 342.331 286.636C345.604 284.758 349.286 283.818 353.377 283.818C356.074 283.818 358.574 284.197 360.877 284.955C363.195 285.712 365.248 286.818 367.036 288.273C368.824 289.712 370.278 291.477 371.399 293.568C372.536 295.659 373.263 298.053 373.581 300.75ZM397.918 331V284.455H407.759V304.977H408.372L425.122 284.455H436.918L419.645 305.295L437.122 331H425.35L412.6 311.864L407.759 317.773V331H397.918ZM484.198 297.841C484.016 296.008 483.236 294.583 481.857 293.568C480.478 292.553 478.607 292.045 476.243 292.045C474.637 292.045 473.281 292.273 472.175 292.727C471.069 293.167 470.221 293.78 469.63 294.568C469.054 295.356 468.766 296.25 468.766 297.25C468.736 298.083 468.91 298.811 469.289 299.432C469.683 300.053 470.221 300.591 470.902 301.045C471.584 301.485 472.372 301.871 473.266 302.205C474.16 302.523 475.115 302.795 476.13 303.023L480.312 304.023C482.342 304.477 484.206 305.083 485.902 305.841C487.599 306.598 489.069 307.53 490.312 308.636C491.554 309.742 492.516 311.045 493.198 312.545C493.895 314.045 494.251 315.765 494.266 317.705C494.251 320.553 493.524 323.023 492.084 325.114C490.66 327.189 488.599 328.803 485.902 329.955C483.221 331.091 479.986 331.659 476.198 331.659C472.44 331.659 469.168 331.083 466.38 329.932C463.607 328.78 461.44 327.076 459.88 324.818C458.334 322.545 457.524 319.735 457.448 316.386H466.971C467.077 317.947 467.524 319.25 468.312 320.295C469.115 321.326 470.183 322.106 471.516 322.636C472.865 323.152 474.387 323.409 476.084 323.409C477.751 323.409 479.198 323.167 480.425 322.682C481.668 322.197 482.63 321.523 483.312 320.659C483.993 319.795 484.334 318.803 484.334 317.682C484.334 316.636 484.024 315.758 483.402 315.045C482.796 314.333 481.902 313.727 480.721 313.227C479.554 312.727 478.122 312.273 476.425 311.864L471.357 310.591C467.433 309.636 464.334 308.144 462.062 306.114C459.789 304.083 458.66 301.348 458.675 297.909C458.66 295.091 459.41 292.629 460.925 290.523C462.456 288.417 464.554 286.773 467.221 285.591C469.887 284.409 472.918 283.818 476.312 283.818C479.766 283.818 482.781 284.409 485.357 285.591C487.948 286.773 489.963 288.417 491.402 290.523C492.842 292.629 493.584 295.068 493.63 297.841H484.198ZM203.061 401V393.909L219.63 378.568C221.039 377.205 222.221 375.977 223.175 374.886C224.145 373.795 224.88 372.727 225.38 371.682C225.88 370.621 226.13 369.477 226.13 368.25C226.13 366.886 225.819 365.712 225.198 364.727C224.577 363.727 223.728 362.962 222.652 362.432C221.577 361.886 220.357 361.614 218.993 361.614C217.569 361.614 216.327 361.902 215.266 362.477C214.205 363.053 213.387 363.879 212.811 364.955C212.236 366.03 211.948 367.311 211.948 368.795H202.607C202.607 365.75 203.296 363.106 204.675 360.864C206.054 358.621 207.986 356.886 210.471 355.659C212.955 354.432 215.819 353.818 219.061 353.818C222.395 353.818 225.296 354.409 227.766 355.591C230.251 356.758 232.183 358.379 233.561 360.455C234.94 362.53 235.63 364.909 235.63 367.591C235.63 369.348 235.281 371.083 234.584 372.795C233.902 374.508 232.683 376.409 230.925 378.5C229.168 380.576 226.69 383.068 223.493 385.977L216.698 392.636V392.955H236.243V401H203.061ZM266.744 402.023C262.835 402.008 259.471 401.045 256.653 399.136C253.85 397.227 251.691 394.462 250.176 390.841C248.676 387.22 247.933 382.864 247.949 377.773C247.949 372.697 248.699 368.371 250.199 364.795C251.714 361.22 253.873 358.5 256.676 356.636C259.494 354.758 262.85 353.818 266.744 353.818C270.638 353.818 273.986 354.758 276.789 356.636C279.608 358.515 281.774 361.242 283.289 364.818C284.805 368.379 285.555 372.697 285.539 377.773C285.539 382.879 284.782 387.242 283.267 390.864C281.767 394.485 279.615 397.25 276.812 399.159C274.009 401.068 270.653 402.023 266.744 402.023ZM266.744 393.864C269.411 393.864 271.539 392.523 273.13 389.841C274.721 387.159 275.509 383.136 275.494 377.773C275.494 374.242 275.13 371.303 274.403 368.955C273.691 366.606 272.676 364.841 271.358 363.659C270.055 362.477 268.517 361.886 266.744 361.886C264.092 361.886 261.971 363.212 260.38 365.864C258.789 368.515 257.986 372.485 257.971 377.773C257.971 381.348 258.327 384.333 259.039 386.727C259.767 389.106 260.789 390.894 262.108 392.091C263.426 393.273 264.971 393.864 266.744 393.864ZM297.676 401V393.909L314.245 378.568C315.654 377.205 316.836 375.977 317.79 374.886C318.76 373.795 319.495 372.727 319.995 371.682C320.495 370.621 320.745 369.477 320.745 368.25C320.745 366.886 320.434 365.712 319.813 364.727C319.192 363.727 318.343 362.962 317.267 362.432C316.192 361.886 314.972 361.614 313.608 361.614C312.184 361.614 310.942 361.902 309.881 362.477C308.82 363.053 308.002 363.879 307.426 364.955C306.851 366.03 306.563 367.311 306.563 368.795H297.222C297.222 365.75 297.911 363.106 299.29 360.864C300.669 358.621 302.601 356.886 305.086 355.659C307.57 354.432 310.434 353.818 313.676 353.818C317.01 353.818 319.911 354.409 322.381 355.591C324.866 356.758 326.798 358.379 328.176 360.455C329.555 362.53 330.245 364.909 330.245 367.591C330.245 369.348 329.896 371.083 329.199 372.795C328.517 374.508 327.298 376.409 325.54 378.5C323.783 380.576 321.305 383.068 318.108 385.977L311.313 392.636V392.955H330.858V401H297.676ZM341.404 392.818V385.068L360.836 354.455H367.518V365.182H363.564L351.314 384.568V384.932H378.927V392.818H341.404ZM363.745 401V390.455L363.927 387.023V354.455H373.154V401H363.745Z" fill="white" fill-opacity="0.49" style="mix-blend-mode:screen"/>
<path d="M10.7983 459V455.818L20.642 445.619C21.6932 444.511 22.5597 443.541 23.2415 442.707C23.9328 441.865 24.4489 441.064 24.7898 440.307C25.1307 439.549 25.3011 438.744 25.3011 437.892C25.3011 436.926 25.0739 436.093 24.6193 435.392C24.1648 434.682 23.5445 434.137 22.7585 433.759C21.9725 433.37 21.0871 433.176 20.1023 433.176C19.0606 433.176 18.1515 433.389 17.375 433.815C16.5985 434.241 16.0019 434.843 15.5852 435.619C15.1686 436.396 14.9602 437.305 14.9602 438.347H10.7699C10.7699 436.576 11.1771 435.027 11.9915 433.702C12.8059 432.376 13.9233 431.348 15.3438 430.619C16.7642 429.881 18.3788 429.511 20.1875 429.511C22.0152 429.511 23.625 429.876 25.017 430.605C26.4186 431.325 27.5123 432.31 28.2983 433.56C29.0843 434.8 29.4773 436.202 29.4773 437.764C29.4773 438.844 29.2737 439.9 28.8665 440.932C28.4688 441.964 27.7727 443.115 26.7784 444.384C25.7841 445.643 24.4015 447.172 22.6307 448.972L16.8494 455.023V455.236H29.946V459H10.7983ZM49.4574 459.483C47.2131 459.473 45.2955 458.882 43.7045 457.707C42.1136 456.533 40.8968 454.824 40.054 452.58C39.2112 450.335 38.7898 447.632 38.7898 444.469C38.7898 441.315 39.2112 438.621 40.054 436.386C40.9063 434.152 42.1278 432.447 43.7188 431.273C45.3191 430.098 47.232 429.511 49.4574 429.511C51.6828 429.511 53.5909 430.103 55.1818 431.287C56.7727 432.461 57.9896 434.166 58.8324 436.401C59.6847 438.626 60.1108 441.315 60.1108 444.469C60.1108 447.641 59.6894 450.349 58.8466 452.594C58.0038 454.829 56.7869 456.538 55.196 457.722C53.6051 458.896 51.6922 459.483 49.4574 459.483ZM49.4574 455.69C51.4271 455.69 52.9659 454.729 54.0739 452.807C55.1913 450.884 55.75 448.105 55.75 444.469C55.75 442.054 55.4943 440.013 54.983 438.347C54.4811 436.67 53.7566 435.402 52.8097 434.54C51.8722 433.669 50.7547 433.233 49.4574 433.233C47.4972 433.233 45.9583 434.199 44.8409 436.131C43.7235 438.062 43.16 440.842 43.1506 444.469C43.1506 446.893 43.4015 448.943 43.9034 450.619C44.4148 452.286 45.1392 453.55 46.0767 454.412C47.0142 455.264 48.1411 455.69 49.4574 455.69ZM69.1499 459V455.818L78.9936 445.619C80.0447 444.511 80.9112 443.541 81.593 442.707C82.2843 441.865 82.8004 441.064 83.1413 440.307C83.4822 439.549 83.6527 438.744 83.6527 437.892C83.6527 436.926 83.4254 436.093 82.9709 435.392C82.5163 434.682 81.8961 434.137 81.1101 433.759C80.3241 433.37 79.4387 433.176 78.4538 433.176C77.4122 433.176 76.5031 433.389 75.7266 433.815C74.95 434.241 74.3535 434.843 73.9368 435.619C73.5201 436.396 73.3118 437.305 73.3118 438.347H69.1214C69.1214 436.576 69.5286 435.027 70.343 433.702C71.1574 432.376 72.2749 431.348 73.6953 430.619C75.1158 429.881 76.7304 429.511 78.5391 429.511C80.3667 429.511 81.9766 429.876 83.3686 430.605C84.7701 431.325 85.8639 432.31 86.6499 433.56C87.4358 434.8 87.8288 436.202 87.8288 437.764C87.8288 438.844 87.6252 439.9 87.218 440.932C86.8203 441.964 86.1243 443.115 85.13 444.384C84.1357 445.643 82.7531 447.172 80.9822 448.972L75.201 455.023V455.236H88.2976V459H69.1499ZM96.4453 453.318V449.767L109.016 429.909H111.815V435.136H110.039L101.048 449.369V449.597H118.278V453.318H96.4453ZM110.238 459V452.239L110.266 450.619V429.909H114.428V459H110.238ZM138.364 428.545L128.989 463.375H125.197L134.572 428.545H138.364ZM156.952 429.909V459H152.549V434.312H152.379L145.418 438.858V434.653L152.677 429.909H156.952ZM168.822 459V455.818L178.665 445.619C179.717 444.511 180.583 443.541 181.265 442.707C181.956 441.865 182.472 441.064 182.813 440.307C183.154 439.549 183.325 438.744 183.325 437.892C183.325 436.926 183.097 436.093 182.643 435.392C182.188 434.682 181.568 434.137 180.782 433.759C179.996 433.37 179.111 433.176 178.126 433.176C177.084 433.176 176.175 433.389 175.398 433.815C174.622 434.241 174.025 434.843 173.609 435.619C173.192 436.396 172.984 437.305 172.984 438.347H168.793C168.793 436.576 169.201 435.027 170.015 433.702C170.829 432.376 171.947 431.348 173.367 430.619C174.788 429.881 176.402 429.511 178.211 429.511C180.039 429.511 181.648 429.876 183.04 430.605C184.442 431.325 185.536 432.31 186.322 433.56C187.108 434.8 187.501 436.202 187.501 437.764C187.501 438.844 187.297 439.9 186.89 440.932C186.492 441.964 185.796 443.115 184.802 444.384C183.808 445.643 182.425 447.172 180.654 448.972L174.873 455.023V455.236H187.969V459H168.822ZM208.489 428.545L199.114 463.375H195.322L204.697 428.545H208.489ZM226.168 459.483C223.924 459.473 222.006 458.882 220.415 457.707C218.825 456.533 217.608 454.824 216.765 452.58C215.922 450.335 215.501 447.632 215.501 444.469C215.501 441.315 215.922 438.621 216.765 436.386C217.617 434.152 218.839 432.447 220.43 431.273C222.03 430.098 223.943 429.511 226.168 429.511C228.394 429.511 230.302 430.103 231.893 431.287C233.484 432.461 234.701 434.166 235.543 436.401C236.396 438.626 236.822 441.315 236.822 444.469C236.822 447.641 236.4 450.349 235.558 452.594C234.715 454.829 233.498 456.538 231.907 457.722C230.316 458.896 228.403 459.483 226.168 459.483ZM226.168 455.69C228.138 455.69 229.677 454.729 230.785 452.807C231.902 450.884 232.461 448.105 232.461 444.469C232.461 442.054 232.205 440.013 231.694 438.347C231.192 436.67 230.468 435.402 229.521 434.54C228.583 433.669 227.466 433.233 226.168 433.233C224.208 433.233 222.669 434.199 221.552 436.131C220.434 438.062 219.871 440.842 219.862 444.469C219.862 446.893 220.112 448.943 220.614 450.619C221.126 452.286 221.85 453.55 222.788 454.412C223.725 455.264 224.852 455.69 226.168 455.69ZM246.06 459L258.759 433.886V433.673H244.071V429.909H263.304V433.801L250.648 459H246.06ZM299.741 442.608V446.301H286.844V442.608H299.741ZM323.931 459V455.818L333.775 445.619C334.826 444.511 335.692 443.541 336.374 442.707C337.066 441.865 337.582 441.064 337.923 440.307C338.263 439.549 338.434 438.744 338.434 437.892C338.434 436.926 338.207 436.093 337.752 435.392C337.298 434.682 336.677 434.137 335.891 433.759C335.105 433.37 334.22 433.176 333.235 433.176C332.193 433.176 331.284 433.389 330.508 433.815C329.731 434.241 329.135 434.843 328.718 435.619C328.301 436.396 328.093 437.305 328.093 438.347H323.903C323.903 436.576 324.31 435.027 325.124 433.702C325.939 432.376 327.056 431.348 328.477 430.619C329.897 429.881 331.512 429.511 333.32 429.511C335.148 429.511 336.758 429.876 338.15 430.605C339.551 431.325 340.645 432.31 341.431 433.56C342.217 434.8 342.61 436.202 342.61 437.764C342.61 438.844 342.406 439.9 341.999 440.932C341.602 441.964 340.906 443.115 339.911 444.384C338.917 445.643 337.534 447.172 335.763 448.972L329.982 455.023V455.236H343.079V459H323.931ZM362.59 459.483C360.346 459.473 358.428 458.882 356.837 457.707C355.246 456.533 354.03 454.824 353.187 452.58C352.344 450.335 351.923 447.632 351.923 444.469C351.923 441.315 352.344 438.621 353.187 436.386C354.039 434.152 355.261 432.447 356.852 431.273C358.452 430.098 360.365 429.511 362.59 429.511C364.816 429.511 366.724 430.103 368.315 431.287C369.906 432.461 371.122 434.166 371.965 436.401C372.817 438.626 373.244 441.315 373.244 444.469C373.244 447.641 372.822 450.349 371.979 452.594C371.137 454.829 369.92 456.538 368.329 457.722C366.738 458.896 364.825 459.483 362.59 459.483ZM362.59 455.69C364.56 455.69 366.099 454.729 367.207 452.807C368.324 450.884 368.883 448.105 368.883 444.469C368.883 442.054 368.627 440.013 368.116 438.347C367.614 436.67 366.889 435.402 365.942 434.54C365.005 433.669 363.888 433.233 362.59 433.233C360.63 433.233 359.091 434.199 357.974 436.131C356.856 438.062 356.293 440.842 356.283 444.469C356.283 446.893 356.534 448.943 357.036 450.619C357.548 452.286 358.272 453.55 359.21 454.412C360.147 455.264 361.274 455.69 362.59 455.69ZM382.283 459V455.818L392.126 445.619C393.178 444.511 394.044 443.541 394.726 442.707C395.417 441.865 395.933 441.064 396.274 440.307C396.615 439.549 396.786 438.744 396.786 437.892C396.786 436.926 396.558 436.093 396.104 435.392C395.649 434.682 395.029 434.137 394.243 433.759C393.457 433.37 392.571 433.176 391.587 433.176C390.545 433.176 389.636 433.389 388.859 433.815C388.083 434.241 387.486 434.843 387.07 435.619C386.653 436.396 386.445 437.305 386.445 438.347H382.254C382.254 436.576 382.661 435.027 383.476 433.702C384.29 432.376 385.408 431.348 386.828 430.619C388.249 429.881 389.863 429.511 391.672 429.511C393.5 429.511 395.109 429.876 396.501 430.605C397.903 431.325 398.997 432.31 399.783 433.56C400.569 434.8 400.962 436.202 400.962 437.764C400.962 438.844 400.758 439.9 400.351 440.932C399.953 441.964 399.257 443.115 398.263 444.384C397.268 445.643 395.886 447.172 394.115 448.972L388.334 455.023V455.236H401.43V459H382.283ZM409.578 453.318V449.767L422.149 429.909H424.947V435.136H423.172L414.18 449.369V449.597H431.411V453.318H409.578ZM423.371 459V452.239L423.399 450.619V429.909H427.561V459H423.371ZM451.497 428.545L442.122 463.375H438.33L447.705 428.545H451.497ZM470.085 429.909V459H465.682V434.312H465.511L458.551 438.858V434.653L465.81 429.909H470.085ZM481.955 459V455.818L491.798 445.619C492.849 444.511 493.716 443.541 494.398 442.707C495.089 441.865 495.605 441.064 495.946 440.307C496.287 439.549 496.457 438.744 496.457 437.892C496.457 436.926 496.23 436.093 495.776 435.392C495.321 434.682 494.701 434.137 493.915 433.759C493.129 433.37 492.243 433.176 491.259 433.176C490.217 433.176 489.308 433.389 488.531 433.815C487.755 434.241 487.158 434.843 486.741 435.619C486.325 436.396 486.116 437.305 486.116 438.347H481.926C481.926 436.576 482.333 435.027 483.148 433.702C483.962 432.376 485.08 431.348 486.5 430.619C487.92 429.881 489.535 429.511 491.344 429.511C493.171 429.511 494.781 429.876 496.173 430.605C497.575 431.325 498.669 432.31 499.455 433.56C500.241 434.8 500.634 436.202 500.634 437.764C500.634 438.844 500.43 439.9 500.023 440.932C499.625 441.964 498.929 443.115 497.935 444.384C496.94 445.643 495.558 447.172 493.787 448.972L488.006 455.023V455.236H501.102V459H481.955ZM521.622 428.545L512.247 463.375H508.455L517.83 428.545H521.622ZM540.21 429.909V459H535.807V434.312H535.636L528.676 438.858V434.653L535.935 429.909H540.21ZM561.682 459.398C559.902 459.398 558.301 459.057 556.881 458.375C555.47 457.684 554.343 456.737 553.5 455.534C552.657 454.331 552.207 452.958 552.151 451.415H556.412C556.516 452.665 557.07 453.692 558.074 454.497C559.078 455.302 560.28 455.705 561.682 455.705C562.799 455.705 563.789 455.449 564.651 454.938C565.522 454.417 566.204 453.702 566.696 452.793C567.198 451.884 567.449 450.847 567.449 449.682C567.449 448.498 567.193 447.442 566.682 446.514C566.17 445.586 565.465 444.857 564.565 444.327C563.675 443.796 562.652 443.527 561.497 443.517C560.616 443.517 559.731 443.669 558.841 443.972C557.951 444.275 557.231 444.672 556.682 445.165L552.662 444.568L554.295 429.909H570.29V433.673H557.946L557.023 441.812H557.193C557.761 441.263 558.514 440.804 559.452 440.435C560.399 440.065 561.412 439.881 562.491 439.881C564.262 439.881 565.839 440.302 567.222 441.145C568.614 441.988 569.707 443.138 570.503 444.597C571.308 446.045 571.705 447.712 571.696 449.597C571.705 451.481 571.279 453.162 570.418 454.639C569.565 456.116 568.382 457.281 566.866 458.134C565.361 458.976 563.633 459.398 561.682 459.398Z" fill="white" fill-opacity="0.49" style="mix-blend-mode:screen"/>
</g>
<defs>
<filter id="filter0_f_88_25" x="0.569898" y="0.8" width="581.34" height="472.775" filterUnits="userSpaceOnUse" color-interpolation-filters="sRGB">
<feFlood flood-opacity="0" result="BackgroundImageFix"/>
<feBlend mode="normal" in="SourceGraphic" in2="BackgroundImageFix" result="shape"/>
<feGaussianBlur stdDeviation="5.1" result="effect1_foregroundBlur_88_25"/>
</filter>
</defs>
</svg>
